<svg width="126" height="83" viewBox="0 0 126 83" fill="none" xmlns="http://www.w3.org/2000/svg">
<g clip-path="url(#clip0_111_281)">
<path fill-rule="evenodd" clip-rule="evenodd" d="M53.1512 26.5266C53.0069 26.4027 53.0365 26.0105 53.3953 26.1473C55.1693 26.8262 56.4032 27.8992 57.6334 28.8926C59.0597 28.6891 60.9319 28.6428 62.1843 30.106C63.05 31.1179 64.4207 34.0738 65.6102 36.7227C66.1652 37.9621 68.2242 39.0147 70.1628 38.3247C70.346 38.247 70.531 38.1638 70.7178 38.0769C70.7825 38.0399 70.8455 38.0122 70.9028 37.9882C76.0881 35.4631 82.1557 29.2237 89.0151 29.2237H111.913C113.802 29.2237 114.756 30.2003 114.756 31.4489L114.76 31.4545C114.76 33.2229 112.344 35.4834 108.086 36.0513C108.519 36.4249 108.737 36.9374 108.737 37.5127C108.737 39.1627 106.537 41.2235 102.654 41.7803C103.035 42.1244 103.23 42.5905 103.23 43.0992C103.23 44.5976 101.239 46.4918 97.7171 47.0375C98.0426 47.352 98.209 47.7644 98.209 48.2139C98.209 48.7707 97.8983 49.4035 97.2952 49.988C88.7617 58.5453 79.551 58.8043 74.2566 57.5815C72.0423 57.071 70.468 56.1867 69.4395 55.1249C69.8816 53.3232 69.2415 51.1588 69.2415 51.1588C68.9807 54.2776 67.6154 57.3447 67.6154 57.3447C68.7124 62.5741 74.2454 68.8098 74.6821 70.5117C75.0484 71.9417 74.1123 73.6694 72.6768 74.2096L72.2106 74.3854C72.0015 75.0494 71.676 75.5822 71.3449 75.9337C70.8879 76.4183 70.0721 76.8881 69.6281 77.1249L68.8605 77.5337C68.6589 78.3643 68.2444 79.0339 67.8096 79.4686C67.4064 79.87 66.6461 80.353 65.9099 80.649C65.2661 82.0344 63.7918 83.0037 62.077 83.0037C60.3621 83.0037 58.8876 82.0345 58.2439 80.649C57.5058 80.353 56.7455 79.87 56.3441 79.4686C55.9094 79.032 55.495 78.3642 55.2934 77.5337L54.5256 77.1249C54.0798 76.8881 53.2658 76.4183 52.8089 75.9337C52.4778 75.5822 52.1522 75.0494 51.9432 74.3854L51.4769 74.2096C50.0415 73.6694 49.1054 71.9416 49.4717 70.5117C49.9065 68.8135 55.4191 62.5982 56.5309 57.3761C56.5264 57.3659 55.1708 54.2706 54.9104 51.157C54.9104 51.157 54.2703 53.3195 54.7124 55.1231C53.6839 56.1849 52.1096 57.0672 49.8953 57.5796C44.6009 58.8041 35.3903 58.5433 26.8567 49.986C26.2555 49.4015 25.943 48.7689 25.943 48.2121C25.943 47.7626 26.1095 47.35 26.4351 47.0355C22.9129 46.4917 20.9223 44.5958 20.9222 43.0974C20.9222 42.5887 21.1147 42.1242 21.4976 41.7783C17.6147 41.2215 15.4152 39.1609 15.4152 37.5109C15.4152 36.9356 15.6334 36.4213 16.0663 36.0495C11.8079 35.4815 9.39205 33.2211 9.39201 31.4527C9.39201 30.2041 10.3464 29.2273 12.2351 29.2273H35.1332C43.4799 29.2273 50.6594 38.4709 56.4977 39.0074C56.1499 39.775 55.6448 40.6611 55.6448 41.6082C56.1886 40.5575 56.9805 39.7214 57.221 39.037C57.8278 37.3037 57.1931 35.8885 56.3477 34.7786C55.6763 33.8963 55.7428 33.1212 55.1565 32.1612C54.5904 31.2363 52.5777 30.3612 51.2439 29.8395C51.0608 29.7803 50.9017 29.4567 51.2735 29.4659C52.6461 29.5029 54.004 29.8951 55.3655 30.5204C55.7946 30.7257 56.2238 30.9476 56.6548 31.1881C56.6659 31.1936 56.6752 31.1936 56.6844 31.1955H56.7271C56.8934 31.1472 56.6104 30.4574 56.3367 30.0597C55.9186 29.4493 54.4221 27.6032 53.1512 26.5266ZM58.2402 60.6744C58.2402 60.6744 57.7166 62.3836 56.7177 64.6626C55.9629 66.3848 54.916 68.8784 54.5461 70.7005C54.1816 72.4893 54.8402 73.8433 55.3026 74.3335C55.7638 74.8223 57.0875 75.5283 57.0951 75.5323L57.0971 75.5341C57.0971 75.5341 58.6546 62.5557 58.2402 60.6744ZM65.9124 60.6753C65.5003 62.5724 67.0527 75.4955 67.0569 75.5303C67.0673 75.5247 68.3886 74.82 68.8493 74.3317C69.3118 73.8434 69.9686 72.4893 69.6061 70.6987C69.2361 68.8766 68.189 66.3829 67.4343 64.6608C66.4583 62.4343 65.936 60.7517 65.9124 60.6753ZM90.976 33.369C89.4998 33.369 84.4718 33.9037 83.236 37.4831C82.9678 38.2619 82.5496 39.4292 82.0076 40.8017C86.4196 40.6464 90.9223 39.8288 95.3991 38.3655V38.3673C98.1776 37.4591 100.779 35.7793 103.145 33.369H90.976ZM21.0073 33.3672C23.3729 35.7766 25.9732 37.4555 28.751 38.3636C33.2259 39.8268 37.7285 40.6462 42.1424 40.7998C41.6004 39.4272 41.1842 38.2619 40.9141 37.4813C39.6765 33.9019 34.6504 33.3672 33.1742 33.3672H21.0073ZM60.6137 30.9274C60.2955 30.5556 59.7368 30.5129 59.365 30.8311C58.9932 31.1493 58.9506 31.7079 59.2687 32.0797C59.5869 32.4515 60.1456 32.4941 60.5174 32.176C60.8892 31.8579 60.9318 31.2992 60.6137 30.9274Z" fill="#3B3D42"/>
<path fill-rule="evenodd" clip-rule="evenodd" d="M30.4548 0C29.8813 2.85614 29.2579 6.05637 28.7603 8.58509L28.3238 11.5282L28.4033 11.5188C31.1337 11.036 32.6266 9.28431 33.3832 5.6698H36.3006C35.6217 8.97171 34.482 12.2255 30.8212 13.526C31.3114 15.3517 31.6647 17.1812 33.6959 17.1812C35.7271 17.1811 37.9118 14.2862 38.5611 10.6347V10.6291C39.0865 7.0608 39.7431 3.53502 40.3906 0H43.5224C42.9859 2.48802 42.4477 5.07227 41.9538 7.4826C42.6993 6.27281 44.2402 5.34789 45.7997 5.34789C48.0325 5.34789 49.7733 7.19771 50.2394 9.86516C50.2894 10.1463 50.3504 10.5755 50.3652 10.7827C51.9505 10.5551 53.6673 9.70233 54.3869 8.30201C55.384 6.48919 57.0193 5.28123 59.0967 5.28123C60.5877 5.28123 62.1712 6.20621 62.8428 7.20512C63.2756 4.78924 63.6735 2.39183 64.049 0H67.1159C64.4965 13.8439 63.9472 17.0424 65.5195 17.0425C66.5499 17.0425 68.0502 15.2611 68.8697 13.4427L68.8679 13.4409L70.9434 15.152C70.1424 17.0758 68.0817 19.9282 65.2458 19.9633H65.2106C63.4347 19.9633 62.458 18.6444 62.0936 17.5752C61.5756 18.6795 60.5914 19.9633 58.4252 19.9633C55.9371 19.9633 53.9892 17.7546 53.4601 14.7246C53.3381 14.0254 53.2863 13.3298 53.2974 12.6491C52.402 13.1319 51.3291 13.4797 50.184 13.5352C49.5569 16.9222 47.3535 20.0354 43.9997 20.0354C42.2959 20.0354 39.8061 19.1605 38.7831 16.2637V16.2675C37.762 18.5335 35.5568 19.8376 33.5237 19.8376C31.0116 19.8376 29.3467 17.9489 28.4365 14.0661L27.9352 14.1254L27.4487 17.4162C27.3248 18.1413 27.2176 18.8645 27.1288 19.573L24.1227 19.6082C24.2244 18.9293 24.3334 18.2541 24.437 17.5752C23.3215 19.179 21.3218 19.9764 19.6643 19.9764C17.6794 19.9763 16.3271 18.7314 16.0108 16.9185C15.5317 14.1808 17.7163 11.0509 17.3926 9.2011C17.2742 8.52591 16.8803 8.0986 16.1718 8.0986C12.9826 8.09862 11.6339 14.9985 11.0938 19.6212H7.97496C9.26804 12.6159 9.6712 10.6605 9.42886 9.27317C9.30491 8.56286 8.83501 8.10041 8.1968 8.10041C5.11308 8.10052 3.64242 14.5027 3.08376 19.623H0C0.747357 14.9633 1.45765 10.3054 2.24571 5.68082H5.22595L4.66177 8.73864C5.72546 6.71122 7.43293 5.32386 9.34757 5.32386C11.0846 5.32389 12.3776 6.64095 12.4257 8.73864C13.4524 6.49664 15.232 5.32386 17.1115 5.32386C18.8467 5.32386 20.186 6.49661 20.5264 8.23915C20.9963 10.729 18.7283 14.3917 19.0391 16.1694C19.139 16.7391 19.5127 17.0591 20.0806 17.0591C22.145 17.0591 24.3317 14.8449 25.2715 11.715C25.3566 11.2859 25.4434 10.9233 25.5322 10.6643C26.1093 7.10712 26.7014 3.55352 27.2915 0H30.4548ZM45.0301 8.05037C43.4355 8.05038 41.9185 9.7228 41.5337 12.3902C41.0528 15.7328 42.2887 17.1201 43.6705 17.1201V17.1183C45.9403 17.1183 47.6736 13.243 47.1335 10.1482C46.8985 8.79785 45.9865 8.05037 45.0301 8.05037ZM59.7608 8.06157C57.1321 8.0616 56.0111 11.4116 56.5457 14.4767C56.7751 15.7956 57.5965 17.0425 58.9117 17.0425H58.9135C60.7949 17.0425 61.8401 14.4768 62.4025 9.55805C61.8623 8.70343 60.8263 8.06157 59.7608 8.06157Z" fill="#3B3D42"/>
<path fill-rule="evenodd" clip-rule="evenodd" d="M112.401 0.604808C111.985 2.48793 111.639 4.16027 111.34 5.68823H114.423L114.002 8.14106H110.883C109.762 14.5045 109.997 17.0647 111.909 17.0647C113.288 17.0647 114.984 14.7191 116.234 11.4375C116.978 9.40455 117.468 7.33458 117.825 4.87062H121.015C122.16 6.96832 125.347 10.8086 125.913 14.2567L125.909 14.2585C126.401 17.2793 124.788 20.017 121.174 20.017C119.205 20.017 116.874 19.105 115.459 17.553C114.405 18.9533 113.093 19.98 111.6 19.98C109.022 19.98 107.83 18.4243 107.44 16.0176C106.275 18.1302 104.599 19.98 102.671 19.98C100.616 19.9799 99.2505 18.452 98.9397 16.6743C98.5439 14.399 99.3598 11.7685 100.168 8.88839C99.4171 8.8514 98.2645 8.74594 97.2286 8.49621C96.4627 12.2291 95.0938 15.1445 93.6823 17.207C93.6379 17.2681 93.5936 17.3237 93.5492 17.3774C92.4744 18.8665 91.1146 19.98 89.5607 19.98C87.7534 19.9799 86.7786 18.6647 86.4511 17.5974C85.8999 18.6999 84.9545 19.98 82.792 19.98C80.3113 19.9799 78.3801 17.8471 77.8529 14.8245C77.0205 10.0612 79.3845 5.33313 83.4246 5.33307C84.9119 5.33307 86.4918 6.25797 87.1615 7.25317L87.4556 5.68823H90.5025C88.8117 14.6821 88.449 17.0647 89.866 17.0647C90.5764 17.0647 91.3774 16.4413 92.1562 15.3906C94.0579 12.5826 94.8016 8.3742 94.9755 4.51546H97.7391C97.7206 5.01303 97.6597 5.47546 97.6338 5.93788C99.3967 6.29305 102.432 6.43548 103.809 6.40034C102.976 9.35082 101.641 14.0791 101.957 15.8919C102.088 16.6374 102.481 17.0647 103.084 17.0647C104.523 17.0646 106.532 13.7479 107.497 10.7124C107.595 9.87812 107.723 9.01788 107.869 8.14106H106.167L106.554 5.68823H108.291L109.283 0.604808H112.401ZM119.897 8.21512C119.425 11.2007 118.205 14.1531 117.191 15.8587C117.942 16.7114 119.089 17.3866 120.293 17.3866V17.3884C122.137 17.3884 123.003 15.8586 122.681 14.0107C122.356 11.9481 121.081 9.92066 119.897 8.21512ZM84.161 8.10782C81.5397 8.10782 80.3983 11.5207 80.9385 14.6137C81.1622 15.8933 82.0034 17.0655 83.3143 17.0663C85.1934 17.0658 86.1978 14.5059 86.7953 9.60069C86.257 8.74792 85.2247 8.10782 84.161 8.10782Z" fill="#3B3D42"/>
</g>
<defs>
<clipPath id="clip0_111_281">
<rect width="126" height="83" fill="white"/>
</clipPath>
</defs>
</svg>
