<svg width="39" height="32" viewBox="0 0 39 32" fill="none" xmlns="http://www.w3.org/2000/svg">
<g clip-path="url(#clip0_49_707)">
<path d="M39.0001 6.73201C39.0001 6.2686 38.6461 5.90532 37.944 5.90532H29.4362C26.8874 5.90532 24.6332 8.22354 22.7062 9.162C22.6841 9.17015 22.662 9.18179 22.6375 9.1946C22.5688 9.2272 22.5001 9.25748 22.4314 9.28659C21.7107 9.54274 20.9457 9.15152 20.7396 8.6916C20.2984 7.70773 19.7884 6.60859 19.467 6.2325C19.0013 5.68875 18.3062 5.70622 17.7764 5.7819C17.32 5.4128 16.8612 5.01343 16.201 4.76193C16.0683 4.7107 16.0566 4.85741 16.1102 4.90282C16.5829 5.30336 17.1383 5.98916 17.2943 6.2162C17.3956 6.36408 17.5016 6.62023 17.4399 6.6377C17.4399 6.6377 17.4387 6.6377 17.4376 6.6377C17.4341 6.6377 17.4294 6.6377 17.4248 6.6377C17.4213 6.6377 17.4178 6.6377 17.4143 6.63537C17.2536 6.54571 17.0941 6.46304 16.9346 6.38736C16.4292 6.15449 15.9239 6.00895 15.4139 5.99498C15.2754 5.99148 15.3347 6.11258 15.4023 6.13353C15.8983 6.32682 16.6458 6.65283 16.8554 6.99632C17.0731 7.35261 17.0487 7.64136 17.2978 7.96855C17.6122 8.38072 17.8474 8.90701 17.6215 9.55089C17.5319 9.80589 17.2385 10.1156 17.0359 10.5057C17.0359 10.154 17.2233 9.82451 17.3526 9.53925C15.1834 9.34015 12.5159 5.90532 9.41404 5.90532H0.90616C0.204059 5.90532 -0.149902 6.26743 -0.149902 6.73201C-0.149902 7.3887 0.747809 8.22936 2.33016 8.44011C2.16948 8.57866 2.08797 8.76962 2.08797 8.98269C2.08797 9.5963 2.90534 10.3624 4.34797 10.5685C4.20592 10.6966 4.13373 10.8689 4.13373 11.0587C4.13373 11.6153 4.87309 12.3197 6.18182 12.5223C6.06072 12.6387 5.99901 12.7924 5.99901 12.9601C5.99901 13.1674 6.11545 13.4014 6.339 13.6191C9.50952 16.799 12.9315 16.8956 14.8993 16.4415C15.7213 16.2517 16.307 15.9234 16.6889 15.5287C16.5247 14.8592 16.7622 14.0546 16.7622 14.0546C16.8589 15.2143 17.3642 16.3658 17.3642 16.3658C16.9509 18.3068 14.9028 20.6157 14.7409 21.2468C14.6047 21.7777 14.9528 22.4204 15.4861 22.6207L15.6596 22.6859C15.7376 22.9327 15.8587 23.1307 15.981 23.2611C16.151 23.4416 16.4537 23.6162 16.619 23.7035L16.9043 23.8561C16.9788 24.1646 17.1325 24.4126 17.2943 24.5745C17.4434 24.7235 17.7263 24.9028 17.9999 25.0134C18.2398 25.5281 18.787 25.889 19.4239 25.889C20.0608 25.889 20.6092 25.5292 20.8479 25.0134C21.1216 24.904 21.4045 24.7247 21.5535 24.5745C21.7154 24.4126 21.8691 24.1646 21.9436 23.8561L22.2288 23.7035C22.3942 23.615 22.6969 23.4404 22.8669 23.2611C22.9903 23.1307 23.1114 22.9327 23.1883 22.6859L23.3618 22.6207C23.895 22.4204 24.2432 21.7777 24.1069 21.2468C23.9451 20.6145 21.8889 18.2975 21.4813 16.3542C21.4813 16.3542 21.989 15.2143 22.0856 14.0558C22.0856 14.0558 22.3232 14.8603 22.159 15.5298C22.5409 15.9245 23.1266 16.2529 23.9486 16.4427C25.9163 16.8968 29.3383 16.8013 32.5089 13.6203C32.7324 13.4026 32.8489 13.1685 32.8489 12.9613C32.8489 12.7936 32.7871 12.6411 32.6661 12.5235C33.9748 12.3209 34.7141 11.6164 34.7141 11.0599C34.7141 10.8701 34.642 10.6978 34.4999 10.5697C35.9425 10.3636 36.7599 9.59747 36.7599 8.98386C36.7599 8.76962 36.6784 8.57983 36.5177 8.44127C38.1001 8.23052 38.9978 7.38987 38.9978 6.73317L39.0001 6.73201ZM18.4179 6.50147C18.5565 6.3827 18.7638 6.39901 18.8825 6.53756C19.0013 6.67612 18.985 6.88337 18.8464 7.00214C18.7079 7.1209 18.5006 7.1046 18.3818 6.96604C18.2631 6.82749 18.2794 6.62023 18.4179 6.50147ZM20.8503 17.5907C20.8503 17.5907 21.0447 18.2253 21.4161 19.0729C21.6967 19.7133 22.0856 20.6401 22.223 21.3166C22.3581 21.9815 22.1136 22.4845 21.9413 22.6673C21.7689 22.8489 21.2752 23.1132 21.2752 23.1132C21.2752 23.1132 20.6954 18.2916 20.8503 17.5919V17.5907ZM17.575 23.112C17.575 23.112 17.0813 22.8489 16.9089 22.6661C16.7366 22.4845 16.4933 21.9815 16.6272 21.3155C16.7646 20.639 17.1535 19.7121 17.4341 19.0718C17.8055 18.2241 17.9999 17.5895 17.9999 17.5895C18.1536 18.2882 17.575 23.1109 17.575 23.1109V23.112ZM31.8068 9.30172C30.1441 9.84547 28.4709 10.1494 26.8303 10.2064C27.0318 9.69644 27.1866 9.2633 27.2868 8.97338C27.7467 7.64369 29.6143 7.44459 30.1627 7.44459H34.6839C33.8048 8.33997 32.8384 8.96406 31.8056 9.30172H31.8068ZM4.16517 7.44459H8.68633C9.23473 7.44459 11.1023 7.64369 11.5623 8.97338C11.6624 9.2633 11.8173 9.69644 12.0187 10.2064C10.3793 10.1494 8.70612 9.84547 7.04227 9.30172C6.01066 8.96406 5.04425 8.33997 4.164 7.44459H4.16517Z" fill="#3B3D42"/>
</g>
<defs>
<clipPath id="clip0_49_707">
<rect width="39" height="32" fill="white"/>
</clipPath>
</defs>
</svg>
