<svg width="104" height="32" viewBox="0 0 104 32" fill="none" xmlns="http://www.w3.org/2000/svg">
<g clip-path="url(#clip0_111_279)">
<path fill-rule="evenodd" clip-rule="evenodd" d="M81.3237 4.8681C81.2697 4.82208 81.2811 4.67574 81.4138 4.72669C82.0724 4.97981 82.5311 5.37916 82.9882 5.74898C83.5173 5.67338 84.2119 5.65536 84.6771 6.20098C84.9982 6.57736 85.5061 7.68026 85.9484 8.66641C86.1548 9.12826 86.9183 9.51957 87.6391 9.26319C87.7079 9.23525 87.7767 9.20392 87.8455 9.17106C87.87 9.15791 87.893 9.14637 87.9143 9.13815C89.8408 8.19635 92.0935 5.87225 94.641 5.87225H103.143C103.844 5.87225 104.198 6.23553 104.198 6.70064H104.2C104.2 7.35974 103.302 8.20126 101.721 8.41329C101.882 8.55135 101.964 8.74375 101.964 8.95742C101.964 9.57212 101.146 10.3397 99.7048 10.5468C99.8473 10.675 99.9193 10.8493 99.9193 11.0383C99.9193 11.5971 99.1788 12.3022 97.8715 12.506C97.9911 12.6227 98.0534 12.7772 98.0534 12.9448C98.0534 13.1519 97.9387 13.387 97.7142 13.6056C94.5459 16.7926 91.1253 16.8896 89.1594 16.4343C88.337 16.2436 87.7522 15.9149 87.3705 15.5188C87.5343 14.8465 87.2967 14.0411 87.2967 14.0411C87.2001 15.2031 86.6921 16.3455 86.6921 16.3455C87.1001 18.2949 89.1545 20.6173 89.3167 21.2517C89.4543 21.7842 89.1053 22.4285 88.5729 22.629L88.3992 22.6948C88.3222 22.943 88.2009 23.1402 88.0781 23.2717C87.9077 23.4525 87.6063 23.6268 87.4409 23.7155L87.1558 23.8683C87.0821 24.1773 86.9281 24.4255 86.7659 24.5882C86.6168 24.7394 86.3351 24.9187 86.0615 25.0288C85.8223 25.5449 85.275 25.9065 84.6378 25.9065C84.0006 25.9065 83.4534 25.5449 83.2143 25.0288C82.9423 24.9187 82.6589 24.7378 82.5098 24.5882C82.3493 24.4271 82.1952 24.1773 82.1198 23.8683L81.8349 23.7155C81.6694 23.6268 81.3679 23.4525 81.1975 23.2717C81.0746 23.1402 80.9534 22.943 80.8764 22.6948L80.7028 22.629C80.1704 22.4285 79.8231 21.7842 79.9591 21.2517C80.1196 20.6205 82.1674 18.3047 82.5802 16.3587C82.5802 16.3587 82.0757 15.2031 81.979 14.0411C81.979 14.0411 81.7414 14.8465 81.9053 15.5188C81.5236 15.9149 80.9387 16.2436 80.1163 16.4343C78.1505 16.8912 74.7298 16.7942 71.5615 13.6056C71.3387 13.387 71.2223 13.1519 71.2223 12.9448C71.2223 12.7772 71.283 12.6227 71.4042 12.506C70.0953 12.3022 69.3565 11.5971 69.3564 11.0383C69.3564 10.8493 69.4285 10.675 69.571 10.5468C68.1293 10.3397 67.3119 9.57213 67.3118 8.95742C67.3118 8.74375 67.3938 8.55135 67.5544 8.41329C65.9735 8.20126 65.0757 7.35974 65.0757 6.70064C65.0758 6.23553 65.4296 5.87225 66.1307 5.87225H74.6332C77.7327 5.87229 80.3997 9.31563 82.5671 9.51615C82.4377 9.80214 82.251 10.1326 82.251 10.486C82.4525 10.0948 82.7473 9.78246 82.8357 9.52771C83.0618 8.8818 82.826 8.35589 82.5114 7.94171C82.2624 7.61298 82.287 7.3236 82.0691 6.96693C81.8594 6.62342 81.1107 6.29636 80.616 6.10242C80.5488 6.0794 80.4899 5.95949 80.6275 5.96278C81.1386 5.97593 81.6432 6.12216 82.1478 6.35555C82.3067 6.43115 82.4656 6.51495 82.6262 6.6037C82.631 6.60695 82.6343 6.60707 82.6375 6.60707H82.6522C82.7128 6.59063 82.6081 6.33253 82.5065 6.1846C82.3508 5.95778 81.7955 5.26914 81.3237 4.8681ZM86.0599 17.5897C85.9059 18.2898 86.4842 23.1255 86.4842 23.1255C86.4862 23.1244 86.9776 22.8604 87.1492 22.6783C87.3212 22.4959 87.5654 21.9913 87.4311 21.3241C87.2951 20.6453 86.9051 19.7165 86.625 19.0739C86.2547 18.2242 86.0599 17.588 86.0599 17.588V17.5897ZM83.2093 17.5864C83.2081 17.5904 83.0131 18.2252 82.6441 19.0723C82.3639 19.7149 81.9757 20.6435 81.8381 21.3223C81.7037 21.9896 81.9478 22.4942 82.1198 22.6767C82.2913 22.8586 82.7819 23.1221 82.785 23.1237V23.1221C82.7868 23.107 83.363 18.2872 83.2093 17.5864ZM69.3825 7.41411C70.2622 8.31317 71.2273 8.9376 72.2593 9.27619C73.9222 9.82187 75.5949 10.126 77.2331 10.1836C77.0316 9.67239 76.8759 9.23839 76.776 8.94747C76.3173 7.61293 74.4514 7.41413 73.9025 7.41411H69.3825ZM95.3666 7.41411C94.8195 7.41412 92.9519 7.61455 92.4932 8.94747C92.3932 9.23674 92.2376 9.67239 92.0361 10.1836C93.676 10.126 95.347 9.82187 97.0098 9.27619H97.0082C98.0403 8.9376 99.0068 8.31313 99.8849 7.41411H95.3666ZM84.0922 6.50514C83.9743 6.36709 83.7664 6.3507 83.6288 6.46903C83.4912 6.58735 83.4747 6.79596 83.5926 6.93403C83.7106 7.07208 83.9186 7.08861 84.0563 6.9703C84.1939 6.85196 84.2102 6.64321 84.0922 6.50514Z" fill="#3B3D42"/>
<path fill-rule="evenodd" clip-rule="evenodd" d="M26.9703 5.86085C26.4624 8.3986 25.9103 11.2421 25.4696 13.4889L25.0831 16.1038L25.1535 16.0956C27.5715 15.6666 28.8936 14.1101 29.5636 10.8985H32.1472C31.546 13.8323 30.5368 16.7236 27.2947 17.8791C27.7288 19.5013 28.0418 21.1268 29.8405 21.1268C31.6393 21.1268 33.5741 18.5544 34.1491 15.3099V15.3051C34.6143 12.1346 35.1958 9.0018 35.7692 5.86085H38.5427C38.0676 8.07151 37.591 10.3677 37.1536 12.5093C37.8138 11.4344 39.1784 10.6126 40.5595 10.6126C42.5368 10.6126 44.0784 12.2562 44.4912 14.6263C44.5355 14.8761 44.5895 15.2575 44.6026 15.4415C46.0065 15.2394 47.5269 14.4816 48.1642 13.2374C49.0472 11.6267 50.4954 10.5534 52.3351 10.5534C53.6555 10.5534 55.0578 11.3752 55.6525 12.2628C56.0359 10.1162 56.3882 7.98605 56.7207 5.86085H59.4368C57.1171 18.1615 56.6306 21.0035 58.023 21.0035C58.9355 21.0035 60.2642 19.4207 60.9899 17.8051L60.9883 17.8035L62.8264 19.3238C62.117 21.0332 60.292 23.5676 57.7806 23.5988H57.7494C56.1768 23.5988 55.3118 22.4269 54.9891 21.4769C54.5304 22.4581 53.6588 23.5988 51.7404 23.5988C49.537 23.5988 47.812 21.6363 47.3434 18.944C47.2353 18.3228 47.1895 17.7048 47.1993 17.0999C46.4064 17.5289 45.4562 17.8379 44.4421 17.8872C43.8868 20.8967 41.9355 23.6629 38.9654 23.6629C37.4566 23.6629 35.2516 22.8854 34.3457 20.3116V20.3148C33.4414 22.3282 31.4885 23.487 29.6881 23.487C27.4634 23.4869 25.9889 21.8089 25.1829 18.359L24.739 18.4115L24.3081 21.3355C24.1984 21.9798 24.1034 22.6225 24.0248 23.252L21.3627 23.2833C21.4528 22.6801 21.5493 22.0801 21.641 21.4769C20.6532 22.9019 18.8823 23.6102 17.4144 23.6102C15.6566 23.6102 14.4591 22.5042 14.1789 20.8934C13.7546 18.4609 15.6893 15.6797 15.4026 14.0361C15.2978 13.4362 14.9489 13.0565 14.3215 13.0565C11.4972 13.0565 10.3028 19.1873 9.82446 23.2947H7.0625C8.20761 17.0703 8.56465 15.333 8.35005 14.1003C8.24028 13.4692 7.82415 13.0583 7.25896 13.0583C4.52806 13.0584 3.22567 18.7469 2.73093 23.2964H0C0.661845 19.1578 1.29088 15.0175 1.98876 10.9084H4.62802L4.12839 13.6252C5.07038 11.8238 6.5825 10.5911 8.27805 10.5911C9.81631 10.5911 10.9614 11.7614 11.004 13.6252C11.9132 11.6332 13.4893 10.5911 15.1537 10.5911C16.6904 10.5911 17.8764 11.6333 18.1779 13.1816C18.5939 15.3939 16.5855 18.6483 16.8607 20.2278C16.9492 20.734 17.2801 21.0183 17.783 21.0183C19.6113 21.0183 21.5478 19.0509 22.38 16.2699C22.4554 15.8886 22.5322 15.5664 22.6109 15.3363C23.122 12.1756 23.6464 9.01823 24.1689 5.86085H26.9703ZM39.8779 13.0138C38.4658 13.0138 37.1224 14.4997 36.7816 16.8698C36.3557 19.8398 37.4501 21.0726 38.6739 21.0726V21.071C40.684 21.0709 42.219 17.6274 41.7406 14.8777C41.5326 13.6779 40.7249 13.0138 39.8779 13.0138ZM52.9232 13.0238C50.5953 13.0238 49.6025 16.0003 50.076 18.7238C50.2791 19.8957 51.0065 21.0035 52.1713 21.0035H52.1729C53.839 21.0035 54.7646 18.7238 55.2626 14.3534C54.7843 13.5941 53.8668 13.0238 52.9232 13.0238Z" fill="#3B3D42"/>
</g>
<defs>
<clipPath id="clip0_111_279">
<rect width="104" height="32" fill="white"/>
</clipPath>
</defs>
</svg>
