<svg width="112" height="32" viewBox="0 0 112 32" fill="none" xmlns="http://www.w3.org/2000/svg">
<g clip-path="url(#clip0_111_280)">
<path fill-rule="evenodd" clip-rule="evenodd" d="M26.9664 5.88599C26.4586 8.41506 25.9066 11.2488 25.466 13.488L25.0795 16.0941L25.1499 16.0858C27.5676 15.6582 28.8894 14.1071 29.5594 10.9065H32.1426C31.5415 13.8303 30.5324 16.7116 27.2908 17.8631C27.7249 19.4798 28.0378 21.0997 29.8363 21.0997C31.6348 21.0997 33.5693 18.5363 34.1442 15.3029V15.2979C34.6094 12.1382 35.1908 9.0162 35.7641 5.88599H38.5372C38.0622 8.08909 37.5856 10.3774 37.1483 12.5117C37.8084 11.4405 39.1729 10.6215 40.5537 10.6215C42.5308 10.6215 44.0721 12.2595 44.4849 14.6215C44.5291 14.8704 44.5831 15.2505 44.5962 15.4339C46 15.2324 47.5201 14.4773 48.1573 13.2373C49.0402 11.6321 50.4882 10.5625 52.3276 10.5625C53.6479 10.5625 55.05 11.3815 55.6446 12.266C56.0279 10.1268 56.3801 8.00392 56.7126 5.88599H59.4283C57.1089 18.1446 56.6225 20.9768 58.0147 20.9769C58.9271 20.9769 60.2556 19.3995 60.9812 17.7893L60.9796 17.7877L62.8174 19.3029C62.1082 21.0064 60.2834 23.5322 57.7724 23.5633H57.7412C56.1687 23.5633 55.3039 22.3954 54.9812 21.4486C54.5226 22.4265 53.6511 23.5633 51.7331 23.5633C49.5299 23.5633 47.8052 21.6075 47.3367 18.9244C47.2286 18.3053 47.1827 17.6894 47.1926 17.0866C46.3998 17.5141 45.4497 17.8221 44.4358 17.8712C43.8805 20.8704 41.9295 23.6271 38.9598 23.6271C37.4512 23.6271 35.2466 22.8524 34.3408 20.2873V20.2907C33.4366 22.2972 31.484 23.452 29.6838 23.452C27.4595 23.4519 25.9852 21.7795 25.1793 18.3414L24.7354 18.3938L24.3047 21.3078C24.1949 21.9499 24.1 22.5903 24.0214 23.2176L21.3596 23.2488C21.4497 22.6477 21.5462 22.0498 21.638 21.4486C20.6502 22.8688 18.8796 23.5748 17.4119 23.5748C15.6544 23.5748 14.457 22.4724 14.1769 20.8672C13.7527 18.4429 15.6871 15.6715 15.4004 14.0334C15.2956 13.4356 14.9468 13.0572 14.3194 13.0572C11.4955 13.0572 10.3014 19.167 9.82306 23.2603H7.06149C8.20645 17.0572 8.56343 15.3258 8.34886 14.0973C8.2391 13.4683 7.82302 13.0588 7.25792 13.0588C4.52742 13.0589 3.22521 18.728 2.73054 23.2619H0C0.661753 19.1358 1.29069 15.0113 1.98848 10.9163H4.62736L4.1278 13.6239C5.06965 11.8287 6.58154 10.6002 8.27687 10.6002C9.81494 10.6002 10.9599 11.7665 11.0025 13.6239C11.9115 11.6387 13.4873 10.6002 15.1515 10.6002C16.688 10.6002 17.8739 11.6387 18.1753 13.1817C18.5913 15.3864 16.5831 18.6297 16.8583 20.2038C16.9468 20.7083 17.2776 20.9916 17.7805 20.9916C19.6085 20.9916 21.5447 19.031 22.3768 16.2595C22.4522 15.8795 22.529 15.5584 22.6076 15.3291C23.1187 12.1793 23.643 9.03259 24.1655 5.88599H26.9664ZM39.8723 13.0145C38.4603 13.0145 37.1171 14.4954 36.7764 16.8574C36.3505 19.8172 37.4448 21.0457 38.6684 21.0457V21.0441C40.6782 21.044 42.2129 17.6125 41.7347 14.8721C41.5267 13.6764 40.7191 13.0145 39.8723 13.0145ZM52.9156 13.0244C50.5881 13.0244 49.5955 15.9908 50.0688 18.705C50.2719 19.8729 50.9992 20.9769 52.1638 20.9769H52.1654C53.8313 20.9769 54.7568 18.705 55.2548 14.3495C54.7765 13.5928 53.8591 13.0244 52.9156 13.0244Z" fill="#3B3D42"/>
<path fill-rule="evenodd" clip-rule="evenodd" d="M99.5267 6.42154C99.1582 8.08902 98.8519 9.56985 98.5865 10.9228H101.317L100.944 13.0948H98.182C97.1893 18.7295 97.3973 20.9966 99.091 20.9966C100.311 20.9965 101.813 18.9196 102.921 16.0138C103.579 14.2136 104.013 12.3807 104.329 10.1989H107.153C108.167 12.0564 110.989 15.4569 111.491 18.5101L111.487 18.5117C111.923 21.1866 110.495 23.6108 107.294 23.6108C105.551 23.6108 103.487 22.8032 102.234 21.4289C101.301 22.6689 100.139 23.578 98.8175 23.578C96.5341 23.578 95.4792 22.2005 95.1336 20.0694C94.1016 21.94 92.6176 23.578 90.9108 23.578C89.091 23.578 87.8821 22.225 87.6069 20.6509C87.2564 18.6362 87.9789 16.3069 88.6947 13.7566C88.0296 13.7238 87.009 13.6304 86.0918 13.4093C85.4136 16.7147 84.2015 19.2962 82.9517 21.1226C82.9124 21.1767 82.8731 21.226 82.8338 21.2735C81.8822 22.592 80.6781 23.578 79.3022 23.578C77.7019 23.578 76.8387 22.4134 76.5488 21.4683C76.0607 22.4445 75.2236 23.578 73.3088 23.578C71.1122 23.578 69.4023 21.6894 68.9354 19.0129C68.1984 14.7951 70.2916 10.6084 73.869 10.6084C75.1859 10.6084 76.5848 11.4273 77.1778 12.3086L77.4382 10.9228H80.1361C78.639 18.8868 78.3178 20.9965 79.5725 20.9966C80.2015 20.9966 80.9108 20.4446 81.6004 19.5142C83.2842 17.0277 83.9428 13.3012 84.0967 9.88438H86.5438C86.5274 10.325 86.4735 10.7344 86.4506 11.1439C88.0116 11.4584 90.6995 11.5845 91.9182 11.5534C91.1811 14.166 89.9985 18.3528 90.2786 19.9581C90.3949 20.6182 90.7421 20.9966 91.2761 20.9966C92.5505 20.9965 94.3292 18.0596 95.1843 15.3717C95.2711 14.6329 95.3842 13.8712 95.5136 13.0948H94.0066L94.349 10.9228H95.887L96.765 6.42154H99.5267ZM106.164 13.1604C105.746 15.8041 104.665 18.4184 103.767 19.9287C104.433 20.6838 105.448 21.2816 106.514 21.2816V21.2832C108.148 21.2832 108.914 19.9286 108.629 18.2923C108.341 16.4659 107.212 14.6706 106.164 13.1604ZM74.521 13.0654C72.1999 13.0654 71.1893 16.0875 71.6676 18.8262C71.8657 19.9593 72.6106 20.9973 73.7712 20.998C75.4351 20.9976 76.3245 18.7308 76.8535 14.3873C76.3769 13.6322 75.4628 13.0654 74.521 13.0654Z" fill="#3B3D42"/>
</g>
<defs>
<clipPath id="clip0_111_280">
<rect width="111.568" height="32" fill="white"/>
</clipPath>
</defs>
</svg>
