<svg width="71" height="58" viewBox="0 0 71 58" fill="none" xmlns="http://www.w3.org/2000/svg">
<g clip-path="url(#clip0_111_278)">
<path fill-rule="evenodd" clip-rule="evenodd" d="M30.0032 24.9825C29.9199 24.9121 29.9385 24.688 30.1421 24.7657C31.1548 25.1526 31.8584 25.7656 32.56 26.3321C33.3728 26.2173 34.441 26.1895 35.1556 27.0244C35.6499 27.602 36.4313 29.2887 37.1089 30.7994C37.4256 31.5066 38.5992 32.1064 39.7045 31.7139C39.81 31.6695 39.9155 31.6232 40.021 31.5733C40.0581 31.5529 40.0933 31.5361 40.1266 31.5232C43.0851 30.0828 46.5453 26.5245 50.4572 26.5245H63.5168C64.5943 26.5245 65.1385 27.0818 65.1385 27.7928L65.1441 27.789C65.1441 28.7961 63.7666 30.0866 61.3376 30.4105C61.5857 30.6234 61.7099 30.916 61.7099 31.2437C61.7099 32.186 60.4546 33.3617 58.2404 33.6783C58.4588 33.8745 58.57 34.1392 58.57 34.4299C58.57 35.2833 57.435 36.3645 55.4263 36.6755C55.6114 36.8551 55.7058 37.0904 55.7058 37.3478C55.7057 37.6643 55.5281 38.0254 55.1838 38.3586C50.3166 43.2388 45.0641 43.3868 42.0445 42.6889C40.7819 42.3964 39.884 41.8927 39.2971 41.2873C39.5482 40.2626 39.1863 39.0317 39.1843 39.025C39.0366 40.7994 38.2608 42.5444 38.2566 42.5536C38.8824 45.538 42.039 49.0946 42.2871 50.0647C42.4963 50.8793 41.9613 51.866 41.1431 52.1733L40.8764 52.2733C40.756 52.6529 40.5709 52.9566 40.3821 53.1565C40.121 53.4324 39.6563 53.7008 39.4027 53.836L38.9639 54.0692C38.8491 54.5431 38.6121 54.9245 38.364 55.1726C38.1344 55.4022 37.7013 55.6781 37.281 55.8466C36.9126 56.6371 36.0738 57.1907 35.0945 57.1907C34.1152 57.1906 33.2747 56.6371 32.9081 55.8466C32.4878 55.6781 32.0547 55.4022 31.8251 55.1726C31.577 54.9245 31.34 54.5431 31.2252 54.0692L30.7864 53.836C30.5328 53.7008 30.0681 53.4324 29.807 53.1565C29.6182 52.9566 29.4312 52.6529 29.3127 52.2733L29.0461 52.1733C28.226 51.866 27.6928 50.8811 27.902 50.0647C28.1501 49.0964 31.2937 45.5529 31.9287 42.5741C31.9266 42.5692 31.1527 40.8035 31.0048 39.0268C31.0048 39.0268 30.6403 40.2616 30.892 41.2891C30.3051 41.8945 29.4071 42.3982 28.1444 42.6907C25.1248 43.3886 19.8725 43.2406 15.0053 38.3604C14.661 38.0272 14.4834 37.668 14.4833 37.3496C14.4833 37.0922 14.5777 36.8571 14.7629 36.6775C12.7542 36.3684 11.6192 35.2872 11.6191 34.4318C11.6191 34.143 11.7303 33.8763 11.9487 33.6801C9.73451 33.3617 8.47923 32.186 8.47923 31.2455C8.47926 30.9178 8.60511 30.6252 8.85132 30.4123C6.42243 30.0883 5.04504 28.7999 5.04498 27.791C5.04498 27.08 5.58927 26.5227 6.66674 26.5227H19.7263C24.488 26.5227 28.5815 31.7953 31.9121 32.1008C31.714 32.5377 31.4252 33.0433 31.4252 33.5839C31.7362 32.986 32.1878 32.5083 32.3248 32.1176C32.671 31.129 32.3082 30.3218 31.8269 29.6886C31.4437 29.1869 31.4807 28.7425 31.1475 28.1963C30.8253 27.6687 29.6775 27.1708 28.9166 26.8727C28.8111 26.8394 28.7203 26.6542 28.9332 26.6597C29.7163 26.6819 30.492 26.9041 31.2677 27.2614C31.5121 27.378 31.7566 27.5039 32.0028 27.6409C32.0084 27.6446 32.0139 27.6447 32.0195 27.6447H32.0417C32.1379 27.6168 31.975 27.2244 31.8195 26.9967C31.5825 26.6505 30.7289 25.5971 30.0032 24.9825ZM32.9063 44.4607C32.9037 44.4691 32.6056 45.442 32.0379 46.736C31.6084 47.7191 31.0105 49.1409 30.7994 50.1795C30.5921 51.1996 30.9679 51.9717 31.2308 52.2513C31.4931 52.5301 32.249 52.9324 32.2527 52.9343L32.2545 52.9361C32.2572 52.914 33.1428 45.5332 32.9063 44.4607ZM37.2819 44.4614C37.0484 45.5512 37.9346 52.9325 37.9346 52.9325C37.9414 52.9289 38.6948 52.5276 38.9565 52.2493C39.2194 51.9716 39.5952 51.1978 39.3879 50.1777C39.1768 49.1391 38.5787 47.7171 38.1492 46.734C37.5964 45.4721 37.2995 44.5182 37.2819 44.4614ZM11.6692 28.885C13.0189 30.2605 14.5017 31.2178 16.0865 31.7362C18.6395 32.5693 21.2075 33.0377 23.7254 33.1247C23.4162 32.3416 23.1774 31.677 23.0237 31.2326C22.3183 29.1906 19.4522 28.885 18.6099 28.885H11.6692ZM51.5755 28.885C50.7331 28.885 47.8672 29.1906 47.1618 31.2326C47.0082 31.677 46.7693 32.3416 46.4601 33.1247C48.978 33.0377 51.5458 32.5711 54.0988 31.7362C55.6836 31.2178 57.1666 30.2605 58.5163 28.885H51.5755ZM34.2595 27.4946C34.0781 27.2818 33.7579 27.2577 33.5468 27.4391C33.3339 27.6206 33.3099 27.9408 33.4913 28.1518C33.6728 28.3647 33.993 28.3889 34.204 28.2075C34.4169 28.0261 34.441 27.7057 34.2595 27.4946Z" fill="#3B3D42"/>
<path fill-rule="evenodd" clip-rule="evenodd" d="M30.4791 0C29.9051 2.85851 29.2812 6.06141 28.7832 8.59223L28.3464 11.5378L28.4259 11.5284C31.1585 11.0452 32.6526 9.29203 33.4098 5.67452H36.3295C35.6501 8.97918 34.5095 12.2357 30.8457 13.5372C31.3363 15.3645 31.69 17.1955 33.7228 17.1955C35.7555 17.1954 37.942 14.2981 38.5918 10.6436V10.638C39.1176 7.06667 39.7748 3.53796 40.4228 0H43.5571C43.0202 2.49009 42.4815 5.0765 41.9872 7.48882C42.7333 6.27803 44.2755 5.35234 45.8362 5.35234C48.0708 5.35234 49.8129 7.2037 50.2795 9.87336C50.3295 10.1548 50.3905 10.5843 50.4053 10.7916C51.992 10.5639 53.7101 9.71041 54.4302 8.30892C55.4281 6.49459 57.0647 5.28562 59.1438 5.28562C60.636 5.28562 62.2208 6.21138 62.8928 7.21112C63.3261 4.79323 63.7242 2.39382 64.1 0H67.1694C64.5479 13.8555 63.9981 17.0566 65.5717 17.0566C66.6029 17.0566 68.1045 15.2738 68.9246 13.4539L68.9228 13.4521L71 15.1646C70.1984 17.09 68.1359 19.9448 65.2978 19.98H65.2626C63.4853 19.9799 62.5078 18.6599 62.1431 17.5898C61.6247 18.6951 60.6397 19.98 58.4718 19.98C55.9817 19.98 54.0322 17.7694 53.5028 14.7368C53.3806 14.037 53.3287 13.3409 53.3399 12.6596C52.4438 13.1428 51.37 13.4909 50.224 13.5465C49.5964 16.9363 47.3913 20.0521 44.0347 20.0521C42.3296 20.0521 39.8378 19.1764 38.814 16.2772V16.281C37.7921 18.5489 35.5851 19.8541 33.5505 19.8541C31.0363 19.8541 29.3701 17.9638 28.4592 14.0778L27.9575 14.1371L27.4706 17.4307C27.3466 18.1564 27.2393 18.8802 27.1504 19.5893L24.1419 19.6245C24.2437 18.9451 24.3528 18.2693 24.4565 17.5898C23.3401 19.1949 21.3388 19.993 19.68 19.993C17.6935 19.993 16.3401 18.7469 16.0236 16.9326C15.5441 14.1926 17.7304 11.0601 17.4065 9.20875C17.288 8.533 16.8937 8.10534 16.1847 8.10534C12.9929 8.10536 11.6432 15.011 11.1026 19.6375H7.98132C9.27542 12.6264 9.67891 10.6694 9.43638 9.28089C9.31233 8.56998 8.84205 8.10715 8.20334 8.10715C5.11716 8.10726 3.64533 14.5148 3.08622 19.6393H0C0.747953 14.9757 1.45881 10.314 2.2475 5.68555H5.23012L4.66549 8.74591C5.73002 6.71681 7.43885 5.32829 9.35502 5.32829C11.0934 5.32832 12.3875 6.64648 12.4356 8.74591C13.4631 6.50205 15.2442 5.32829 17.1252 5.32829C18.8617 5.32829 20.2021 6.50201 20.5428 8.246C21.013 10.7379 18.7432 14.4037 19.0543 16.1828C19.1543 16.753 19.5282 17.0733 20.0966 17.0733C22.1627 17.0733 24.3511 14.8572 25.2916 11.7247C25.3768 11.2953 25.4637 10.9324 25.5525 10.6732C26.1301 7.11303 26.7227 3.55648 27.3133 0H30.4791ZM45.066 8.05707C43.4701 8.05708 41.9519 9.73089 41.5668 12.4006C41.0855 15.7459 42.3224 17.1344 43.7053 17.1344V17.1326C45.9769 17.1325 47.7116 13.254 47.171 10.1567C46.9359 8.80518 46.0232 8.05707 45.066 8.05707ZM59.8084 8.06828C57.1777 8.06831 56.0558 11.4211 56.5908 14.4888C56.8204 15.8088 57.6424 17.0566 58.9587 17.0566H58.9605C60.8433 17.0566 61.8894 14.4888 62.4522 9.56601C61.9116 8.71068 60.8748 8.06828 59.8084 8.06828Z" fill="#3B3D42"/>
</g>
<defs>
<clipPath id="clip0_111_278">
<rect width="71" height="57.1943" fill="white"/>
</clipPath>
</defs>
</svg>
