<svg width="155" height="32" viewBox="0 0 155 32" fill="none" xmlns="http://www.w3.org/2000/svg">
<path fill-rule="evenodd" clip-rule="evenodd" d="M132.109 4.87416C132.055 4.82825 132.066 4.68232 132.199 4.73313C132.858 4.98557 133.317 5.38388 133.774 5.75268C134.304 5.67728 134.999 5.65925 135.465 6.20347C135.786 6.57885 136.294 7.67878 136.737 8.6623C136.943 9.12293 137.707 9.5132 138.428 9.25748C138.497 9.22962 138.566 9.19837 138.635 9.1656C138.66 9.15249 138.682 9.14097 138.704 9.13278C140.632 8.1935 142.886 5.87565 145.435 5.87563H153.943C154.644 5.87563 154.998 6.23793 154.998 6.7018H155C155 7.35912 154.102 8.19838 152.52 8.40986C152.68 8.54755 152.762 8.73943 152.762 8.95253C152.762 9.5656 151.944 10.3311 150.502 10.5376C150.644 10.6655 150.717 10.8393 150.717 11.0278C150.717 11.5851 149.976 12.2883 148.667 12.4916C148.787 12.608 148.849 12.7621 148.849 12.9292C148.849 13.1358 148.735 13.3703 148.51 13.5883C145.34 16.7667 141.917 16.8635 139.95 16.4094C139.127 16.2192 138.541 15.8913 138.159 15.4963C138.323 14.8259 138.086 14.0226 138.086 14.0226C137.989 15.1815 137.481 16.3209 137.481 16.3209C137.889 18.2649 139.945 20.5811 140.107 21.2139C140.245 21.745 139.895 22.3875 139.363 22.5875L139.189 22.6532C139.112 22.9007 138.991 23.0974 138.868 23.2285C138.697 23.4088 138.395 23.5826 138.23 23.6711L137.945 23.8235C137.871 24.1316 137.717 24.3792 137.555 24.5415C137.405 24.6923 137.123 24.8711 136.85 24.9809C136.61 25.4956 136.063 25.8562 135.425 25.8562C134.788 25.8562 134.24 25.4956 134.001 24.9809C133.728 24.8711 133.445 24.6906 133.296 24.5415C133.135 24.3808 132.981 24.1317 132.906 23.8235L132.62 23.6711C132.455 23.5826 132.153 23.4088 131.983 23.2285C131.86 23.0974 131.738 22.9007 131.661 22.6532L131.488 22.5875C130.955 22.3875 130.607 21.745 130.743 21.2139C130.904 20.5844 132.953 18.2748 133.366 16.334C133.366 16.334 132.861 15.1815 132.765 14.0226C132.765 14.0226 132.527 14.8259 132.691 15.4963C132.309 15.8913 131.724 16.2192 130.901 16.4094C128.933 16.8651 125.511 16.7683 122.34 13.5883C122.117 13.3703 122.001 13.1358 122.001 12.9292C122.001 12.7621 122.062 12.608 122.183 12.4916C120.873 12.2883 120.134 11.5851 120.134 11.0278C120.134 10.8393 120.206 10.6655 120.349 10.5376C118.906 10.3311 118.088 9.5656 118.088 8.95253C118.088 8.73943 118.17 8.54755 118.331 8.40986C116.749 8.19839 115.85 7.35912 115.85 6.7018C115.85 6.23793 116.205 5.87563 116.906 5.87563H125.414C128.515 5.87563 131.184 9.30971 133.353 9.50977C133.224 9.79499 133.037 10.1245 133.037 10.477C133.238 10.0868 133.533 9.77537 133.622 9.52129C133.848 8.87711 133.612 8.35262 133.297 7.93954C133.048 7.6117 133.073 7.32308 132.855 6.96737C132.645 6.62479 131.896 6.29861 131.401 6.10518C131.334 6.08223 131.274 5.96266 131.412 5.96591C131.924 5.97902 132.429 6.12486 132.933 6.35763C133.092 6.43303 133.251 6.5166 133.412 6.60511C133.417 6.60839 133.42 6.60847 133.424 6.60847H133.438C133.499 6.59208 133.394 6.33468 133.293 6.18714C133.137 5.96093 132.581 5.27413 132.109 4.87416ZM136.848 17.5616C136.694 18.26 137.273 23.0827 137.273 23.0827C137.273 23.0827 137.766 22.8186 137.938 22.6367C138.11 22.4547 138.355 21.9515 138.22 21.2861C138.084 20.6091 137.694 19.6828 137.414 19.0419C137.043 18.1944 136.848 17.56 136.848 17.56V17.5616ZM133.997 17.5584C133.997 17.5605 133.802 18.1942 133.432 19.0403C133.151 19.6812 132.763 20.6073 132.625 21.2843C132.491 21.9498 132.735 22.4531 132.907 22.6351C133.079 22.817 133.573 23.0809 133.573 23.0809V23.0793C133.575 23.0633 134.151 18.2573 133.997 17.5584ZM120.16 7.41336C121.04 8.30997 122.006 8.93277 123.039 9.27045C124.703 9.81467 126.376 10.118 128.016 10.1754C127.814 9.66559 127.658 9.23275 127.558 8.9426C127.099 7.61162 125.232 7.41336 124.683 7.41336H120.16ZM146.161 7.41336C145.613 7.41336 143.745 7.61327 143.286 8.9426C143.186 9.23111 143.03 9.66559 142.828 10.1754C144.469 10.118 146.141 9.81466 147.805 9.27045H147.803C148.836 8.93277 149.803 8.31001 150.682 7.41336H146.161ZM134.879 6.50682C134.761 6.36913 134.553 6.35278 134.415 6.4708C134.278 6.58883 134.261 6.79687 134.379 6.93456C134.497 7.07225 134.706 7.08876 134.843 6.97074C134.981 6.85272 134.997 6.64451 134.879 6.50682Z" fill="#3B3D42"/>
<path fill-rule="evenodd" clip-rule="evenodd" d="M26.9876 5.86426C26.4795 8.39521 25.927 11.2311 25.486 13.4719L25.0993 16.0798L25.1697 16.0716C27.5893 15.6438 28.9122 14.0914 29.5827 10.8884H32.1679C31.5663 13.8144 30.5564 16.6979 27.3123 17.8503C27.7467 19.4682 28.0598 21.0893 29.8598 21.0893C31.6597 21.0893 33.5957 18.5238 34.1711 15.288V15.2832C34.6366 12.1212 35.2185 8.9968 35.7923 5.86426H38.5675C38.0921 8.069 37.6152 10.3591 37.1775 12.4949C37.8381 11.4229 39.2037 10.6033 40.5856 10.6033C42.5642 10.6033 44.1068 12.2425 44.5199 14.6062C44.5642 14.8554 44.6182 15.2357 44.6313 15.4193C46.0362 15.2177 47.5575 14.462 48.1952 13.2211C49.0788 11.6146 50.5279 10.5442 52.3688 10.5442C53.6901 10.5442 55.0933 11.3639 55.6884 12.2491C56.072 10.1082 56.4245 7.98376 56.7573 5.86426H59.4751C57.1539 18.132 56.6671 20.9663 58.0604 20.9664C58.9735 20.9664 60.303 19.3878 61.0292 17.7765L61.0276 17.7749L62.8668 19.2912C62.157 20.9959 60.3308 23.5236 57.8179 23.5547H57.7866C56.2129 23.5547 55.3474 22.3859 55.0245 21.4385C54.5655 22.4171 53.6934 23.5547 51.7738 23.5547C49.5689 23.5547 47.8428 21.5975 47.3739 18.9124C47.2657 18.2928 47.2199 17.6765 47.2297 17.0732C46.4363 17.5011 45.4855 17.8093 44.4708 17.8584C43.915 20.8598 41.9625 23.6186 38.9905 23.6186C37.4807 23.6186 35.2743 22.8432 34.3678 20.2763V20.2795C33.4629 22.2875 31.5088 23.4432 29.7072 23.4432C27.4811 23.4431 26.0057 21.7696 25.1991 18.3289L24.7549 18.3813L24.3238 21.2974C24.214 21.94 24.119 22.581 24.0403 23.2088L21.3764 23.24C21.4666 22.6384 21.5632 22.0401 21.655 21.4385C20.6665 22.8597 18.8944 23.5661 17.4256 23.5661C15.6667 23.5661 14.4684 22.463 14.188 20.8566C13.7635 18.4305 15.6994 15.6569 15.4125 14.0176C15.3076 13.4194 14.9585 13.0407 14.3307 13.0407C11.5046 13.0407 10.3095 19.155 9.83079 23.2514H7.06704C8.21289 17.0437 8.57017 15.3111 8.35543 14.0817C8.24559 13.4522 7.82919 13.0424 7.26363 13.0424C4.53098 13.0425 3.22775 18.7158 2.73269 23.2531H0C0.662271 19.1256 1.29171 14.9963 1.99004 10.8983H4.631L4.13105 13.6078C5.07364 11.8113 6.58674 10.5818 8.28339 10.5818C9.82264 10.5818 10.9685 11.749 11.0111 13.6078C11.9209 11.6211 13.4979 10.5818 15.1634 10.5818C16.7011 10.5818 17.8879 11.6212 18.1896 13.1654C18.6059 15.3718 16.5962 18.6174 16.8716 20.1927C16.9601 20.6976 17.2913 20.9811 17.7945 20.9811C19.6239 20.9811 21.5617 19.019 22.3944 16.2455C22.4698 15.8652 22.5467 15.5438 22.6254 15.3143C23.1369 12.1621 23.6616 9.01318 24.1845 5.86426H26.9876ZM39.9036 12.9981C38.4906 12.9981 37.1463 14.48 36.8053 16.8437C36.3791 19.8058 37.4743 21.0352 38.6988 21.0352V21.0336C40.7102 21.0336 42.2462 17.5993 41.7675 14.8569C41.5593 13.6603 40.7511 12.9981 39.9036 12.9981ZM52.9573 13.008C50.6279 13.008 49.6345 15.9766 50.1082 18.6928C50.3115 19.8615 51.0393 20.9664 52.2049 20.9664H52.2065C53.8736 20.9664 54.7999 18.6928 55.2982 14.3341C54.8196 13.5768 53.9015 13.008 52.9573 13.008Z" fill="#3B3D42"/>
<path fill-rule="evenodd" clip-rule="evenodd" d="M99.6051 6.40181C99.2362 8.07054 98.9296 9.55247 98.6641 10.9065H101.397L101.023 13.08H98.2592C97.2658 18.719 97.474 20.9877 99.169 20.9877C100.39 20.9877 101.893 18.9091 103.002 16.0012C103.661 14.1997 104.095 12.3654 104.411 10.1819H107.238C108.252 12.0408 111.077 15.4439 111.578 18.4994L111.575 18.501C112.011 21.1778 110.582 23.6039 107.379 23.6039C105.634 23.6039 103.569 22.7957 102.315 21.4204C101.38 22.6613 100.218 23.5711 98.8952 23.5711C96.6101 23.5711 95.5543 22.1925 95.2084 20.0599C94.1757 21.9319 92.6904 23.5711 90.9823 23.5711C89.1611 23.571 87.9513 22.217 87.6759 20.6418C87.3251 18.6255 88.0481 16.2945 88.7644 13.7423C88.0989 13.7095 87.0775 13.6161 86.1595 13.3948C85.4809 16.7027 84.2678 19.2861 83.017 21.1138C82.9777 21.1679 82.9384 21.2172 82.899 21.2648C81.9466 22.5843 80.7416 23.5711 79.3646 23.5711C77.7631 23.571 76.8992 22.4056 76.609 21.4598C76.1205 22.4367 75.2828 23.5711 73.3665 23.5711C71.1682 23.571 69.4569 21.681 68.9897 19.0025C68.252 14.7816 70.3469 10.5918 73.9271 10.5918C75.2451 10.5918 76.6451 11.4113 77.2385 12.2932L77.4991 10.9065H80.1991C78.7008 18.8763 78.3795 20.9877 79.6352 20.9877C80.2646 20.9877 80.9745 20.4353 81.6646 19.5042C83.3498 17.0159 84.0088 13.2866 84.1629 9.86723H86.6119C86.5955 10.3081 86.5415 10.7179 86.5186 11.1277C88.0808 11.4424 90.7709 11.5687 91.9905 11.5375C91.2528 14.1521 90.0693 18.342 90.3496 19.9484C90.466 20.609 90.8135 20.9877 91.3479 20.9877C92.6233 20.9876 94.4035 18.0486 95.2592 15.3586C95.3461 14.6193 95.4593 13.857 95.5888 13.08H94.0806L94.4232 10.9065H95.9624L96.8412 6.40181H99.6051ZM106.247 13.1441C105.829 15.7897 104.747 18.4059 103.849 19.9172C104.515 20.6729 105.531 21.2712 106.598 21.2712V21.2729C108.233 21.2729 109 19.9172 108.715 18.2796C108.426 16.4519 107.297 14.6554 106.247 13.1441ZM74.5796 13.049C72.2567 13.049 71.2453 16.0733 71.724 18.8141C71.9223 19.9481 72.6678 20.9869 73.8294 20.9875C75.4946 20.9869 76.3846 18.7184 76.914 14.3717C76.437 13.6161 75.5222 13.049 74.5796 13.049Z" fill="#3B3D42"/>
</svg>
