<svg width="165" height="106" viewBox="0 0 165 106" fill="none" xmlns="http://www.w3.org/2000/svg">
<g clip-path="url(#clip0_49_708)">
<path d="M77.3714 54.0456C77.8091 54.0644 78.2469 54.0813 78.6847 54.0945L78.6828 54.0927C79.6148 54.1228 80.1504 54.5655 80.1354 55.4358V55.4488C80.1222 56.2306 79.5961 56.7468 78.6397 56.7167C78.1794 56.7035 77.7189 56.6846 77.2585 56.6658C77.2961 55.7917 77.3338 54.9196 77.3714 54.0456Z" fill="#3B3D42"/>
<path d="M89.3085 53.9869C89.3079 53.9869 89.3073 53.987 89.3067 53.9871L89.3085 53.9852C89.3085 53.9858 89.3085 53.9863 89.3085 53.9869Z" fill="#3B3D42"/>
<path d="M67.9762 54.0248C68.181 55.0024 68.3935 55.9801 68.6133 56.9559C67.9519 56.8805 67.2924 56.7977 66.6329 56.711H66.6347C67.0894 55.8181 67.5366 54.9233 67.9762 54.0248Z" fill="#3B3D42"/>
<path fill-rule="evenodd" clip-rule="evenodd" d="M70.2011 27.9213C70.0019 27.7517 70.0433 27.2074 70.5375 27.3977C72.9857 28.3358 74.6881 29.8183 76.3829 31.1934C78.3464 30.9127 80.9283 30.8487 82.657 32.8719C83.852 34.2697 85.7404 38.3574 87.3807 42.0194C88.1454 43.7336 90.9828 45.188 93.6566 44.2349C93.9102 44.1275 94.1638 44.0125 94.4212 43.892C94.5114 43.843 94.596 43.8015 94.6768 43.7694C101.826 40.2788 110.195 31.6531 119.652 31.6531H151.227C153.831 31.6531 155.147 33.0038 155.147 34.7293L155.148 34.7273C155.148 37.1725 151.815 40.2977 145.943 41.0832C146.541 41.5975 146.841 42.3077 146.841 43.1026C146.841 45.3838 143.807 48.234 138.454 49.0026C138.981 49.4792 139.248 50.1215 139.248 50.826C139.248 52.9001 136.501 55.5186 131.646 56.2721C132.095 56.7072 132.324 57.2781 132.324 57.8998C132.324 58.6702 131.894 59.5442 131.063 60.3524C119.297 72.1824 106.595 72.5423 99.2954 70.8507C96.2439 70.1443 91.8714 66.7214 91.5633 66.388C90.9132 68.7766 90.139 70.5229 90.139 70.5229C91.6497 77.7528 99.2822 86.3747 99.8835 88.7276C100.389 90.7037 99.0981 93.0923 97.1195 93.8383L96.4769 94.0813C96.1894 95.0006 95.7403 95.7372 95.2837 96.2213C94.6523 96.892 93.5287 97.5419 92.9162 97.8696L91.8565 98.4348C91.5784 99.5839 91.0091 100.507 90.4078 101.11C89.8516 101.665 88.8031 102.332 87.7884 102.741C86.8996 104.659 84.8685 105.998 82.5028 105.998C80.1372 105.998 78.106 104.657 77.2173 102.741C76.2007 102.332 75.1522 101.665 74.5979 101.11C73.9985 100.507 73.4272 99.582 73.1492 98.4348L72.0895 97.8696C71.475 97.5419 70.3532 96.892 69.7218 96.2213C69.2652 95.7372 68.8181 95.0006 68.5287 94.0813L67.8861 93.8383C65.9076 93.0923 64.6167 90.7037 65.1222 88.7276C65.7235 86.3804 73.3238 77.7886 74.8571 70.5682C74.8571 70.5682 74.0379 68.6919 73.3783 66.1733C73.0552 66.648 72.6775 67.1528 72.3506 67.4542C70.9319 68.9236 68.7599 70.1443 65.7084 70.8507C58.4085 72.5424 45.7065 72.1843 33.9402 60.3524C33.1098 59.5424 32.6795 58.6702 32.6794 57.8998C32.6794 57.2781 32.9087 56.7072 33.3578 56.2721C28.5006 55.5186 25.7554 52.8982 25.7554 50.826C25.7554 50.1216 26.0222 49.4811 26.5501 49.0026C21.195 48.234 18.1624 45.3838 18.1624 43.1026C18.1624 42.3077 18.4631 41.5975 19.0606 41.0832C13.1869 40.2977 9.85535 37.1725 9.85535 34.7273C9.85539 33.0018 11.1706 31.6511 13.7748 31.6511H45.3533C56.864 31.6511 66.7625 44.4307 74.814 45.1729C75.1578 45.1861 75.5073 45.1898 75.8192 45.1898C76.644 42.8031 75.7704 40.8553 74.6092 39.3256C73.6848 38.1087 73.7749 37.0349 72.9669 35.7088C72.189 34.4316 69.4119 33.2223 67.5724 32.5008C67.3206 32.4198 67.1007 31.9714 67.6137 31.9846C69.5077 32.0355 71.381 32.5781 73.2582 33.4427C73.8481 33.7271 74.4419 34.0341 75.0357 34.3656C75.0526 34.3713 75.0638 34.3733 75.077 34.3752H75.079C75.0958 34.3771 75.1108 34.3771 75.1239 34.3752H75.1335C75.3626 34.3111 74.9699 33.3561 74.5942 32.806C74.0173 31.964 71.9542 29.4094 70.2011 27.9213ZM74.3593 81.3018C74.3593 81.3018 73.8556 82.954 72.8917 85.1599C72.1645 86.8251 71.1538 89.2383 70.7967 90.9996C70.4473 92.7307 71.0823 94.0419 71.5276 94.5147C71.973 94.9875 73.2563 95.6731 73.2563 95.6731C73.2588 95.6524 74.7592 83.12 74.3593 81.3018ZM90.6407 81.3018C90.2408 83.12 91.7411 95.6516 91.7437 95.6731C91.7437 95.6731 93.0251 94.9894 93.4724 94.5147C93.9196 94.04 94.5527 92.7307 94.2032 90.9996C93.8462 89.2383 92.8354 86.827 92.1083 85.1599C91.1462 82.954 90.6407 81.3018 90.6407 81.3018ZM71.3115 84.7379C70.0431 85.8907 68.0083 87.4599 67.5254 89.3474C67.3356 90.0877 67.9537 91.2068 68.7579 91.5101C68.7016 90.1104 70.2855 86.3749 71.3115 84.7379ZM93.6885 84.7379C94.7126 86.3749 96.2984 90.1104 96.2421 91.5101C97.0463 91.2068 97.6644 90.0858 97.4746 89.3474C96.9917 87.4599 94.9568 85.8907 93.6885 84.7379ZM75.1315 61.0155C75.7778 61.0532 76.4243 61.0852 77.0706 61.1134C77.112 60.1621 77.1515 59.2108 77.1928 58.2576C77.5893 58.2745 77.9858 58.2896 78.3823 58.3028C78.9137 59.2742 79.4562 60.24 80.0139 61.2039C80.754 61.219 81.496 61.2264 82.236 61.2264C81.5728 60.1489 80.9263 59.0657 80.2969 57.9769C81.3096 57.5718 81.9974 56.7374 81.9993 55.4207V55.3718C82.0031 54.5128 81.7381 53.8288 81.2664 53.3522C80.7197 52.8003 79.9173 52.5027 78.9102 52.4725C77.8204 52.4405 76.7286 52.3916 75.6388 52.3275C75.4697 55.2248 75.3006 58.1202 75.1315 61.0155ZM91.3961 52.173C89.3424 52.3331 87.2849 52.4406 85.2274 52.4915C85.2405 53.0471 85.2555 53.601 85.2687 54.1567C86.0109 54.1378 86.7512 54.1114 87.4915 54.0794C87.593 56.4228 87.6963 58.7663 87.7978 61.1097C88.4404 61.0815 89.0811 61.0475 89.7237 61.0098C89.5866 58.6689 89.4475 56.3279 89.3085 53.9869C90.0482 53.9436 90.7879 53.8929 91.5257 53.8346C91.4825 53.2807 91.4393 52.7269 91.3961 52.173ZM67.4447 51.5043C66.0335 54.2603 64.5452 56.9936 62.98 59.6987C63.6264 59.8005 64.2728 59.8984 64.9192 59.9907C65.233 59.3992 65.543 58.8057 65.8512 58.2123C66.9015 58.3555 67.9556 58.4855 69.0097 58.6023C69.1675 59.2541 69.3311 59.9059 69.4965 60.5558V60.5577C70.1635 60.6292 70.8305 60.6933 71.4975 60.7517C70.6369 57.7471 69.8554 54.7331 69.1526 51.7153C68.5833 51.6494 68.014 51.5797 67.4447 51.5043ZM100.443 52.0656C99.534 51.4779 98.5005 51.2801 97.4878 51.4138C95.8249 51.6342 94.769 52.7778 94.9249 54.2886C94.9268 54.2961 94.9268 54.3056 94.9268 54.3131C95.0827 55.7936 96.1312 56.2759 97.8109 56.6621C99.1638 56.9616 99.4663 57.1876 99.5264 57.6209V57.6341C99.5978 58.1371 99.2014 58.5478 98.4649 58.6457C97.5461 58.7682 96.738 58.3894 96.0672 57.9524C95.7421 58.4346 95.4133 58.9169 95.0807 59.3972C96.1912 60.1827 97.4802 60.4202 98.6658 60.262H98.6697C100.487 60.0209 101.644 58.8227 101.387 57.229C101.385 57.2215 101.383 57.2121 101.383 57.2046C101.169 55.8652 100.22 55.3678 98.5833 54.993C97.1177 54.6275 96.7907 54.4223 96.7287 53.9306V53.9174C96.6742 53.4728 97.0256 53.1187 97.6513 53.0358C98.3277 52.9454 99.0154 53.2128 99.6354 53.5726C99.9098 53.0715 100.178 52.5685 100.443 52.0656ZM110.314 46.2334C109.669 46.9041 109.03 47.4806 108.412 47.9478C108.585 48.0344 108.963 48.1512 109.579 48.2059V48.2077C112.302 48.4451 115.962 47.6858 118.517 46.8701C115.784 46.8117 113.035 46.5989 110.314 46.2334ZM54.6862 46.2316C51.9654 46.5989 49.2164 46.8118 46.4825 46.8683C49.0379 47.684 52.6983 48.4432 55.4209 48.2059V48.2038C56.0372 48.1511 56.413 48.0326 56.5878 47.9459C55.9715 47.4788 55.3326 46.9022 54.6862 46.2316ZM75.5807 37.9034C75.7103 38.2463 75.8795 38.5533 76.088 38.8302V38.8284C78.1812 41.605 78.042 43.4888 77.8954 45.5007C77.8804 45.7098 77.8655 45.9208 77.8523 46.1356C78.9064 46.8514 80.233 46.9869 81.7061 46.8136C80.853 43.9824 79.2033 41.0399 75.5807 37.9034ZM129.853 41.2245C124.707 41.7067 119.438 41.7162 114.166 41.2547C113.174 42.7824 112.181 44.1237 111.206 45.254C113.623 45.222 116.099 45.0562 118.581 44.7604C122.578 44.2838 126.362 43.097 129.853 41.2245ZM35.1465 41.2227C38.6377 43.0951 42.422 44.2818 46.4186 44.7584C48.9008 45.0542 51.3773 45.22 53.7937 45.252C52.8185 44.1217 51.8264 42.7805 50.8343 41.2528C45.5618 41.7144 40.2931 41.703 35.1465 41.2227ZM122.775 34.5165C120.992 34.5165 117.779 34.929 116.287 37.6887C115.962 38.2897 115.456 39.1883 114.803 40.2469C120.131 40.1282 125.568 39.497 130.971 38.3687V38.3707C134.325 37.6699 137.465 36.3758 140.323 34.5165H122.775ZM24.6816 34.5145C27.5388 36.3728 30.6776 37.6663 34.0305 38.3668C39.4345 39.4952 44.8704 40.1262 50.1992 40.2449C49.5453 39.1862 49.0398 38.2876 48.7147 37.6867C47.2209 34.9271 44.0099 34.5145 42.2267 34.5145H24.6816ZM80.233 34.2244C79.9136 33.8495 79.3518 33.8063 78.9779 34.1265C78.604 34.4467 78.5607 35.0099 78.8801 35.3848C79.1995 35.7597 79.7615 35.8031 80.1354 35.4828C80.5093 35.1626 80.5524 34.5992 80.233 34.2244Z" fill="#3B3D42"/>
<path fill-rule="evenodd" clip-rule="evenodd" d="M59.6523 0.891114C59.0699 3.79962 58.4366 7.05847 57.9311 9.63356L57.4878 12.6307L57.5686 12.6213C60.342 12.1296 61.8583 10.3457 62.6268 6.66477H65.5901C64.9005 10.0273 63.743 13.3408 60.0245 14.6651C60.5224 16.5244 60.8061 18.3876 62.9444 18.3876C65.0827 18.3876 67.4559 16.1948 68.8482 11.6643L68.8519 11.67C69.1074 10.0669 69.4437 8.36955 69.7763 6.66661H72.9802C71.772 12.7512 70.4247 18.2556 72.5855 18.2557C74.0811 18.2557 75.9845 15.5242 77.2378 11.817C77.5178 10.0971 77.8016 8.37896 78.0929 6.66661H81.1538L80.6163 9.78054C81.6592 7.49744 83.431 6.30313 85.34 6.3031C87.0687 6.3031 88.4648 7.4993 88.8162 9.3096C89.301 11.8809 86.9843 15.5392 87.3 17.3495C87.4014 17.9278 87.7828 18.2538 88.322 18.2539C89.8703 18.2539 91.6648 15.3208 92.9782 11.7002C93.4818 8.65036 95.5769 6.3031 98.48 6.3031C100.318 6.30312 101.825 7.10004 102.672 8.04192L102.899 6.66477H105.996L104.021 19.5215C106.808 17.9655 108.54 15.7239 109.82 11.7153C110.353 8.08151 111.02 4.49097 111.678 0.891114H114.859C114.316 3.42475 113.767 6.05632 113.266 8.51084C114.023 7.27887 115.588 6.33697 117.172 6.33695C119.44 6.33695 121.208 8.22076 121.682 10.9371C121.732 11.2272 121.789 11.5531 121.81 11.879C123.467 12.3122 125.184 11.8433 125.964 10.3269C126.176 9.13072 126.42 7.89865 126.661 6.66477H129.865C128.656 12.7494 127.309 18.2539 129.47 18.2539C130.133 18.2538 130.877 17.7169 131.608 16.7958C131.648 16.728 131.689 16.6581 131.736 16.5884C133.687 13.727 134.45 9.41887 134.626 5.47049H137.435C137.416 5.97722 137.354 6.44825 137.328 6.91919C139.121 7.28086 142.206 7.42592 143.604 7.39014C142.758 10.3966 141.402 15.2133 141.723 17.0594C141.856 17.8185 142.255 18.2538 142.867 18.2539C144.314 18.2539 146.325 14.9534 147.319 11.8904C147.954 8.73132 150.032 6.3031 152.993 6.3031C154.506 6.30314 156.111 7.24499 156.791 8.25844C157.232 5.78883 157.636 3.33807 158.02 0.892953H161.129C158.467 14.9986 157.905 18.2539 159.502 18.2539C160.545 18.2538 162.067 16.4416 162.897 14.5956L165 16.3342C164.188 18.2895 162.101 21.1868 159.226 21.2226H159.19C157.39 21.2226 156.4 19.8833 156.032 18.7964C155.507 19.9191 154.575 21.2226 152.313 21.2226C150.051 21.2226 148.23 19.4086 147.493 16.8109C146.306 19.1165 144.538 21.2226 142.448 21.2226C140.359 21.2226 138.972 19.6648 138.656 17.8545C138.252 15.5374 139.083 12.8567 139.904 9.92367C139.141 9.88599 137.971 9.77859 136.918 9.52428C136.295 12.576 135.274 15.089 134.154 17.05C132.971 19.2653 131.236 21.2226 129.162 21.2226C125.594 21.2226 125.011 18.1426 125.432 13.9701C124.397 14.4749 123.081 14.7291 121.676 14.4146C121.107 17.9636 118.842 21.296 115.349 21.296C113.525 21.296 110.812 20.3051 109.895 16.9558C108.525 19.4989 106.486 21.3996 103.581 22.5619L103.506 22.9594C102.64 28.5373 99.7707 30.6735 96.567 30.6735C94.0473 30.6735 92.05 29.3322 91.678 27.1961C90.9658 23.1026 96.4638 21.183 100.985 20.6763L101.486 17.5625C100.787 18.721 99.3949 19.4086 98.0627 19.4086C96.0917 19.4086 94.2691 18.2349 93.4067 16.144C92.2248 18.7002 90.2838 21.2187 87.9031 21.2188C85.887 21.2188 84.549 19.9511 84.2277 18.105C83.7429 15.3152 85.932 12.1654 85.6032 10.2817C85.4829 9.59408 85.1559 9.15894 84.3987 9.15894C81.1218 9.15896 79.3931 16.1854 78.9816 20.8571H75.8137C75.9152 20.1865 76.0203 19.514 76.1236 18.8435C75.0658 20.2204 73.758 21.2187 72.2755 21.2188C69.7727 21.2188 68.741 19.7023 68.4911 17.357C66.9372 19.529 64.7576 21.0907 62.7734 21.0907C60.2199 21.0907 58.5288 19.1674 57.6043 15.2133L57.0951 15.2737L56.601 18.6249C56.4751 19.3633 56.366 20.0999 56.2758 20.8214L53.2225 20.8571C53.3258 20.1658 53.4367 19.4783 53.5419 18.787C52.2135 20.2544 50.3044 21.2188 47.3807 21.2188C44.1413 21.2188 41.3266 19.1185 40.6896 15.4602C40.6031 14.9629 40.5543 14.4693 40.5374 13.987C39.5265 14.4636 38.2582 14.6991 36.9072 14.4109C36.5708 18.0673 34.4194 21.2188 30.6746 21.2188C27.9989 21.2188 25.9244 19.3728 25.1728 16.8184C23.9721 19.1316 22.157 21.232 19.9737 21.232C17.9575 21.232 16.584 19.9642 16.2626 18.1181C15.776 15.3301 17.995 12.1428 17.6662 10.259C17.5459 9.57146 17.1458 9.13631 16.4261 9.13631C13.1868 9.13633 11.8169 16.1628 11.2683 20.8703H8.1004C9.41382 13.7365 9.82332 11.7453 9.57718 10.3324C9.45126 9.60911 8.97397 9.13815 8.32574 9.13815C5.19352 9.13826 3.69972 15.6579 3.13227 20.8722H0C0.759109 16.1289 1.48059 11.3837 2.28103 6.67802H5.30632L4.73326 9.79195C5.81367 7.72736 7.54786 6.31437 9.49258 6.31432C11.257 6.31432 12.5705 7.65575 12.6193 9.79195C13.6622 7.50881 15.4698 6.31432 17.3788 6.31432C19.1413 6.31435 20.5017 7.50879 20.8475 9.28329C21.3247 11.8189 19.0211 15.5488 19.3367 17.3591C19.4382 17.9392 19.8178 18.2651 20.3946 18.2651C21.9786 18.2651 23.741 15.3715 25.0545 11.7528C25.7591 8.62201 27.9688 6.30129 31.1386 6.30126C34.3085 6.30126 36.3154 8.94606 36.7701 11.5532L36.8132 11.8074C38.5137 12.3462 40.2912 11.9224 41.1048 10.3626C42.018 7.95517 43.959 6.30314 46.4768 6.3031C50.0056 6.3031 52.0744 9.70711 51.5257 12.966H48.3578C48.7242 10.7206 47.8993 9.09106 46.5671 9.09105C44.5866 9.09105 43.3221 12.1692 43.8332 15.1022C44.2184 17.31 45.6933 18.5419 47.5648 18.5419C51.1048 18.5419 53.0873 16.3229 54.6525 11.751C55.2387 8.1285 55.8399 4.50981 56.4393 0.891114H59.6523ZM100.607 23.0687C98.1736 23.3588 94.2729 24.734 94.6317 26.7985C94.7895 27.7046 95.5374 28.0664 96.5089 28.0664C98.2732 28.0664 99.9022 26.4727 100.607 23.0687ZM31.1425 9.01765C28.9102 9.01765 27.5253 12.6382 28.0476 15.6447C28.3558 17.4192 29.348 18.3611 30.5731 18.3611C32.7696 18.3611 34.1545 14.7405 33.6321 11.734C33.3672 10.212 32.5104 9.01768 31.1425 9.01765ZM116.392 9.08921C114.773 9.08921 113.232 10.7921 112.841 13.5085C112.353 16.9125 113.608 18.3254 115.011 18.3254V18.3234C117.317 18.3234 119.077 14.3769 118.529 11.2254C118.29 9.85029 117.364 9.08926 116.392 9.08921ZM153.664 9.12693C151 9.12696 149.863 12.5309 150.406 15.6447C150.639 16.9841 151.471 18.2518 152.803 18.2518H152.805C154.713 18.2517 155.772 15.6446 156.342 10.647C155.793 9.77862 154.744 9.12693 153.664 9.12693ZM99.3086 8.98178C96.5709 8.98178 95.6106 11.7341 96.0578 14.3055C96.3359 15.8991 97.3149 16.7674 98.6113 16.7674V16.7693C101.024 16.7693 101.751 13.2919 102.266 10.2496C101.648 9.59788 100.425 8.98181 99.3086 8.98178Z" fill="#3B3D42"/>
<path d="M71.9654 0C72.9012 0 73.7411 0.687558 73.9121 1.66523C74.1583 3.07805 73.1436 4.49088 71.8471 4.49089C70.8381 4.49089 70.1071 3.80334 69.9362 2.82566C69.6787 1.33936 70.6689 1.85119e-06 71.9654 0Z" fill="#3B3D42"/>
<path d="M128.852 0C129.788 0 130.63 0.687558 130.799 1.66523C131.045 3.07805 130.03 4.49088 128.734 4.49089C127.725 4.49089 126.994 3.80334 126.823 2.82566C126.565 1.33936 127.555 1.85119e-06 128.852 0Z" fill="#3B3D42"/>
</g>
<defs>
<clipPath id="clip0_49_708">
<rect width="165" height="106" fill="white"/>
</clipPath>
</defs>
</svg>
