<svg width="194" height="32" viewBox="0 0 194 32" fill="none" xmlns="http://www.w3.org/2000/svg">
<g clip-path="url(#clip0_49_709)">
<path fill-rule="evenodd" clip-rule="evenodd" d="M52.1863 5.72741C51.6767 8.29685 51.1227 11.1758 50.6805 13.4507L50.2927 16.0984L50.3633 16.0901C52.7896 15.6557 54.1161 14.0798 54.7885 10.828H57.3808C56.7776 13.7985 55.7649 16.7257 52.5118 17.8957C52.9474 19.5382 53.1957 21.1842 55.0663 21.1842C56.937 21.1841 59.0131 19.247 60.2312 15.2447L60.2344 15.2497C60.458 13.8335 60.7522 12.334 61.0432 10.8296H63.846C62.789 16.2048 61.6103 21.0676 63.5007 21.0676C64.8092 21.0676 66.4743 18.6546 67.5707 15.3796C67.8157 13.8602 68.064 12.3423 68.3188 10.8296H70.9966L70.5264 13.5805C71.4387 11.5636 72.9888 10.5085 74.6589 10.5085C76.1712 10.5085 77.3926 11.5652 77.7 13.1645C78.1241 15.436 76.0974 18.6678 76.3735 20.2671C76.4623 20.778 76.7959 21.066 77.2677 21.066C78.6222 21.066 80.1921 18.4749 81.3411 15.2764C81.7816 12.5821 83.6146 10.5085 86.1543 10.5085C87.7619 10.5085 89.0802 11.2125 89.8215 12.0446L90.0204 10.828H92.7295L91.0018 22.1859C93.4395 20.8113 94.9552 18.831 96.0746 15.2897C96.5415 12.0796 97.125 8.90761 97.7003 5.72741H100.483C100.008 7.96568 99.5283 10.2905 99.0894 12.4588C99.7518 11.3705 101.121 10.5384 102.507 10.5384C104.491 10.5384 106.038 12.2026 106.452 14.6023C106.496 14.8585 106.546 15.1465 106.564 15.4343C108.014 15.8171 109.516 15.4028 110.198 14.0632C110.384 13.0064 110.598 11.918 110.808 10.828H113.611C112.554 16.2032 111.375 21.066 113.266 21.066C113.846 21.066 114.497 20.5917 115.136 19.7779C115.171 19.718 115.207 19.6563 115.248 19.5948C116.954 17.0669 117.622 13.261 117.776 9.77293H120.234C120.217 10.2206 120.163 10.6367 120.14 11.0527C121.708 11.3722 124.407 11.5004 125.63 11.4688C124.891 14.1248 123.704 18.3799 123.985 20.0108C124.102 20.6814 124.45 21.066 124.986 21.066C126.252 21.066 128.011 18.1504 128.88 15.4444C129.436 12.6536 131.254 10.5085 133.845 10.5085C135.168 10.5085 136.572 11.3406 137.167 12.2359C137.553 10.0542 137.907 7.88911 138.242 5.72904H140.962C138.633 18.1903 138.142 21.066 139.539 21.066C140.451 21.066 141.783 19.4651 142.509 17.8342L144.349 19.3702C143.639 21.0976 141.812 23.657 139.297 23.6887H139.266C137.691 23.6887 136.825 22.5055 136.503 21.5453C136.044 22.5371 135.229 23.6887 133.25 23.6887C131.271 23.6887 129.678 22.0861 129.033 19.7912C127.994 21.8281 126.448 23.6887 124.62 23.6887C122.792 23.6887 121.578 22.3124 121.302 20.7132C120.949 18.6663 121.676 16.2981 122.394 13.707C121.726 13.6737 120.702 13.5788 119.782 13.3541C119.236 16.0501 118.343 18.2701 117.364 20.0025C116.328 21.9595 114.811 23.6887 112.996 23.6887C109.875 23.6887 109.365 20.9678 109.733 17.2817C108.827 17.7276 107.677 17.9522 106.447 17.6743C105.949 20.8096 103.968 23.7535 100.912 23.7535C99.3162 23.7535 96.9426 22.8782 96.1405 19.9193C94.9421 22.1659 93.1585 23.845 90.6171 24.8718L90.5515 25.223C89.7937 30.1506 87.2834 32.0378 84.4807 32.0378C82.2764 32.0378 80.5291 30.8529 80.2036 28.9658C79.5806 25.3495 84.3904 23.6537 88.3455 23.206L88.7844 20.4553C88.1729 21.4787 86.9547 22.0861 85.7892 22.0861C84.0649 22.0861 82.4705 21.0493 81.7159 19.2021C80.682 21.4604 78.9839 23.6853 76.9012 23.6853C75.1374 23.6853 73.9669 22.5654 73.6858 20.9345C73.2617 18.4699 75.1768 15.6874 74.8891 14.0232C74.7839 13.4158 74.4979 13.0314 73.8354 13.0314C70.9686 13.0314 69.4563 19.2387 69.0963 23.3658H66.3249C66.4136 22.7734 66.5056 22.1793 66.596 21.5869C65.6706 22.8033 64.5265 23.6853 63.2296 23.6853C61.04 23.6853 60.1374 22.3456 59.9188 20.2737C58.5594 22.1925 56.6526 23.5722 54.9167 23.5722C52.6828 23.5722 51.2034 21.873 50.3946 18.3799L49.9491 18.4333L49.5168 21.3938C49.4067 22.0462 49.3113 22.6969 49.2324 23.3343L46.5612 23.3658C46.6516 22.7551 46.7486 22.1477 46.8407 21.537C45.6785 22.8334 44.0083 23.6853 41.4506 23.6853C38.6166 23.6853 36.1541 21.8298 35.5969 18.598C35.5213 18.1587 35.4786 17.7226 35.4638 17.2966C34.5794 17.7176 33.4698 17.9257 32.2879 17.6711C31.9936 20.9012 30.1115 23.6853 26.8353 23.6853C24.4946 23.6853 22.6797 22.0545 22.0222 19.7979C20.9718 21.8415 19.3839 23.697 17.4738 23.697C15.71 23.697 14.5083 22.577 14.2272 20.9461C13.8015 18.4831 15.7428 15.6674 15.4551 14.0032C15.3499 13.3958 14.9998 13.0114 14.3703 13.0114C11.5363 13.0114 10.3379 19.2187 9.85794 23.3775H7.08656C8.23559 17.0753 8.59384 15.3162 8.3785 14.0681C8.26835 13.4291 7.85079 13.013 7.28369 13.013C4.5435 13.0131 3.23666 18.7727 2.74023 23.3791H0C0.664099 19.1888 1.29528 14.9967 1.99554 10.8397H4.64218L4.14085 13.5906C5.08603 11.7667 6.60317 10.5184 8.3045 10.5184C9.84804 10.5184 10.9972 11.7034 11.0399 13.5906C11.9522 11.5736 13.5336 10.5184 15.2037 10.5184C16.7456 10.5184 17.9357 11.5736 18.2382 13.1412C18.6557 15.3812 16.6404 18.6763 16.9166 20.2755C17.0053 20.7881 17.3374 21.0759 17.842 21.0759C19.2278 21.0759 20.7696 18.5197 21.9187 15.3229C22.5351 12.5571 24.4682 10.5069 27.2413 10.5069C30.0144 10.5069 31.7702 12.8433 32.168 15.1465L32.2057 15.3711C33.6933 15.8471 35.2484 15.4727 35.9601 14.0947C36.759 11.968 38.4571 10.5085 40.6598 10.5085C43.7469 10.5085 45.5568 13.5156 45.0768 16.3947H42.3054C42.6259 14.411 41.9042 12.9714 40.7388 12.9714C39.0062 12.9714 37.8999 15.6907 38.3471 18.2818C38.684 20.2322 39.9744 21.3205 41.6116 21.3205C44.7085 21.3205 46.4429 19.3602 47.8122 15.3212C48.325 12.1211 48.851 8.92424 49.3754 5.72741H52.1863ZM88.0149 25.3196C85.8862 25.5758 82.4737 26.7907 82.7876 28.6146C82.9257 29.415 83.58 29.7346 84.4298 29.7346C85.9734 29.7346 87.3985 28.3267 88.0149 25.3196ZM27.2447 12.9066C25.2918 12.9066 24.0802 16.105 24.5372 18.761C24.8068 20.3287 25.6748 21.1608 26.7466 21.1608C28.6682 21.1608 29.8797 17.9623 29.4228 15.3063C29.191 13.9616 28.4414 12.9066 27.2447 12.9066ZM101.825 12.9698C100.408 12.9698 99.0598 14.4742 98.7179 16.8739C98.2905 19.881 99.3886 21.1292 100.616 21.1292V21.1274C102.633 21.1274 104.174 17.6411 103.694 14.8569C103.485 13.6421 102.675 12.9698 101.825 12.9698ZM134.431 13.0031C132.101 13.0031 131.106 16.0102 131.581 18.761C131.785 19.9443 132.513 21.0642 133.679 21.0642H133.68C135.349 21.0642 136.276 18.7609 136.774 14.346C136.294 13.5788 135.377 13.0031 134.431 13.0031ZM86.8792 12.8749C84.4842 12.8749 83.644 15.3063 84.0353 17.5779C84.2786 18.9857 85.135 19.7529 86.2692 19.7529V19.7545C88.3798 19.7545 89.016 16.6826 89.4664 13.9949C88.9256 13.4192 87.8556 12.8749 86.8792 12.8749Z" fill="#3B3D42"/>
<path fill-rule="evenodd" clip-rule="evenodd" d="M181.856 6.27152C181.486 7.96564 181.179 9.47012 180.912 10.8447H183.652L183.278 13.0514H180.506C179.51 18.776 179.719 21.0793 181.418 21.0793C182.643 21.0793 184.151 18.969 185.262 16.0168C185.923 14.1879 186.358 12.3256 186.675 10.109H189.509C190.527 11.9962 193.359 15.451 193.862 18.553L193.859 18.5547C194.296 21.2722 192.863 23.7353 189.651 23.7353C187.902 23.7353 185.83 22.9148 184.573 21.5186C183.636 22.7784 182.47 23.702 181.144 23.702C178.852 23.702 177.794 22.3024 177.447 20.1374C176.411 22.0379 174.922 23.702 173.209 23.702C171.383 23.702 170.17 22.3274 169.894 20.7281C169.542 18.6812 170.267 16.3148 170.985 13.7237C170.318 13.6904 169.294 13.5955 168.373 13.3709C167.693 16.7291 166.476 19.3519 165.222 21.2074C165.182 21.2623 165.143 21.3122 165.103 21.3605C164.148 22.7001 162.94 23.702 161.559 23.702C159.953 23.702 159.087 22.5188 158.796 21.5586C158.306 22.5504 157.466 23.702 155.545 23.702C153.34 23.702 151.624 21.7832 151.156 19.064C150.416 14.7788 152.517 10.5251 156.107 10.5251C157.429 10.5251 158.832 11.3573 159.427 12.2526L159.689 10.8447H162.396C160.894 18.9358 160.572 21.0793 161.831 21.0793C162.462 21.0793 163.174 20.5183 163.866 19.5731C165.556 17.0469 166.216 13.2609 166.371 9.78951H168.827C168.81 10.2372 168.756 10.6533 168.733 11.0693C170.3 11.3888 172.997 11.517 174.22 11.4854C173.48 14.1397 172.294 18.3932 172.575 20.0241C172.691 20.6948 173.04 21.0793 173.576 21.0793C174.855 21.0793 176.64 18.0954 177.498 15.3645C177.585 14.614 177.698 13.8401 177.828 13.0514H176.316L176.66 10.8447H178.203L179.084 6.27152H181.856ZM188.516 13.1162C188.097 15.8022 187.012 18.4582 186.112 19.9926C186.779 20.7597 187.798 21.3672 188.868 21.3672V21.3688C190.507 21.3688 191.276 19.9926 190.99 18.3301C190.701 16.4745 189.569 14.6506 188.516 13.1162ZM156.759 13.0197C154.43 13.0197 153.416 16.0901 153.896 18.8725C154.095 20.0237 154.842 21.0785 156.007 21.0792C157.677 21.0788 158.569 18.7757 159.1 14.3627C158.622 13.5955 157.705 13.0197 156.759 13.0197Z" fill="#3B3D42"/>
<path d="M62.9583 4.94019C63.7769 4.94019 64.5117 5.54759 64.6613 6.41128C64.8767 7.6594 63.9889 8.90752 62.8547 8.90753C61.972 8.90753 61.3326 8.30013 61.183 7.43643C60.9578 6.12341 61.824 4.94019 62.9583 4.94019Z" fill="#3B3D42"/>
<path d="M112.725 4.94019C113.543 4.94019 114.28 5.54759 114.428 6.41128C114.643 7.6594 113.756 8.90752 112.621 8.90753C111.739 8.90753 111.099 8.30013 110.95 7.43643C110.724 6.12341 111.591 4.94019 112.725 4.94019Z" fill="#3B3D42"/>
</g>
<defs>
<clipPath id="clip0_49_709">
<rect width="193.939" height="32" fill="white"/>
</clipPath>
</defs>
</svg>
