<svg fill="none" xmlns="http://www.w3.org/2000/svg">
	<defs>
		<filter id="squiggly-0" filterUnits="userSpaceOnUse" y="-40%" height="180%">
			<feTurbulence id="turbulence" baseFrequency="0.02" numOctaves="3" result="noise" seed="0" />
			<feDisplacementMap id="displacement" in="SourceGraphic" in2="noise" scale="2" />
		</filter>
		<filter id="squiggly-1" filterUnits="userSpaceOnUse" y="-40%" height="180%">
			<feTurbulence id="turbulence" baseFrequency="0.02" numOctaves="3" result="noise" seed="1" />
			<feDisplacementMap in="SourceGraphic" in2="noise" scale="3" />
		</filter>

		<filter id="squiggly-2" filterUnits="userSpaceOnUse" y="-40%" height="180%">
			<feTurbulence id="turbulence" baseFrequency="0.02" numOctaves="3" result="noise" seed="2" />
			<feDisplacementMap in="SourceGraphic" in2="noise" scale="2" />
		</filter>
		<filter id="squiggly-3" filterUnits="userSpaceOnUse" y="-40%" height="180%">
			<feTurbulence id="turbulence" baseFrequency="0.02" numOctaves="3" result="noise" seed="3" />
			<feDisplacementMap in="SourceGraphic" in2="noise" scale="3" />
		</filter>

		<filter id="squiggly-4" filterUnits="userSpaceOnUse" y="-40%" height="180%">
			<feTurbulence id="turbulence" baseFrequency="0.02" numOctaves="3" result="noise" seed="4" />
			<feDisplacementMap in="SourceGraphic" in2="noise" scale="1" />
		</filter>
	</defs>
	<symbol id="mockingbird-logo" viewBox="0 0 165 106">
		<path d="M77.3714 54.0456C77.8091 54.0644 78.2469 54.0813 78.6847 54.0945L78.6828 54.0927C79.6148 54.1228 80.1504 54.5655 80.1354 55.4358V55.4488C80.1222 56.2306 79.5961 56.7468 78.6397 56.7167C78.1794 56.7035 77.7189 56.6846 77.2585 56.6658C77.2961 55.7917 77.3338 54.9196 77.3714 54.0456Z" fill="currentColor"/>
		<path d="M89.3085 53.9869C89.3079 53.9869 89.3073 53.987 89.3067 53.9871L89.3085 53.9852C89.3085 53.9858 89.3085 53.9863 89.3085 53.9869Z" fill="currentColor"/>
		<path d="M67.9762 54.0248C68.181 55.0024 68.3935 55.9801 68.6133 56.9559C67.9519 56.8805 67.2924 56.7977 66.6329 56.711H66.6347C67.0894 55.8181 67.5366 54.9233 67.9762 54.0248Z" fill="currentColor"/>
		<path fill-rule="evenodd" clip-rule="evenodd" d="M70.2011 27.9213C70.0019 27.7517 70.0433 27.2074 70.5375 27.3977C72.9857 28.3358 74.6881 29.8183 76.3829 31.1934C78.3464 30.9127 80.9283 30.8487 82.657 32.8719C83.852 34.2697 85.7404 38.3574 87.3807 42.0194C88.1454 43.7336 90.9828 45.188 93.6566 44.2349C93.9102 44.1275 94.1638 44.0125 94.4212 43.892C94.5114 43.843 94.596 43.8015 94.6768 43.7694C101.826 40.2788 110.195 31.6531 119.652 31.6531H151.227C153.831 31.6531 155.147 33.0038 155.147 34.7293L155.148 34.7273C155.148 37.1725 151.815 40.2977 145.943 41.0832C146.541 41.5975 146.841 42.3077 146.841 43.1026C146.841 45.3838 143.807 48.234 138.454 49.0026C138.981 49.4792 139.248 50.1215 139.248 50.826C139.248 52.9001 136.501 55.5186 131.646 56.2721C132.095 56.7072 132.324 57.2781 132.324 57.8998C132.324 58.6702 131.894 59.5442 131.063 60.3524C119.297 72.1824 106.595 72.5423 99.2954 70.8507C96.2439 70.1443 91.8714 66.7214 91.5633 66.388C90.9132 68.7766 90.139 70.5229 90.139 70.5229C91.6497 77.7528 99.2822 86.3747 99.8835 88.7276C100.389 90.7037 99.0981 93.0923 97.1195 93.8383L96.4769 94.0813C96.1894 95.0006 95.7403 95.7372 95.2837 96.2213C94.6523 96.892 93.5287 97.5419 92.9162 97.8696L91.8565 98.4348C91.5784 99.5839 91.0091 100.507 90.4078 101.11C89.8516 101.665 88.8031 102.332 87.7884 102.741C86.8996 104.659 84.8685 105.998 82.5028 105.998C80.1372 105.998 78.106 104.657 77.2173 102.741C76.2007 102.332 75.1522 101.665 74.5979 101.11C73.9985 100.507 73.4272 99.582 73.1492 98.4348L72.0895 97.8696C71.475 97.5419 70.3532 96.892 69.7218 96.2213C69.2652 95.7372 68.8181 95.0006 68.5287 94.0813L67.8861 93.8383C65.9076 93.0923 64.6167 90.7037 65.1222 88.7276C65.7235 86.3804 73.3238 77.7886 74.8571 70.5682C74.8571 70.5682 74.0379 68.6919 73.3783 66.1733C73.0552 66.648 72.6775 67.1528 72.3506 67.4542C70.9319 68.9236 68.7599 70.1443 65.7084 70.8507C58.4085 72.5424 45.7065 72.1843 33.9402 60.3524C33.1098 59.5424 32.6795 58.6702 32.6794 57.8998C32.6794 57.2781 32.9087 56.7072 33.3578 56.2721C28.5006 55.5186 25.7554 52.8982 25.7554 50.826C25.7554 50.1216 26.0222 49.4811 26.5501 49.0026C21.195 48.234 18.1624 45.3838 18.1624 43.1026C18.1624 42.3077 18.4631 41.5975 19.0606 41.0832C13.1869 40.2977 9.85535 37.1725 9.85535 34.7273C9.85539 33.0018 11.1706 31.6511 13.7748 31.6511H45.3533C56.864 31.6511 66.7625 44.4307 74.814 45.1729C75.1578 45.1861 75.5073 45.1898 75.8192 45.1898C76.644 42.8031 75.7704 40.8553 74.6092 39.3256C73.6848 38.1087 73.7749 37.0349 72.9669 35.7088C72.189 34.4316 69.4119 33.2223 67.5724 32.5008C67.3206 32.4198 67.1007 31.9714 67.6137 31.9846C69.5077 32.0355 71.381 32.5781 73.2582 33.4427C73.8481 33.7271 74.4419 34.0341 75.0357 34.3656C75.0526 34.3713 75.0638 34.3733 75.077 34.3752H75.079C75.0958 34.3771 75.1108 34.3771 75.1239 34.3752H75.1335C75.3626 34.3111 74.9699 33.3561 74.5942 32.806C74.0173 31.964 71.9542 29.4094 70.2011 27.9213ZM74.3593 81.3018C74.3593 81.3018 73.8556 82.954 72.8917 85.1599C72.1645 86.8251 71.1538 89.2383 70.7967 90.9996C70.4473 92.7307 71.0823 94.0419 71.5276 94.5147C71.973 94.9875 73.2563 95.6731 73.2563 95.6731C73.2588 95.6524 74.7592 83.12 74.3593 81.3018ZM90.6407 81.3018C90.2408 83.12 91.7411 95.6516 91.7437 95.6731C91.7437 95.6731 93.0251 94.9894 93.4724 94.5147C93.9196 94.04 94.5527 92.7307 94.2032 90.9996C93.8462 89.2383 92.8354 86.827 92.1083 85.1599C91.1462 82.954 90.6407 81.3018 90.6407 81.3018ZM71.3115 84.7379C70.0431 85.8907 68.0083 87.4599 67.5254 89.3474C67.3356 90.0877 67.9537 91.2068 68.7579 91.5101C68.7016 90.1104 70.2855 86.3749 71.3115 84.7379ZM93.6885 84.7379C94.7126 86.3749 96.2984 90.1104 96.2421 91.5101C97.0463 91.2068 97.6644 90.0858 97.4746 89.3474C96.9917 87.4599 94.9568 85.8907 93.6885 84.7379ZM75.1315 61.0155C75.7778 61.0532 76.4243 61.0852 77.0706 61.1134C77.112 60.1621 77.1515 59.2108 77.1928 58.2576C77.5893 58.2745 77.9858 58.2896 78.3823 58.3028C78.9137 59.2742 79.4562 60.24 80.0139 61.2039C80.754 61.219 81.496 61.2264 82.236 61.2264C81.5728 60.1489 80.9263 59.0657 80.2969 57.9769C81.3096 57.5718 81.9974 56.7374 81.9993 55.4207V55.3718C82.0031 54.5128 81.7381 53.8288 81.2664 53.3522C80.7197 52.8003 79.9173 52.5027 78.9102 52.4725C77.8204 52.4405 76.7286 52.3916 75.6388 52.3275C75.4697 55.2248 75.3006 58.1202 75.1315 61.0155ZM91.3961 52.173C89.3424 52.3331 87.2849 52.4406 85.2274 52.4915C85.2405 53.0471 85.2555 53.601 85.2687 54.1567C86.0109 54.1378 86.7512 54.1114 87.4915 54.0794C87.593 56.4228 87.6963 58.7663 87.7978 61.1097C88.4404 61.0815 89.0811 61.0475 89.7237 61.0098C89.5866 58.6689 89.4475 56.3279 89.3085 53.9869C90.0482 53.9436 90.7879 53.8929 91.5257 53.8346C91.4825 53.2807 91.4393 52.7269 91.3961 52.173ZM67.4447 51.5043C66.0335 54.2603 64.5452 56.9936 62.98 59.6987C63.6264 59.8005 64.2728 59.8984 64.9192 59.9907C65.233 59.3992 65.543 58.8057 65.8512 58.2123C66.9015 58.3555 67.9556 58.4855 69.0097 58.6023C69.1675 59.2541 69.3311 59.9059 69.4965 60.5558V60.5577C70.1635 60.6292 70.8305 60.6933 71.4975 60.7517C70.6369 57.7471 69.8554 54.7331 69.1526 51.7153C68.5833 51.6494 68.014 51.5797 67.4447 51.5043ZM100.443 52.0656C99.534 51.4779 98.5005 51.2801 97.4878 51.4138C95.8249 51.6342 94.769 52.7778 94.9249 54.2886C94.9268 54.2961 94.9268 54.3056 94.9268 54.3131C95.0827 55.7936 96.1312 56.2759 97.8109 56.6621C99.1638 56.9616 99.4663 57.1876 99.5264 57.6209V57.6341C99.5978 58.1371 99.2014 58.5478 98.4649 58.6457C97.5461 58.7682 96.738 58.3894 96.0672 57.9524C95.7421 58.4346 95.4133 58.9169 95.0807 59.3972C96.1912 60.1827 97.4802 60.4202 98.6658 60.262H98.6697C100.487 60.0209 101.644 58.8227 101.387 57.229C101.385 57.2215 101.383 57.2121 101.383 57.2046C101.169 55.8652 100.22 55.3678 98.5833 54.993C97.1177 54.6275 96.7907 54.4223 96.7287 53.9306V53.9174C96.6742 53.4728 97.0256 53.1187 97.6513 53.0358C98.3277 52.9454 99.0154 53.2128 99.6354 53.5726C99.9098 53.0715 100.178 52.5685 100.443 52.0656ZM110.314 46.2334C109.669 46.9041 109.03 47.4806 108.412 47.9478C108.585 48.0344 108.963 48.1512 109.579 48.2059V48.2077C112.302 48.4451 115.962 47.6858 118.517 46.8701C115.784 46.8117 113.035 46.5989 110.314 46.2334ZM54.6862 46.2316C51.9654 46.5989 49.2164 46.8118 46.4825 46.8683C49.0379 47.684 52.6983 48.4432 55.4209 48.2059V48.2038C56.0372 48.1511 56.413 48.0326 56.5878 47.9459C55.9715 47.4788 55.3326 46.9022 54.6862 46.2316ZM75.5807 37.9034C75.7103 38.2463 75.8795 38.5533 76.088 38.8302V38.8284C78.1812 41.605 78.042 43.4888 77.8954 45.5007C77.8804 45.7098 77.8655 45.9208 77.8523 46.1356C78.9064 46.8514 80.233 46.9869 81.7061 46.8136C80.853 43.9824 79.2033 41.0399 75.5807 37.9034ZM129.853 41.2245C124.707 41.7067 119.438 41.7162 114.166 41.2547C113.174 42.7824 112.181 44.1237 111.206 45.254C113.623 45.222 116.099 45.0562 118.581 44.7604C122.578 44.2838 126.362 43.097 129.853 41.2245ZM35.1465 41.2227C38.6377 43.0951 42.422 44.2818 46.4186 44.7584C48.9008 45.0542 51.3773 45.22 53.7937 45.252C52.8185 44.1217 51.8264 42.7805 50.8343 41.2528C45.5618 41.7144 40.2931 41.703 35.1465 41.2227ZM122.775 34.5165C120.992 34.5165 117.779 34.929 116.287 37.6887C115.962 38.2897 115.456 39.1883 114.803 40.2469C120.131 40.1282 125.568 39.497 130.971 38.3687V38.3707C134.325 37.6699 137.465 36.3758 140.323 34.5165H122.775ZM24.6816 34.5145C27.5388 36.3728 30.6776 37.6663 34.0305 38.3668C39.4345 39.4952 44.8704 40.1262 50.1992 40.2449C49.5453 39.1862 49.0398 38.2876 48.7147 37.6867C47.2209 34.9271 44.0099 34.5145 42.2267 34.5145H24.6816ZM80.233 34.2244C79.9136 33.8495 79.3518 33.8063 78.9779 34.1265C78.604 34.4467 78.5607 35.0099 78.8801 35.3848C79.1995 35.7597 79.7615 35.8031 80.1354 35.4828C80.5093 35.1626 80.5524 34.5992 80.233 34.2244Z" fill="currentColor"/>
		<path fill-rule="evenodd" clip-rule="evenodd" d="M59.6523 0.891114C59.0699 3.79962 58.4366 7.05847 57.9311 9.63356L57.4878 12.6307L57.5686 12.6213C60.342 12.1296 61.8583 10.3457 62.6268 6.66477H65.5901C64.9005 10.0273 63.743 13.3408 60.0245 14.6651C60.5224 16.5244 60.8061 18.3876 62.9444 18.3876C65.0827 18.3876 67.4559 16.1948 68.8482 11.6643L68.8519 11.67C69.1074 10.0669 69.4437 8.36955 69.7763 6.66661H72.9802C71.772 12.7512 70.4247 18.2556 72.5855 18.2557C74.0811 18.2557 75.9845 15.5242 77.2378 11.817C77.5178 10.0971 77.8016 8.37896 78.0929 6.66661H81.1538L80.6163 9.78054C81.6592 7.49744 83.431 6.30313 85.34 6.3031C87.0687 6.3031 88.4648 7.4993 88.8162 9.3096C89.301 11.8809 86.9843 15.5392 87.3 17.3495C87.4014 17.9278 87.7828 18.2538 88.322 18.2539C89.8703 18.2539 91.6648 15.3208 92.9782 11.7002C93.4818 8.65036 95.5769 6.3031 98.48 6.3031C100.318 6.30312 101.825 7.10004 102.672 8.04192L102.899 6.66477H105.996L104.021 19.5215C106.808 17.9655 108.54 15.7239 109.82 11.7153C110.353 8.08151 111.02 4.49097 111.678 0.891114H114.859C114.316 3.42475 113.767 6.05632 113.266 8.51084C114.023 7.27887 115.588 6.33697 117.172 6.33695C119.44 6.33695 121.208 8.22076 121.682 10.9371C121.732 11.2272 121.789 11.5531 121.81 11.879C123.467 12.3122 125.184 11.8433 125.964 10.3269C126.176 9.13072 126.42 7.89865 126.661 6.66477H129.865C128.656 12.7494 127.309 18.2539 129.47 18.2539C130.133 18.2538 130.877 17.7169 131.608 16.7958C131.648 16.728 131.689 16.6581 131.736 16.5884C133.687 13.727 134.45 9.41887 134.626 5.47049H137.435C137.416 5.97722 137.354 6.44825 137.328 6.91919C139.121 7.28086 142.206 7.42592 143.604 7.39014C142.758 10.3966 141.402 15.2133 141.723 17.0594C141.856 17.8185 142.255 18.2538 142.867 18.2539C144.314 18.2539 146.325 14.9534 147.319 11.8904C147.954 8.73132 150.032 6.3031 152.993 6.3031C154.506 6.30314 156.111 7.24499 156.791 8.25844C157.232 5.78883 157.636 3.33807 158.02 0.892953H161.129C158.467 14.9986 157.905 18.2539 159.502 18.2539C160.545 18.2538 162.067 16.4416 162.897 14.5956L165 16.3342C164.188 18.2895 162.101 21.1868 159.226 21.2226H159.19C157.39 21.2226 156.4 19.8833 156.032 18.7964C155.507 19.9191 154.575 21.2226 152.313 21.2226C150.051 21.2226 148.23 19.4086 147.493 16.8109C146.306 19.1165 144.538 21.2226 142.448 21.2226C140.359 21.2226 138.972 19.6648 138.656 17.8545C138.252 15.5374 139.083 12.8567 139.904 9.92367C139.141 9.88599 137.971 9.77859 136.918 9.52428C136.295 12.576 135.274 15.089 134.154 17.05C132.971 19.2653 131.236 21.2226 129.162 21.2226C125.594 21.2226 125.011 18.1426 125.432 13.9701C124.397 14.4749 123.081 14.7291 121.676 14.4146C121.107 17.9636 118.842 21.296 115.349 21.296C113.525 21.296 110.812 20.3051 109.895 16.9558C108.525 19.4989 106.486 21.3996 103.581 22.5619L103.506 22.9594C102.64 28.5373 99.7707 30.6735 96.567 30.6735C94.0473 30.6735 92.05 29.3322 91.678 27.1961C90.9658 23.1026 96.4638 21.183 100.985 20.6763L101.486 17.5625C100.787 18.721 99.3949 19.4086 98.0627 19.4086C96.0917 19.4086 94.2691 18.2349 93.4067 16.144C92.2248 18.7002 90.2838 21.2187 87.9031 21.2188C85.887 21.2188 84.549 19.9511 84.2277 18.105C83.7429 15.3152 85.932 12.1654 85.6032 10.2817C85.4829 9.59408 85.1559 9.15894 84.3987 9.15894C81.1218 9.15896 79.3931 16.1854 78.9816 20.8571H75.8137C75.9152 20.1865 76.0203 19.514 76.1236 18.8435C75.0658 20.2204 73.758 21.2187 72.2755 21.2188C69.7727 21.2188 68.741 19.7023 68.4911 17.357C66.9372 19.529 64.7576 21.0907 62.7734 21.0907C60.2199 21.0907 58.5288 19.1674 57.6043 15.2133L57.0951 15.2737L56.601 18.6249C56.4751 19.3633 56.366 20.0999 56.2758 20.8214L53.2225 20.8571C53.3258 20.1658 53.4367 19.4783 53.5419 18.787C52.2135 20.2544 50.3044 21.2188 47.3807 21.2188C44.1413 21.2188 41.3266 19.1185 40.6896 15.4602C40.6031 14.9629 40.5543 14.4693 40.5374 13.987C39.5265 14.4636 38.2582 14.6991 36.9072 14.4109C36.5708 18.0673 34.4194 21.2188 30.6746 21.2188C27.9989 21.2188 25.9244 19.3728 25.1728 16.8184C23.9721 19.1316 22.157 21.232 19.9737 21.232C17.9575 21.232 16.584 19.9642 16.2626 18.1181C15.776 15.3301 17.995 12.1428 17.6662 10.259C17.5459 9.57146 17.1458 9.13631 16.4261 9.13631C13.1868 9.13633 11.8169 16.1628 11.2683 20.8703H8.1004C9.41382 13.7365 9.82332 11.7453 9.57718 10.3324C9.45126 9.60911 8.97397 9.13815 8.32574 9.13815C5.19352 9.13826 3.69972 15.6579 3.13227 20.8722H0C0.759109 16.1289 1.48059 11.3837 2.28103 6.67802H5.30632L4.73326 9.79195C5.81367 7.72736 7.54786 6.31437 9.49258 6.31432C11.257 6.31432 12.5705 7.65575 12.6193 9.79195C13.6622 7.50881 15.4698 6.31432 17.3788 6.31432C19.1413 6.31435 20.5017 7.50879 20.8475 9.28329C21.3247 11.8189 19.0211 15.5488 19.3367 17.3591C19.4382 17.9392 19.8178 18.2651 20.3946 18.2651C21.9786 18.2651 23.741 15.3715 25.0545 11.7528C25.7591 8.62201 27.9688 6.30129 31.1386 6.30126C34.3085 6.30126 36.3154 8.94606 36.7701 11.5532L36.8132 11.8074C38.5137 12.3462 40.2912 11.9224 41.1048 10.3626C42.018 7.95517 43.959 6.30314 46.4768 6.3031C50.0056 6.3031 52.0744 9.70711 51.5257 12.966H48.3578C48.7242 10.7206 47.8993 9.09106 46.5671 9.09105C44.5866 9.09105 43.3221 12.1692 43.8332 15.1022C44.2184 17.31 45.6933 18.5419 47.5648 18.5419C51.1048 18.5419 53.0873 16.3229 54.6525 11.751C55.2387 8.1285 55.8399 4.50981 56.4393 0.891114H59.6523ZM100.607 23.0687C98.1736 23.3588 94.2729 24.734 94.6317 26.7985C94.7895 27.7046 95.5374 28.0664 96.5089 28.0664C98.2732 28.0664 99.9022 26.4727 100.607 23.0687ZM31.1425 9.01765C28.9102 9.01765 27.5253 12.6382 28.0476 15.6447C28.3558 17.4192 29.348 18.3611 30.5731 18.3611C32.7696 18.3611 34.1545 14.7405 33.6321 11.734C33.3672 10.212 32.5104 9.01768 31.1425 9.01765ZM116.392 9.08921C114.773 9.08921 113.232 10.7921 112.841 13.5085C112.353 16.9125 113.608 18.3254 115.011 18.3254V18.3234C117.317 18.3234 119.077 14.3769 118.529 11.2254C118.29 9.85029 117.364 9.08926 116.392 9.08921ZM153.664 9.12693C151 9.12696 149.863 12.5309 150.406 15.6447C150.639 16.9841 151.471 18.2518 152.803 18.2518H152.805C154.713 18.2517 155.772 15.6446 156.342 10.647C155.793 9.77862 154.744 9.12693 153.664 9.12693ZM99.3086 8.98178C96.5709 8.98178 95.6106 11.7341 96.0578 14.3055C96.3359 15.8991 97.3149 16.7674 98.6113 16.7674V16.7693C101.024 16.7693 101.751 13.2919 102.266 10.2496C101.648 9.59788 100.425 8.98181 99.3086 8.98178Z" fill="currentColor"/>
		<path d="M71.9654 0C72.9012 0 73.7411 0.687558 73.9121 1.66523C74.1583 3.07805 73.1436 4.49088 71.8471 4.49089C70.8381 4.49089 70.1071 3.80334 69.9362 2.82566C69.6787 1.33936 70.6689 1.85119e-06 71.9654 0Z" fill="currentColor"/>
		<path d="M128.852 0C129.788 0 130.63 0.687558 130.799 1.66523C131.045 3.07805 130.03 4.49088 128.734 4.49089C127.725 4.49089 126.994 3.80334 126.823 2.82566C126.565 1.33936 127.555 1.85119e-06 128.852 0Z" fill="currentColor"/>
	</symbol>
	<symbol id="mockingbird-arts-logotype" viewBox="0 0 194 32">
		<path fill-rule="evenodd" clip-rule="evenodd" d="M52.1863 5.72741C51.6767 8.29685 51.1227 11.1758 50.6805 13.4507L50.2927 16.0984L50.3633 16.0901C52.7896 15.6557 54.1161 14.0798 54.7885 10.828H57.3808C56.7776 13.7985 55.7649 16.7257 52.5118 17.8957C52.9474 19.5382 53.1957 21.1842 55.0663 21.1842C56.937 21.1841 59.0131 19.247 60.2312 15.2447L60.2344 15.2497C60.458 13.8335 60.7522 12.334 61.0432 10.8296H63.846C62.789 16.2048 61.6103 21.0676 63.5007 21.0676C64.8092 21.0676 66.4743 18.6546 67.5707 15.3796C67.8157 13.8602 68.064 12.3423 68.3188 10.8296H70.9966L70.5264 13.5805C71.4387 11.5636 72.9888 10.5085 74.6589 10.5085C76.1712 10.5085 77.3926 11.5652 77.7 13.1645C78.1241 15.436 76.0974 18.6678 76.3735 20.2671C76.4623 20.778 76.7959 21.066 77.2677 21.066C78.6222 21.066 80.1921 18.4749 81.3411 15.2764C81.7816 12.5821 83.6146 10.5085 86.1543 10.5085C87.7619 10.5085 89.0802 11.2125 89.8215 12.0446L90.0204 10.828H92.7295L91.0018 22.1859C93.4395 20.8113 94.9552 18.831 96.0746 15.2897C96.5415 12.0796 97.125 8.90761 97.7003 5.72741H100.483C100.008 7.96568 99.5283 10.2905 99.0894 12.4588C99.7518 11.3705 101.121 10.5384 102.507 10.5384C104.491 10.5384 106.038 12.2026 106.452 14.6023C106.496 14.8585 106.546 15.1465 106.564 15.4343C108.014 15.8171 109.516 15.4028 110.198 14.0632C110.384 13.0064 110.598 11.918 110.808 10.828H113.611C112.554 16.2032 111.375 21.066 113.266 21.066C113.846 21.066 114.497 20.5917 115.136 19.7779C115.171 19.718 115.207 19.6563 115.248 19.5948C116.954 17.0669 117.622 13.261 117.776 9.77293H120.234C120.217 10.2206 120.163 10.6367 120.14 11.0527C121.708 11.3722 124.407 11.5004 125.63 11.4688C124.891 14.1248 123.704 18.3799 123.985 20.0108C124.102 20.6814 124.45 21.066 124.986 21.066C126.252 21.066 128.011 18.1504 128.88 15.4444C129.436 12.6536 131.254 10.5085 133.845 10.5085C135.168 10.5085 136.572 11.3406 137.167 12.2359C137.553 10.0542 137.907 7.88911 138.242 5.72904H140.962C138.633 18.1903 138.142 21.066 139.539 21.066C140.451 21.066 141.783 19.4651 142.509 17.8342L144.349 19.3702C143.639 21.0976 141.812 23.657 139.297 23.6887H139.266C137.691 23.6887 136.825 22.5055 136.503 21.5453C136.044 22.5371 135.229 23.6887 133.25 23.6887C131.271 23.6887 129.678 22.0861 129.033 19.7912C127.994 21.8281 126.448 23.6887 124.62 23.6887C122.792 23.6887 121.578 22.3124 121.302 20.7132C120.949 18.6663 121.676 16.2981 122.394 13.707C121.726 13.6737 120.702 13.5788 119.782 13.3541C119.236 16.0501 118.343 18.2701 117.364 20.0025C116.328 21.9595 114.811 23.6887 112.996 23.6887C109.875 23.6887 109.365 20.9678 109.733 17.2817C108.827 17.7276 107.677 17.9522 106.447 17.6743C105.949 20.8096 103.968 23.7535 100.912 23.7535C99.3162 23.7535 96.9426 22.8782 96.1405 19.9193C94.9421 22.1659 93.1585 23.845 90.6171 24.8718L90.5515 25.223C89.7937 30.1506 87.2834 32.0378 84.4807 32.0378C82.2764 32.0378 80.5291 30.8529 80.2036 28.9658C79.5806 25.3495 84.3904 23.6537 88.3455 23.206L88.7844 20.4553C88.1729 21.4787 86.9547 22.0861 85.7892 22.0861C84.0649 22.0861 82.4705 21.0493 81.7159 19.2021C80.682 21.4604 78.9839 23.6853 76.9012 23.6853C75.1374 23.6853 73.9669 22.5654 73.6858 20.9345C73.2617 18.4699 75.1768 15.6874 74.8891 14.0232C74.7839 13.4158 74.4979 13.0314 73.8354 13.0314C70.9686 13.0314 69.4563 19.2387 69.0963 23.3658H66.3249C66.4136 22.7734 66.5056 22.1793 66.596 21.5869C65.6706 22.8033 64.5265 23.6853 63.2296 23.6853C61.04 23.6853 60.1374 22.3456 59.9188 20.2737C58.5594 22.1925 56.6526 23.5722 54.9167 23.5722C52.6828 23.5722 51.2034 21.873 50.3946 18.3799L49.9491 18.4333L49.5168 21.3938C49.4067 22.0462 49.3113 22.6969 49.2324 23.3343L46.5612 23.3658C46.6516 22.7551 46.7486 22.1477 46.8407 21.537C45.6785 22.8334 44.0083 23.6853 41.4506 23.6853C38.6166 23.6853 36.1541 21.8298 35.5969 18.598C35.5213 18.1587 35.4786 17.7226 35.4638 17.2966C34.5794 17.7176 33.4698 17.9257 32.2879 17.6711C31.9936 20.9012 30.1115 23.6853 26.8353 23.6853C24.4946 23.6853 22.6797 22.0545 22.0222 19.7979C20.9718 21.8415 19.3839 23.697 17.4738 23.697C15.71 23.697 14.5083 22.577 14.2272 20.9461C13.8015 18.4831 15.7428 15.6674 15.4551 14.0032C15.3499 13.3958 14.9998 13.0114 14.3703 13.0114C11.5363 13.0114 10.3379 19.2187 9.85794 23.3775H7.08656C8.23559 17.0753 8.59384 15.3162 8.3785 14.0681C8.26835 13.4291 7.85079 13.013 7.28369 13.013C4.5435 13.0131 3.23666 18.7727 2.74023 23.3791H0C0.664099 19.1888 1.29528 14.9967 1.99554 10.8397H4.64218L4.14085 13.5906C5.08603 11.7667 6.60317 10.5184 8.3045 10.5184C9.84804 10.5184 10.9972 11.7034 11.0399 13.5906C11.9522 11.5736 13.5336 10.5184 15.2037 10.5184C16.7456 10.5184 17.9357 11.5736 18.2382 13.1412C18.6557 15.3812 16.6404 18.6763 16.9166 20.2755C17.0053 20.7881 17.3374 21.0759 17.842 21.0759C19.2278 21.0759 20.7696 18.5197 21.9187 15.3229C22.5351 12.5571 24.4682 10.5069 27.2413 10.5069C30.0144 10.5069 31.7702 12.8433 32.168 15.1465L32.2057 15.3711C33.6933 15.8471 35.2484 15.4727 35.9601 14.0947C36.759 11.968 38.4571 10.5085 40.6598 10.5085C43.7469 10.5085 45.5568 13.5156 45.0768 16.3947H42.3054C42.6259 14.411 41.9042 12.9714 40.7388 12.9714C39.0062 12.9714 37.8999 15.6907 38.3471 18.2818C38.684 20.2322 39.9744 21.3205 41.6116 21.3205C44.7085 21.3205 46.4429 19.3602 47.8122 15.3212C48.325 12.1211 48.851 8.92424 49.3754 5.72741H52.1863ZM88.0149 25.3196C85.8862 25.5758 82.4737 26.7907 82.7876 28.6146C82.9257 29.415 83.58 29.7346 84.4298 29.7346C85.9734 29.7346 87.3985 28.3267 88.0149 25.3196ZM27.2447 12.9066C25.2918 12.9066 24.0802 16.105 24.5372 18.761C24.8068 20.3287 25.6748 21.1608 26.7466 21.1608C28.6682 21.1608 29.8797 17.9623 29.4228 15.3063C29.191 13.9616 28.4414 12.9066 27.2447 12.9066ZM101.825 12.9698C100.408 12.9698 99.0598 14.4742 98.7179 16.8739C98.2905 19.881 99.3886 21.1292 100.616 21.1292V21.1274C102.633 21.1274 104.174 17.6411 103.694 14.8569C103.485 13.6421 102.675 12.9698 101.825 12.9698ZM134.431 13.0031C132.101 13.0031 131.106 16.0102 131.581 18.761C131.785 19.9443 132.513 21.0642 133.679 21.0642H133.68C135.349 21.0642 136.276 18.7609 136.774 14.346C136.294 13.5788 135.377 13.0031 134.431 13.0031ZM86.8792 12.8749C84.4842 12.8749 83.644 15.3063 84.0353 17.5779C84.2786 18.9857 85.135 19.7529 86.2692 19.7529V19.7545C88.3798 19.7545 89.016 16.6826 89.4664 13.9949C88.9256 13.4192 87.8556 12.8749 86.8792 12.8749Z" fill="currentColor"/>
		<path fill-rule="evenodd" clip-rule="evenodd" d="M181.856 6.27152C181.486 7.96564 181.179 9.47012 180.912 10.8447H183.652L183.278 13.0514H180.506C179.51 18.776 179.719 21.0793 181.418 21.0793C182.643 21.0793 184.151 18.969 185.262 16.0168C185.923 14.1879 186.358 12.3256 186.675 10.109H189.509C190.527 11.9962 193.359 15.451 193.862 18.553L193.859 18.5547C194.296 21.2722 192.863 23.7353 189.651 23.7353C187.902 23.7353 185.83 22.9148 184.573 21.5186C183.636 22.7784 182.47 23.702 181.144 23.702C178.852 23.702 177.794 22.3024 177.447 20.1374C176.411 22.0379 174.922 23.702 173.209 23.702C171.383 23.702 170.17 22.3274 169.894 20.7281C169.542 18.6812 170.267 16.3148 170.985 13.7237C170.318 13.6904 169.294 13.5955 168.373 13.3709C167.693 16.7291 166.476 19.3519 165.222 21.2074C165.182 21.2623 165.143 21.3122 165.103 21.3605C164.148 22.7001 162.94 23.702 161.559 23.702C159.953 23.702 159.087 22.5188 158.796 21.5586C158.306 22.5504 157.466 23.702 155.545 23.702C153.34 23.702 151.624 21.7832 151.156 19.064C150.416 14.7788 152.517 10.5251 156.107 10.5251C157.429 10.5251 158.832 11.3573 159.427 12.2526L159.689 10.8447H162.396C160.894 18.9358 160.572 21.0793 161.831 21.0793C162.462 21.0793 163.174 20.5183 163.866 19.5731C165.556 17.0469 166.216 13.2609 166.371 9.78951H168.827C168.81 10.2372 168.756 10.6533 168.733 11.0693C170.3 11.3888 172.997 11.517 174.22 11.4854C173.48 14.1397 172.294 18.3932 172.575 20.0241C172.691 20.6948 173.04 21.0793 173.576 21.0793C174.855 21.0793 176.64 18.0954 177.498 15.3645C177.585 14.614 177.698 13.8401 177.828 13.0514H176.316L176.66 10.8447H178.203L179.084 6.27152H181.856ZM188.516 13.1162C188.097 15.8022 187.012 18.4582 186.112 19.9926C186.779 20.7597 187.798 21.3672 188.868 21.3672V21.3688C190.507 21.3688 191.276 19.9926 190.99 18.3301C190.701 16.4745 189.569 14.6506 188.516 13.1162ZM156.759 13.0197C154.43 13.0197 153.416 16.0901 153.896 18.8725C154.095 20.0237 154.842 21.0785 156.007 21.0792C157.677 21.0788 158.569 18.7757 159.1 14.3627C158.622 13.5955 157.705 13.0197 156.759 13.0197Z" fill="currentColor"/>
		<path d="M62.9583 4.94019C63.7769 4.94019 64.5117 5.54759 64.6613 6.41128C64.8767 7.6594 63.9889 8.90752 62.8547 8.90753C61.972 8.90753 61.3326 8.30013 61.183 7.43643C60.9578 6.12341 61.824 4.94019 62.9583 4.94019Z" fill="currentColor"/>
		<path d="M112.725 4.94019C113.543 4.94019 114.28 5.54759 114.428 6.41128C114.643 7.6594 113.756 8.90752 112.621 8.90753C111.739 8.90753 111.099 8.30013 110.95 7.43643C110.724 6.12341 111.591 4.94019 112.725 4.94019Z" fill="currentColor"/>
	</symbol>
	<symbol id="mkbd-arts-logotype" viewBox="0 0 112 32">
		<path fill-rule="evenodd" clip-rule="evenodd" d="M26.9664 5.88599C26.4586 8.41506 25.9066 11.2488 25.466 13.488L25.0795 16.0941L25.1499 16.0858C27.5676 15.6582 28.8894 14.1071 29.5594 10.9065H32.1426C31.5415 13.8303 30.5324 16.7116 27.2908 17.8631C27.7249 19.4798 28.0378 21.0997 29.8363 21.0997C31.6348 21.0997 33.5693 18.5363 34.1442 15.3029V15.2979C34.6094 12.1382 35.1908 9.0162 35.7641 5.88599H38.5372C38.0622 8.08909 37.5856 10.3774 37.1483 12.5117C37.8084 11.4405 39.1729 10.6215 40.5537 10.6215C42.5308 10.6215 44.0721 12.2595 44.4849 14.6215C44.5291 14.8704 44.5831 15.2505 44.5962 15.4339C46 15.2324 47.5201 14.4773 48.1573 13.2373C49.0402 11.6321 50.4882 10.5625 52.3276 10.5625C53.6479 10.5625 55.05 11.3815 55.6446 12.266C56.0279 10.1268 56.3801 8.00392 56.7126 5.88599H59.4283C57.1089 18.1446 56.6225 20.9768 58.0147 20.9769C58.9271 20.9769 60.2556 19.3995 60.9812 17.7893L60.9796 17.7877L62.8174 19.3029C62.1082 21.0064 60.2834 23.5322 57.7724 23.5633H57.7412C56.1687 23.5633 55.3039 22.3954 54.9812 21.4486C54.5226 22.4265 53.6511 23.5633 51.7331 23.5633C49.5299 23.5633 47.8052 21.6075 47.3367 18.9244C47.2286 18.3053 47.1827 17.6894 47.1926 17.0866C46.3998 17.5141 45.4497 17.8221 44.4358 17.8712C43.8805 20.8704 41.9295 23.6271 38.9598 23.6271C37.4512 23.6271 35.2466 22.8524 34.3408 20.2873V20.2907C33.4366 22.2972 31.484 23.452 29.6838 23.452C27.4595 23.4519 25.9852 21.7795 25.1793 18.3414L24.7354 18.3938L24.3047 21.3078C24.1949 21.9499 24.1 22.5903 24.0214 23.2176L21.3596 23.2488C21.4497 22.6477 21.5462 22.0498 21.638 21.4486C20.6502 22.8688 18.8796 23.5748 17.4119 23.5748C15.6544 23.5748 14.457 22.4724 14.1769 20.8672C13.7527 18.4429 15.6871 15.6715 15.4004 14.0334C15.2956 13.4356 14.9468 13.0572 14.3194 13.0572C11.4955 13.0572 10.3014 19.167 9.82306 23.2603H7.06149C8.20645 17.0572 8.56343 15.3258 8.34886 14.0973C8.2391 13.4683 7.82302 13.0588 7.25792 13.0588C4.52742 13.0589 3.22521 18.728 2.73054 23.2619H0C0.661753 19.1358 1.29069 15.0113 1.98848 10.9163H4.62736L4.1278 13.6239C5.06965 11.8287 6.58154 10.6002 8.27687 10.6002C9.81494 10.6002 10.9599 11.7665 11.0025 13.6239C11.9115 11.6387 13.4873 10.6002 15.1515 10.6002C16.688 10.6002 17.8739 11.6387 18.1753 13.1817C18.5913 15.3864 16.5831 18.6297 16.8583 20.2038C16.9468 20.7083 17.2776 20.9916 17.7805 20.9916C19.6085 20.9916 21.5447 19.031 22.3768 16.2595C22.4522 15.8795 22.529 15.5584 22.6076 15.3291C23.1187 12.1793 23.643 9.03259 24.1655 5.88599H26.9664ZM39.8723 13.0145C38.4603 13.0145 37.1171 14.4954 36.7764 16.8574C36.3505 19.8172 37.4448 21.0457 38.6684 21.0457V21.0441C40.6782 21.044 42.2129 17.6125 41.7347 14.8721C41.5267 13.6764 40.7191 13.0145 39.8723 13.0145ZM52.9156 13.0244C50.5881 13.0244 49.5955 15.9908 50.0688 18.705C50.2719 19.8729 50.9992 20.9769 52.1638 20.9769H52.1654C53.8313 20.9769 54.7568 18.705 55.2548 14.3495C54.7765 13.5928 53.8591 13.0244 52.9156 13.0244Z" fill="currentColor"/>
		<path fill-rule="evenodd" clip-rule="evenodd" d="M99.5267 6.42154C99.1582 8.08902 98.8519 9.56985 98.5865 10.9228H101.317L100.944 13.0948H98.182C97.1893 18.7295 97.3973 20.9966 99.091 20.9966C100.311 20.9965 101.813 18.9196 102.921 16.0138C103.579 14.2136 104.013 12.3807 104.329 10.1989H107.153C108.167 12.0564 110.989 15.4569 111.491 18.5101L111.487 18.5117C111.923 21.1866 110.495 23.6108 107.294 23.6108C105.551 23.6108 103.487 22.8032 102.234 21.4289C101.301 22.6689 100.139 23.578 98.8175 23.578C96.5341 23.578 95.4792 22.2005 95.1336 20.0694C94.1016 21.94 92.6176 23.578 90.9108 23.578C89.091 23.578 87.8821 22.225 87.6069 20.6509C87.2564 18.6362 87.9789 16.3069 88.6947 13.7566C88.0296 13.7238 87.009 13.6304 86.0918 13.4093C85.4136 16.7147 84.2015 19.2962 82.9517 21.1226C82.9124 21.1767 82.8731 21.226 82.8338 21.2735C81.8822 22.592 80.6781 23.578 79.3022 23.578C77.7019 23.578 76.8387 22.4134 76.5488 21.4683C76.0607 22.4445 75.2236 23.578 73.3088 23.578C71.1122 23.578 69.4023 21.6894 68.9354 19.0129C68.1984 14.7951 70.2916 10.6084 73.869 10.6084C75.1859 10.6084 76.5848 11.4273 77.1778 12.3086L77.4382 10.9228H80.1361C78.639 18.8868 78.3178 20.9965 79.5725 20.9966C80.2015 20.9966 80.9108 20.4446 81.6004 19.5142C83.2842 17.0277 83.9428 13.3012 84.0967 9.88438H86.5438C86.5274 10.325 86.4735 10.7344 86.4506 11.1439C88.0116 11.4584 90.6995 11.5845 91.9182 11.5534C91.1811 14.166 89.9985 18.3528 90.2786 19.9581C90.3949 20.6182 90.7421 20.9966 91.2761 20.9966C92.5505 20.9965 94.3292 18.0596 95.1843 15.3717C95.2711 14.6329 95.3842 13.8712 95.5136 13.0948H94.0066L94.349 10.9228H95.887L96.765 6.42154H99.5267ZM106.164 13.1604C105.746 15.8041 104.665 18.4184 103.767 19.9287C104.433 20.6838 105.448 21.2816 106.514 21.2816V21.2832C108.148 21.2832 108.914 19.9286 108.629 18.2923C108.341 16.4659 107.212 14.6706 106.164 13.1604ZM74.521 13.0654C72.1999 13.0654 71.1893 16.0875 71.6676 18.8262C71.8657 19.9593 72.6106 20.9973 73.7712 20.998C75.4351 20.9976 76.3245 18.7308 76.8535 14.3873C76.3769 13.6322 75.4628 13.0654 74.521 13.0654Z" fill="currentColor"/>
	</symbol>
	<symbol id="mkbd-arts-logo" viewBox="0 0 126 83">
		<path fill-rule="evenodd" clip-rule="evenodd" d="M53.1512 26.5266C53.0069 26.4027 53.0365 26.0105 53.3953 26.1473C55.1693 26.8262 56.4032 27.8992 57.6334 28.8926C59.0597 28.6891 60.9319 28.6428 62.1843 30.106C63.05 31.1179 64.4207 34.0738 65.6102 36.7227C66.1652 37.9621 68.2242 39.0147 70.1628 38.3247C70.346 38.247 70.531 38.1638 70.7178 38.0769C70.7825 38.0399 70.8455 38.0122 70.9028 37.9882C76.0881 35.4631 82.1557 29.2237 89.0151 29.2237H111.913C113.802 29.2237 114.756 30.2003 114.756 31.4489L114.76 31.4545C114.76 33.2229 112.344 35.4834 108.086 36.0513C108.519 36.4249 108.737 36.9374 108.737 37.5127C108.737 39.1627 106.537 41.2235 102.654 41.7803C103.035 42.1244 103.23 42.5905 103.23 43.0992C103.23 44.5976 101.239 46.4918 97.7171 47.0375C98.0426 47.352 98.209 47.7644 98.209 48.2139C98.209 48.7707 97.8983 49.4035 97.2952 49.988C88.7617 58.5453 79.551 58.8043 74.2566 57.5815C72.0423 57.071 70.468 56.1867 69.4395 55.1249C69.8816 53.3232 69.2415 51.1588 69.2415 51.1588C68.9807 54.2776 67.6154 57.3447 67.6154 57.3447C68.7124 62.5741 74.2454 68.8098 74.6821 70.5117C75.0484 71.9417 74.1123 73.6694 72.6768 74.2096L72.2106 74.3854C72.0015 75.0494 71.676 75.5822 71.3449 75.9337C70.8879 76.4183 70.0721 76.8881 69.6281 77.1249L68.8605 77.5337C68.6589 78.3643 68.2444 79.0339 67.8096 79.4686C67.4064 79.87 66.6461 80.353 65.9099 80.649C65.2661 82.0344 63.7918 83.0037 62.077 83.0037C60.3621 83.0037 58.8876 82.0345 58.2439 80.649C57.5058 80.353 56.7455 79.87 56.3441 79.4686C55.9094 79.032 55.495 78.3642 55.2934 77.5337L54.5256 77.1249C54.0798 76.8881 53.2658 76.4183 52.8089 75.9337C52.4778 75.5822 52.1522 75.0494 51.9432 74.3854L51.4769 74.2096C50.0415 73.6694 49.1054 71.9416 49.4717 70.5117C49.9065 68.8135 55.4191 62.5982 56.5309 57.3761C56.5264 57.3659 55.1708 54.2706 54.9104 51.157C54.9104 51.157 54.2703 53.3195 54.7124 55.1231C53.6839 56.1849 52.1096 57.0672 49.8953 57.5796C44.6009 58.8041 35.3903 58.5433 26.8567 49.986C26.2555 49.4015 25.943 48.7689 25.943 48.2121C25.943 47.7626 26.1095 47.35 26.4351 47.0355C22.9129 46.4917 20.9223 44.5958 20.9222 43.0974C20.9222 42.5887 21.1147 42.1242 21.4976 41.7783C17.6147 41.2215 15.4152 39.1609 15.4152 37.5109C15.4152 36.9356 15.6334 36.4213 16.0663 36.0495C11.8079 35.4815 9.39205 33.2211 9.39201 31.4527C9.39201 30.2041 10.3464 29.2273 12.2351 29.2273H35.1332C43.4799 29.2273 50.6594 38.4709 56.4977 39.0074C56.1499 39.775 55.6448 40.6611 55.6448 41.6082C56.1886 40.5575 56.9805 39.7214 57.221 39.037C57.8278 37.3037 57.1931 35.8885 56.3477 34.7786C55.6763 33.8963 55.7428 33.1212 55.1565 32.1612C54.5904 31.2363 52.5777 30.3612 51.2439 29.8395C51.0608 29.7803 50.9017 29.4567 51.2735 29.4659C52.6461 29.5029 54.004 29.8951 55.3655 30.5204C55.7946 30.7257 56.2238 30.9476 56.6548 31.1881C56.6659 31.1936 56.6752 31.1936 56.6844 31.1955H56.7271C56.8934 31.1472 56.6104 30.4574 56.3367 30.0597C55.9186 29.4493 54.4221 27.6032 53.1512 26.5266ZM58.2402 60.6744C58.2402 60.6744 57.7166 62.3836 56.7177 64.6626C55.9629 66.3848 54.916 68.8784 54.5461 70.7005C54.1816 72.4893 54.8402 73.8433 55.3026 74.3335C55.7638 74.8223 57.0875 75.5283 57.0951 75.5323L57.0971 75.5341C57.0971 75.5341 58.6546 62.5557 58.2402 60.6744ZM65.9124 60.6753C65.5003 62.5724 67.0527 75.4955 67.0569 75.5303C67.0673 75.5247 68.3886 74.82 68.8493 74.3317C69.3118 73.8434 69.9686 72.4893 69.6061 70.6987C69.2361 68.8766 68.189 66.3829 67.4343 64.6608C66.4583 62.4343 65.936 60.7517 65.9124 60.6753ZM90.976 33.369C89.4998 33.369 84.4718 33.9037 83.236 37.4831C82.9678 38.2619 82.5496 39.4292 82.0076 40.8017C86.4196 40.6464 90.9223 39.8288 95.3991 38.3655V38.3673C98.1776 37.4591 100.779 35.7793 103.145 33.369H90.976ZM21.0073 33.3672C23.3729 35.7766 25.9732 37.4555 28.751 38.3636C33.2259 39.8268 37.7285 40.6462 42.1424 40.7998C41.6004 39.4272 41.1842 38.2619 40.9141 37.4813C39.6765 33.9019 34.6504 33.3672 33.1742 33.3672H21.0073ZM60.6137 30.9274C60.2955 30.5556 59.7368 30.5129 59.365 30.8311C58.9932 31.1493 58.9506 31.7079 59.2687 32.0797C59.5869 32.4515 60.1456 32.4941 60.5174 32.176C60.8892 31.8579 60.9318 31.2992 60.6137 30.9274Z" fill="currentColor"/>
		<path fill-rule="evenodd" clip-rule="evenodd" d="M30.4548 0C29.8813 2.85614 29.2579 6.05637 28.7603 8.58509L28.3238 11.5282L28.4033 11.5188C31.1337 11.036 32.6266 9.28431 33.3832 5.6698H36.3006C35.6217 8.97171 34.482 12.2255 30.8212 13.526C31.3114 15.3517 31.6647 17.1812 33.6959 17.1812C35.7271 17.1811 37.9118 14.2862 38.5611 10.6347V10.6291C39.0865 7.0608 39.7431 3.53502 40.3906 0H43.5224C42.9859 2.48802 42.4477 5.07227 41.9538 7.4826C42.6993 6.27281 44.2402 5.34789 45.7997 5.34789C48.0325 5.34789 49.7733 7.19771 50.2394 9.86516C50.2894 10.1463 50.3504 10.5755 50.3652 10.7827C51.9505 10.5551 53.6673 9.70233 54.3869 8.30201C55.384 6.48919 57.0193 5.28123 59.0967 5.28123C60.5877 5.28123 62.1712 6.20621 62.8428 7.20512C63.2756 4.78924 63.6735 2.39183 64.049 0H67.1159C64.4965 13.8439 63.9472 17.0424 65.5195 17.0425C66.5499 17.0425 68.0502 15.2611 68.8697 13.4427L68.8679 13.4409L70.9434 15.152C70.1424 17.0758 68.0817 19.9282 65.2458 19.9633H65.2106C63.4347 19.9633 62.458 18.6444 62.0936 17.5752C61.5756 18.6795 60.5914 19.9633 58.4252 19.9633C55.9371 19.9633 53.9892 17.7546 53.4601 14.7246C53.3381 14.0254 53.2863 13.3298 53.2974 12.6491C52.402 13.1319 51.3291 13.4797 50.184 13.5352C49.5569 16.9222 47.3535 20.0354 43.9997 20.0354C42.2959 20.0354 39.8061 19.1605 38.7831 16.2637V16.2675C37.762 18.5335 35.5568 19.8376 33.5237 19.8376C31.0116 19.8376 29.3467 17.9489 28.4365 14.0661L27.9352 14.1254L27.4487 17.4162C27.3248 18.1413 27.2176 18.8645 27.1288 19.573L24.1227 19.6082C24.2244 18.9293 24.3334 18.2541 24.437 17.5752C23.3215 19.179 21.3218 19.9764 19.6643 19.9764C17.6794 19.9763 16.3271 18.7314 16.0108 16.9185C15.5317 14.1808 17.7163 11.0509 17.3926 9.2011C17.2742 8.52591 16.8803 8.0986 16.1718 8.0986C12.9826 8.09862 11.6339 14.9985 11.0938 19.6212H7.97496C9.26804 12.6159 9.6712 10.6605 9.42886 9.27317C9.30491 8.56286 8.83501 8.10041 8.1968 8.10041C5.11308 8.10052 3.64242 14.5027 3.08376 19.623H0C0.747357 14.9633 1.45765 10.3054 2.24571 5.68082H5.22595L4.66177 8.73864C5.72546 6.71122 7.43293 5.32386 9.34757 5.32386C11.0846 5.32389 12.3776 6.64095 12.4257 8.73864C13.4524 6.49664 15.232 5.32386 17.1115 5.32386C18.8467 5.32386 20.186 6.49661 20.5264 8.23915C20.9963 10.729 18.7283 14.3917 19.0391 16.1694C19.139 16.7391 19.5127 17.0591 20.0806 17.0591C22.145 17.0591 24.3317 14.8449 25.2715 11.715C25.3566 11.2859 25.4434 10.9233 25.5322 10.6643C26.1093 7.10712 26.7014 3.55352 27.2915 0H30.4548ZM45.0301 8.05037C43.4355 8.05038 41.9185 9.7228 41.5337 12.3902C41.0528 15.7328 42.2887 17.1201 43.6705 17.1201V17.1183C45.9403 17.1183 47.6736 13.243 47.1335 10.1482C46.8985 8.79785 45.9865 8.05037 45.0301 8.05037ZM59.7608 8.06157C57.1321 8.0616 56.0111 11.4116 56.5457 14.4767C56.7751 15.7956 57.5965 17.0425 58.9117 17.0425H58.9135C60.7949 17.0425 61.8401 14.4768 62.4025 9.55805C61.8623 8.70343 60.8263 8.06157 59.7608 8.06157Z" fill="currentColor"/>
		<path fill-rule="evenodd" clip-rule="evenodd" d="M112.401 0.604808C111.985 2.48793 111.639 4.16027 111.34 5.68823H114.423L114.002 8.14106H110.883C109.762 14.5045 109.997 17.0647 111.909 17.0647C113.288 17.0647 114.984 14.7191 116.234 11.4375C116.978 9.40455 117.468 7.33458 117.825 4.87062H121.015C122.16 6.96832 125.347 10.8086 125.913 14.2567L125.909 14.2585C126.401 17.2793 124.788 20.017 121.174 20.017C119.205 20.017 116.874 19.105 115.459 17.553C114.405 18.9533 113.093 19.98 111.6 19.98C109.022 19.98 107.83 18.4243 107.44 16.0176C106.275 18.1302 104.599 19.98 102.671 19.98C100.616 19.9799 99.2505 18.452 98.9397 16.6743C98.5439 14.399 99.3598 11.7685 100.168 8.88839C99.4171 8.8514 98.2645 8.74594 97.2286 8.49621C96.4627 12.2291 95.0938 15.1445 93.6823 17.207C93.6379 17.2681 93.5936 17.3237 93.5492 17.3774C92.4744 18.8665 91.1146 19.98 89.5607 19.98C87.7534 19.9799 86.7786 18.6647 86.4511 17.5974C85.8999 18.6999 84.9545 19.98 82.792 19.98C80.3113 19.9799 78.3801 17.8471 77.8529 14.8245C77.0205 10.0612 79.3845 5.33313 83.4246 5.33307C84.9119 5.33307 86.4918 6.25797 87.1615 7.25317L87.4556 5.68823H90.5025C88.8117 14.6821 88.449 17.0647 89.866 17.0647C90.5764 17.0647 91.3774 16.4413 92.1562 15.3906C94.0579 12.5826 94.8016 8.3742 94.9755 4.51546H97.7391C97.7206 5.01303 97.6597 5.47546 97.6338 5.93788C99.3967 6.29305 102.432 6.43548 103.809 6.40034C102.976 9.35082 101.641 14.0791 101.957 15.8919C102.088 16.6374 102.481 17.0647 103.084 17.0647C104.523 17.0646 106.532 13.7479 107.497 10.7124C107.595 9.87812 107.723 9.01788 107.869 8.14106H106.167L106.554 5.68823H108.291L109.283 0.604808H112.401ZM119.897 8.21512C119.425 11.2007 118.205 14.1531 117.191 15.8587C117.942 16.7114 119.089 17.3866 120.293 17.3866V17.3884C122.137 17.3884 123.003 15.8586 122.681 14.0107C122.356 11.9481 121.081 9.92066 119.897 8.21512ZM84.161 8.10782C81.5397 8.10782 80.3983 11.5207 80.9385 14.6137C81.1622 15.8933 82.0034 17.0655 83.3143 17.0663C85.1934 17.0658 86.1978 14.5059 86.7953 9.60069C86.257 8.74792 85.2247 8.10782 84.161 8.10782Z" fill="currentColor"/>
	</symbol>
	<symbol id="mkbd-arts-logo-2" viewBox="0 0 155 32">
		<path fill-rule="evenodd" clip-rule="evenodd" d="M132.109 4.87416C132.055 4.82825 132.066 4.68232 132.199 4.73313C132.858 4.98557 133.317 5.38388 133.774 5.75268C134.304 5.67728 134.999 5.65925 135.465 6.20347C135.786 6.57885 136.294 7.67878 136.737 8.6623C136.943 9.12293 137.707 9.5132 138.428 9.25748C138.497 9.22962 138.566 9.19837 138.635 9.1656C138.66 9.15249 138.682 9.14097 138.704 9.13278C140.632 8.1935 142.886 5.87565 145.435 5.87563H153.943C154.644 5.87563 154.998 6.23793 154.998 6.7018H155C155 7.35912 154.102 8.19838 152.52 8.40986C152.68 8.54755 152.762 8.73943 152.762 8.95253C152.762 9.5656 151.944 10.3311 150.502 10.5376C150.644 10.6655 150.717 10.8393 150.717 11.0278C150.717 11.5851 149.976 12.2883 148.667 12.4916C148.787 12.608 148.849 12.7621 148.849 12.9292C148.849 13.1358 148.735 13.3703 148.51 13.5883C145.34 16.7667 141.917 16.8635 139.95 16.4094C139.127 16.2192 138.541 15.8913 138.159 15.4963C138.323 14.8259 138.086 14.0226 138.086 14.0226C137.989 15.1815 137.481 16.3209 137.481 16.3209C137.889 18.2649 139.945 20.5811 140.107 21.2139C140.245 21.745 139.895 22.3875 139.363 22.5875L139.189 22.6532C139.112 22.9007 138.991 23.0974 138.868 23.2285C138.697 23.4088 138.395 23.5826 138.23 23.6711L137.945 23.8235C137.871 24.1316 137.717 24.3792 137.555 24.5415C137.405 24.6923 137.123 24.8711 136.85 24.9809C136.61 25.4956 136.063 25.8562 135.425 25.8562C134.788 25.8562 134.24 25.4956 134.001 24.9809C133.728 24.8711 133.445 24.6906 133.296 24.5415C133.135 24.3808 132.981 24.1317 132.906 23.8235L132.62 23.6711C132.455 23.5826 132.153 23.4088 131.983 23.2285C131.86 23.0974 131.738 22.9007 131.661 22.6532L131.488 22.5875C130.955 22.3875 130.607 21.745 130.743 21.2139C130.904 20.5844 132.953 18.2748 133.366 16.334C133.366 16.334 132.861 15.1815 132.765 14.0226C132.765 14.0226 132.527 14.8259 132.691 15.4963C132.309 15.8913 131.724 16.2192 130.901 16.4094C128.933 16.8651 125.511 16.7683 122.34 13.5883C122.117 13.3703 122.001 13.1358 122.001 12.9292C122.001 12.7621 122.062 12.608 122.183 12.4916C120.873 12.2883 120.134 11.5851 120.134 11.0278C120.134 10.8393 120.206 10.6655 120.349 10.5376C118.906 10.3311 118.088 9.5656 118.088 8.95253C118.088 8.73943 118.17 8.54755 118.331 8.40986C116.749 8.19839 115.85 7.35912 115.85 6.7018C115.85 6.23793 116.205 5.87563 116.906 5.87563H125.414C128.515 5.87563 131.184 9.30971 133.353 9.50977C133.224 9.79499 133.037 10.1245 133.037 10.477C133.238 10.0868 133.533 9.77537 133.622 9.52129C133.848 8.87711 133.612 8.35262 133.297 7.93954C133.048 7.6117 133.073 7.32308 132.855 6.96737C132.645 6.62479 131.896 6.29861 131.401 6.10518C131.334 6.08223 131.274 5.96266 131.412 5.96591C131.924 5.97902 132.429 6.12486 132.933 6.35763C133.092 6.43303 133.251 6.5166 133.412 6.60511C133.417 6.60839 133.42 6.60847 133.424 6.60847H133.438C133.499 6.59208 133.394 6.33468 133.293 6.18714C133.137 5.96093 132.581 5.27413 132.109 4.87416ZM136.848 17.5616C136.694 18.26 137.273 23.0827 137.273 23.0827C137.273 23.0827 137.766 22.8186 137.938 22.6367C138.11 22.4547 138.355 21.9515 138.22 21.2861C138.084 20.6091 137.694 19.6828 137.414 19.0419C137.043 18.1944 136.848 17.56 136.848 17.56V17.5616ZM133.997 17.5584C133.997 17.5605 133.802 18.1942 133.432 19.0403C133.151 19.6812 132.763 20.6073 132.625 21.2843C132.491 21.9498 132.735 22.4531 132.907 22.6351C133.079 22.817 133.573 23.0809 133.573 23.0809V23.0793C133.575 23.0633 134.151 18.2573 133.997 17.5584ZM120.16 7.41336C121.04 8.30997 122.006 8.93277 123.039 9.27045C124.703 9.81467 126.376 10.118 128.016 10.1754C127.814 9.66559 127.658 9.23275 127.558 8.9426C127.099 7.61162 125.232 7.41336 124.683 7.41336H120.16ZM146.161 7.41336C145.613 7.41336 143.745 7.61327 143.286 8.9426C143.186 9.23111 143.03 9.66559 142.828 10.1754C144.469 10.118 146.141 9.81466 147.805 9.27045H147.803C148.836 8.93277 149.803 8.31001 150.682 7.41336H146.161ZM134.879 6.50682C134.761 6.36913 134.553 6.35278 134.415 6.4708C134.278 6.58883 134.261 6.79687 134.379 6.93456C134.497 7.07225 134.706 7.08876 134.843 6.97074C134.981 6.85272 134.997 6.64451 134.879 6.50682Z" fill="currentColor"/>
		<path fill-rule="evenodd" clip-rule="evenodd" d="M26.9876 5.86426C26.4795 8.39521 25.927 11.2311 25.486 13.4719L25.0993 16.0798L25.1697 16.0716C27.5893 15.6438 28.9122 14.0914 29.5827 10.8884H32.1679C31.5663 13.8144 30.5564 16.6979 27.3123 17.8503C27.7467 19.4682 28.0598 21.0893 29.8598 21.0893C31.6597 21.0893 33.5957 18.5238 34.1711 15.288V15.2832C34.6366 12.1212 35.2185 8.9968 35.7923 5.86426H38.5675C38.0921 8.069 37.6152 10.3591 37.1775 12.4949C37.8381 11.4229 39.2037 10.6033 40.5856 10.6033C42.5642 10.6033 44.1068 12.2425 44.5199 14.6062C44.5642 14.8554 44.6182 15.2357 44.6313 15.4193C46.0362 15.2177 47.5575 14.462 48.1952 13.2211C49.0788 11.6146 50.5279 10.5442 52.3688 10.5442C53.6901 10.5442 55.0933 11.3639 55.6884 12.2491C56.072 10.1082 56.4245 7.98376 56.7573 5.86426H59.4751C57.1539 18.132 56.6671 20.9663 58.0604 20.9664C58.9735 20.9664 60.303 19.3878 61.0292 17.7765L61.0276 17.7749L62.8668 19.2912C62.157 20.9959 60.3308 23.5236 57.8179 23.5547H57.7866C56.2129 23.5547 55.3474 22.3859 55.0245 21.4385C54.5655 22.4171 53.6934 23.5547 51.7738 23.5547C49.5689 23.5547 47.8428 21.5975 47.3739 18.9124C47.2657 18.2928 47.2199 17.6765 47.2297 17.0732C46.4363 17.5011 45.4855 17.8093 44.4708 17.8584C43.915 20.8598 41.9625 23.6186 38.9905 23.6186C37.4807 23.6186 35.2743 22.8432 34.3678 20.2763V20.2795C33.4629 22.2875 31.5088 23.4432 29.7072 23.4432C27.4811 23.4431 26.0057 21.7696 25.1991 18.3289L24.7549 18.3813L24.3238 21.2974C24.214 21.94 24.119 22.581 24.0403 23.2088L21.3764 23.24C21.4666 22.6384 21.5632 22.0401 21.655 21.4385C20.6665 22.8597 18.8944 23.5661 17.4256 23.5661C15.6667 23.5661 14.4684 22.463 14.188 20.8566C13.7635 18.4305 15.6994 15.6569 15.4125 14.0176C15.3076 13.4194 14.9585 13.0407 14.3307 13.0407C11.5046 13.0407 10.3095 19.155 9.83079 23.2514H7.06704C8.21289 17.0437 8.57017 15.3111 8.35543 14.0817C8.24559 13.4522 7.82919 13.0424 7.26363 13.0424C4.53098 13.0425 3.22775 18.7158 2.73269 23.2531H0C0.662271 19.1256 1.29171 14.9963 1.99004 10.8983H4.631L4.13105 13.6078C5.07364 11.8113 6.58674 10.5818 8.28339 10.5818C9.82264 10.5818 10.9685 11.749 11.0111 13.6078C11.9209 11.6211 13.4979 10.5818 15.1634 10.5818C16.7011 10.5818 17.8879 11.6212 18.1896 13.1654C18.6059 15.3718 16.5962 18.6174 16.8716 20.1927C16.9601 20.6976 17.2913 20.9811 17.7945 20.9811C19.6239 20.9811 21.5617 19.019 22.3944 16.2455C22.4698 15.8652 22.5467 15.5438 22.6254 15.3143C23.1369 12.1621 23.6616 9.01318 24.1845 5.86426H26.9876ZM39.9036 12.9981C38.4906 12.9981 37.1463 14.48 36.8053 16.8437C36.3791 19.8058 37.4743 21.0352 38.6988 21.0352V21.0336C40.7102 21.0336 42.2462 17.5993 41.7675 14.8569C41.5593 13.6603 40.7511 12.9981 39.9036 12.9981ZM52.9573 13.008C50.6279 13.008 49.6345 15.9766 50.1082 18.6928C50.3115 19.8615 51.0393 20.9664 52.2049 20.9664H52.2065C53.8736 20.9664 54.7999 18.6928 55.2982 14.3341C54.8196 13.5768 53.9015 13.008 52.9573 13.008Z" fill="currentColor"/>
		<path fill-rule="evenodd" clip-rule="evenodd" d="M99.6051 6.40181C99.2362 8.07054 98.9296 9.55247 98.6641 10.9065H101.397L101.023 13.08H98.2592C97.2658 18.719 97.474 20.9877 99.169 20.9877C100.39 20.9877 101.893 18.9091 103.002 16.0012C103.661 14.1997 104.095 12.3654 104.411 10.1819H107.238C108.252 12.0408 111.077 15.4439 111.578 18.4994L111.575 18.501C112.011 21.1778 110.582 23.6039 107.379 23.6039C105.634 23.6039 103.569 22.7957 102.315 21.4204C101.38 22.6613 100.218 23.5711 98.8952 23.5711C96.6101 23.5711 95.5543 22.1925 95.2084 20.0599C94.1757 21.9319 92.6904 23.5711 90.9823 23.5711C89.1611 23.571 87.9513 22.217 87.6759 20.6418C87.3251 18.6255 88.0481 16.2945 88.7644 13.7423C88.0989 13.7095 87.0775 13.6161 86.1595 13.3948C85.4809 16.7027 84.2678 19.2861 83.017 21.1138C82.9777 21.1679 82.9384 21.2172 82.899 21.2648C81.9466 22.5843 80.7416 23.5711 79.3646 23.5711C77.7631 23.571 76.8992 22.4056 76.609 21.4598C76.1205 22.4367 75.2828 23.5711 73.3665 23.5711C71.1682 23.571 69.4569 21.681 68.9897 19.0025C68.252 14.7816 70.3469 10.5918 73.9271 10.5918C75.2451 10.5918 76.6451 11.4113 77.2385 12.2932L77.4991 10.9065H80.1991C78.7008 18.8763 78.3795 20.9877 79.6352 20.9877C80.2646 20.9877 80.9745 20.4353 81.6646 19.5042C83.3498 17.0159 84.0088 13.2866 84.1629 9.86723H86.6119C86.5955 10.3081 86.5415 10.7179 86.5186 11.1277C88.0808 11.4424 90.7709 11.5687 91.9905 11.5375C91.2528 14.1521 90.0693 18.342 90.3496 19.9484C90.466 20.609 90.8135 20.9877 91.3479 20.9877C92.6233 20.9876 94.4035 18.0486 95.2592 15.3586C95.3461 14.6193 95.4593 13.857 95.5888 13.08H94.0806L94.4232 10.9065H95.9624L96.8412 6.40181H99.6051ZM106.247 13.1441C105.829 15.7897 104.747 18.4059 103.849 19.9172C104.515 20.6729 105.531 21.2712 106.598 21.2712V21.2729C108.233 21.2729 109 19.9172 108.715 18.2796C108.426 16.4519 107.297 14.6554 106.247 13.1441ZM74.5796 13.049C72.2567 13.049 71.2453 16.0733 71.724 18.8141C71.9223 19.9481 72.6678 20.9869 73.8294 20.9875C75.4946 20.9869 76.3846 18.7184 76.914 14.3717C76.437 13.6161 75.5222 13.049 74.5796 13.049Z" fill="currentColor"/>
	</symbol>
	<symbol id="mkbd-logo" viewBox="0 0 71 58">
		<path fill-rule="evenodd" clip-rule="evenodd" d="M30.0032 24.9825C29.9199 24.9121 29.9385 24.688 30.1421 24.7657C31.1548 25.1526 31.8584 25.7656 32.56 26.3321C33.3728 26.2173 34.441 26.1895 35.1556 27.0244C35.6499 27.602 36.4313 29.2887 37.1089 30.7994C37.4256 31.5066 38.5992 32.1064 39.7045 31.7139C39.81 31.6695 39.9155 31.6232 40.021 31.5733C40.0581 31.5529 40.0933 31.5361 40.1266 31.5232C43.0851 30.0828 46.5453 26.5245 50.4572 26.5245H63.5168C64.5943 26.5245 65.1385 27.0818 65.1385 27.7928L65.1441 27.789C65.1441 28.7961 63.7666 30.0866 61.3376 30.4105C61.5857 30.6234 61.7099 30.916 61.7099 31.2437C61.7099 32.186 60.4546 33.3617 58.2404 33.6783C58.4588 33.8745 58.57 34.1392 58.57 34.4299C58.57 35.2833 57.435 36.3645 55.4263 36.6755C55.6114 36.8551 55.7058 37.0904 55.7058 37.3478C55.7057 37.6643 55.5281 38.0254 55.1838 38.3586C50.3166 43.2388 45.0641 43.3868 42.0445 42.6889C40.7819 42.3964 39.884 41.8927 39.2971 41.2873C39.5482 40.2626 39.1863 39.0317 39.1843 39.025C39.0366 40.7994 38.2608 42.5444 38.2566 42.5536C38.8824 45.538 42.039 49.0946 42.2871 50.0647C42.4963 50.8793 41.9613 51.866 41.1431 52.1733L40.8764 52.2733C40.756 52.6529 40.5709 52.9566 40.3821 53.1565C40.121 53.4324 39.6563 53.7008 39.4027 53.836L38.9639 54.0692C38.8491 54.5431 38.6121 54.9245 38.364 55.1726C38.1344 55.4022 37.7013 55.6781 37.281 55.8466C36.9126 56.6371 36.0738 57.1907 35.0945 57.1907C34.1152 57.1906 33.2747 56.6371 32.9081 55.8466C32.4878 55.6781 32.0547 55.4022 31.8251 55.1726C31.577 54.9245 31.34 54.5431 31.2252 54.0692L30.7864 53.836C30.5328 53.7008 30.0681 53.4324 29.807 53.1565C29.6182 52.9566 29.4312 52.6529 29.3127 52.2733L29.0461 52.1733C28.226 51.866 27.6928 50.8811 27.902 50.0647C28.1501 49.0964 31.2937 45.5529 31.9287 42.5741C31.9266 42.5692 31.1527 40.8035 31.0048 39.0268C31.0048 39.0268 30.6403 40.2616 30.892 41.2891C30.3051 41.8945 29.4071 42.3982 28.1444 42.6907C25.1248 43.3886 19.8725 43.2406 15.0053 38.3604C14.661 38.0272 14.4834 37.668 14.4833 37.3496C14.4833 37.0922 14.5777 36.8571 14.7629 36.6775C12.7542 36.3684 11.6192 35.2872 11.6191 34.4318C11.6191 34.143 11.7303 33.8763 11.9487 33.6801C9.73451 33.3617 8.47923 32.186 8.47923 31.2455C8.47926 30.9178 8.60511 30.6252 8.85132 30.4123C6.42243 30.0883 5.04504 28.7999 5.04498 27.791C5.04498 27.08 5.58927 26.5227 6.66674 26.5227H19.7263C24.488 26.5227 28.5815 31.7953 31.9121 32.1008C31.714 32.5377 31.4252 33.0433 31.4252 33.5839C31.7362 32.986 32.1878 32.5083 32.3248 32.1176C32.671 31.129 32.3082 30.3218 31.8269 29.6886C31.4437 29.1869 31.4807 28.7425 31.1475 28.1963C30.8253 27.6687 29.6775 27.1708 28.9166 26.8727C28.8111 26.8394 28.7203 26.6542 28.9332 26.6597C29.7163 26.6819 30.492 26.9041 31.2677 27.2614C31.5121 27.378 31.7566 27.5039 32.0028 27.6409C32.0084 27.6446 32.0139 27.6447 32.0195 27.6447H32.0417C32.1379 27.6168 31.975 27.2244 31.8195 26.9967C31.5825 26.6505 30.7289 25.5971 30.0032 24.9825ZM32.9063 44.4607C32.9037 44.4691 32.6056 45.442 32.0379 46.736C31.6084 47.7191 31.0105 49.1409 30.7994 50.1795C30.5921 51.1996 30.9679 51.9717 31.2308 52.2513C31.4931 52.5301 32.249 52.9324 32.2527 52.9343L32.2545 52.9361C32.2572 52.914 33.1428 45.5332 32.9063 44.4607ZM37.2819 44.4614C37.0484 45.5512 37.9346 52.9325 37.9346 52.9325C37.9414 52.9289 38.6948 52.5276 38.9565 52.2493C39.2194 51.9716 39.5952 51.1978 39.3879 50.1777C39.1768 49.1391 38.5787 47.7171 38.1492 46.734C37.5964 45.4721 37.2995 44.5182 37.2819 44.4614ZM11.6692 28.885C13.0189 30.2605 14.5017 31.2178 16.0865 31.7362C18.6395 32.5693 21.2075 33.0377 23.7254 33.1247C23.4162 32.3416 23.1774 31.677 23.0237 31.2326C22.3183 29.1906 19.4522 28.885 18.6099 28.885H11.6692ZM51.5755 28.885C50.7331 28.885 47.8672 29.1906 47.1618 31.2326C47.0082 31.677 46.7693 32.3416 46.4601 33.1247C48.978 33.0377 51.5458 32.5711 54.0988 31.7362C55.6836 31.2178 57.1666 30.2605 58.5163 28.885H51.5755ZM34.2595 27.4946C34.0781 27.2818 33.7579 27.2577 33.5468 27.4391C33.3339 27.6206 33.3099 27.9408 33.4913 28.1518C33.6728 28.3647 33.993 28.3889 34.204 28.2075C34.4169 28.0261 34.441 27.7057 34.2595 27.4946Z" fill="currentColor"/>
		<path fill-rule="evenodd" clip-rule="evenodd" d="M30.4791 0C29.9051 2.85851 29.2812 6.06141 28.7832 8.59223L28.3464 11.5378L28.4259 11.5284C31.1585 11.0452 32.6526 9.29203 33.4098 5.67452H36.3295C35.6501 8.97918 34.5095 12.2357 30.8457 13.5372C31.3363 15.3645 31.69 17.1955 33.7228 17.1955C35.7555 17.1954 37.942 14.2981 38.5918 10.6436V10.638C39.1176 7.06667 39.7748 3.53796 40.4228 0H43.5571C43.0202 2.49009 42.4815 5.0765 41.9872 7.48882C42.7333 6.27803 44.2755 5.35234 45.8362 5.35234C48.0708 5.35234 49.8129 7.2037 50.2795 9.87336C50.3295 10.1548 50.3905 10.5843 50.4053 10.7916C51.992 10.5639 53.7101 9.71041 54.4302 8.30892C55.4281 6.49459 57.0647 5.28562 59.1438 5.28562C60.636 5.28562 62.2208 6.21138 62.8928 7.21112C63.3261 4.79323 63.7242 2.39382 64.1 0H67.1694C64.5479 13.8555 63.9981 17.0566 65.5717 17.0566C66.6029 17.0566 68.1045 15.2738 68.9246 13.4539L68.9228 13.4521L71 15.1646C70.1984 17.09 68.1359 19.9448 65.2978 19.98H65.2626C63.4853 19.9799 62.5078 18.6599 62.1431 17.5898C61.6247 18.6951 60.6397 19.98 58.4718 19.98C55.9817 19.98 54.0322 17.7694 53.5028 14.7368C53.3806 14.037 53.3287 13.3409 53.3399 12.6596C52.4438 13.1428 51.37 13.4909 50.224 13.5465C49.5964 16.9363 47.3913 20.0521 44.0347 20.0521C42.3296 20.0521 39.8378 19.1764 38.814 16.2772V16.281C37.7921 18.5489 35.5851 19.8541 33.5505 19.8541C31.0363 19.8541 29.3701 17.9638 28.4592 14.0778L27.9575 14.1371L27.4706 17.4307C27.3466 18.1564 27.2393 18.8802 27.1504 19.5893L24.1419 19.6245C24.2437 18.9451 24.3528 18.2693 24.4565 17.5898C23.3401 19.1949 21.3388 19.993 19.68 19.993C17.6935 19.993 16.3401 18.7469 16.0236 16.9326C15.5441 14.1926 17.7304 11.0601 17.4065 9.20875C17.288 8.533 16.8937 8.10534 16.1847 8.10534C12.9929 8.10536 11.6432 15.011 11.1026 19.6375H7.98132C9.27542 12.6264 9.67891 10.6694 9.43638 9.28089C9.31233 8.56998 8.84205 8.10715 8.20334 8.10715C5.11716 8.10726 3.64533 14.5148 3.08622 19.6393H0C0.747953 14.9757 1.45881 10.314 2.2475 5.68555H5.23012L4.66549 8.74591C5.73002 6.71681 7.43885 5.32829 9.35502 5.32829C11.0934 5.32832 12.3875 6.64648 12.4356 8.74591C13.4631 6.50205 15.2442 5.32829 17.1252 5.32829C18.8617 5.32829 20.2021 6.50201 20.5428 8.246C21.013 10.7379 18.7432 14.4037 19.0543 16.1828C19.1543 16.753 19.5282 17.0733 20.0966 17.0733C22.1627 17.0733 24.3511 14.8572 25.2916 11.7247C25.3768 11.2953 25.4637 10.9324 25.5525 10.6732C26.1301 7.11303 26.7227 3.55648 27.3133 0H30.4791ZM45.066 8.05707C43.4701 8.05708 41.9519 9.73089 41.5668 12.4006C41.0855 15.7459 42.3224 17.1344 43.7053 17.1344V17.1326C45.9769 17.1325 47.7116 13.254 47.171 10.1567C46.9359 8.80518 46.0232 8.05707 45.066 8.05707ZM59.8084 8.06828C57.1777 8.06831 56.0558 11.4211 56.5908 14.4888C56.8204 15.8088 57.6424 17.0566 58.9587 17.0566H58.9605C60.8433 17.0566 61.8894 14.4888 62.4522 9.56601C61.9116 8.71068 60.8748 8.06828 59.8084 8.06828Z" fill="currentColor"/>
	</symbol>
	<symbol id="mkbd-logo-2" viewBox="0 0 104 32">
		<path fill-rule="evenodd" clip-rule="evenodd" d="M81.3237 4.8681C81.2697 4.82208 81.2811 4.67574 81.4138 4.72669C82.0724 4.97981 82.5311 5.37916 82.9882 5.74898C83.5173 5.67338 84.2119 5.65536 84.6771 6.20098C84.9982 6.57736 85.5061 7.68026 85.9484 8.66641C86.1548 9.12826 86.9183 9.51957 87.6391 9.26319C87.7079 9.23525 87.7767 9.20392 87.8455 9.17106C87.87 9.15791 87.893 9.14637 87.9143 9.13815C89.8408 8.19635 92.0935 5.87225 94.641 5.87225H103.143C103.844 5.87225 104.198 6.23553 104.198 6.70064H104.2C104.2 7.35974 103.302 8.20126 101.721 8.41329C101.882 8.55135 101.964 8.74375 101.964 8.95742C101.964 9.57212 101.146 10.3397 99.7048 10.5468C99.8473 10.675 99.9193 10.8493 99.9193 11.0383C99.9193 11.5971 99.1788 12.3022 97.8715 12.506C97.9911 12.6227 98.0534 12.7772 98.0534 12.9448C98.0534 13.1519 97.9387 13.387 97.7142 13.6056C94.5459 16.7926 91.1253 16.8896 89.1594 16.4343C88.337 16.2436 87.7522 15.9149 87.3705 15.5188C87.5343 14.8465 87.2967 14.0411 87.2967 14.0411C87.2001 15.2031 86.6921 16.3455 86.6921 16.3455C87.1001 18.2949 89.1545 20.6173 89.3167 21.2517C89.4543 21.7842 89.1053 22.4285 88.5729 22.629L88.3992 22.6948C88.3222 22.943 88.2009 23.1402 88.0781 23.2717C87.9077 23.4525 87.6063 23.6268 87.4409 23.7155L87.1558 23.8683C87.0821 24.1773 86.9281 24.4255 86.7659 24.5882C86.6168 24.7394 86.3351 24.9187 86.0615 25.0288C85.8223 25.5449 85.275 25.9065 84.6378 25.9065C84.0006 25.9065 83.4534 25.5449 83.2143 25.0288C82.9423 24.9187 82.6589 24.7378 82.5098 24.5882C82.3493 24.4271 82.1952 24.1773 82.1198 23.8683L81.8349 23.7155C81.6694 23.6268 81.3679 23.4525 81.1975 23.2717C81.0746 23.1402 80.9534 22.943 80.8764 22.6948L80.7028 22.629C80.1704 22.4285 79.8231 21.7842 79.9591 21.2517C80.1196 20.6205 82.1674 18.3047 82.5802 16.3587C82.5802 16.3587 82.0757 15.2031 81.979 14.0411C81.979 14.0411 81.7414 14.8465 81.9053 15.5188C81.5236 15.9149 80.9387 16.2436 80.1163 16.4343C78.1505 16.8912 74.7298 16.7942 71.5615 13.6056C71.3387 13.387 71.2223 13.1519 71.2223 12.9448C71.2223 12.7772 71.283 12.6227 71.4042 12.506C70.0953 12.3022 69.3565 11.5971 69.3564 11.0383C69.3564 10.8493 69.4285 10.675 69.571 10.5468C68.1293 10.3397 67.3119 9.57213 67.3118 8.95742C67.3118 8.74375 67.3938 8.55135 67.5544 8.41329C65.9735 8.20126 65.0757 7.35974 65.0757 6.70064C65.0758 6.23553 65.4296 5.87225 66.1307 5.87225H74.6332C77.7327 5.87229 80.3997 9.31563 82.5671 9.51615C82.4377 9.80214 82.251 10.1326 82.251 10.486C82.4525 10.0948 82.7473 9.78246 82.8357 9.52771C83.0618 8.8818 82.826 8.35589 82.5114 7.94171C82.2624 7.61298 82.287 7.3236 82.0691 6.96693C81.8594 6.62342 81.1107 6.29636 80.616 6.10242C80.5488 6.0794 80.4899 5.95949 80.6275 5.96278C81.1386 5.97593 81.6432 6.12216 82.1478 6.35555C82.3067 6.43115 82.4656 6.51495 82.6262 6.6037C82.631 6.60695 82.6343 6.60707 82.6375 6.60707H82.6522C82.7128 6.59063 82.6081 6.33253 82.5065 6.1846C82.3508 5.95778 81.7955 5.26914 81.3237 4.8681ZM86.0599 17.5897C85.9059 18.2898 86.4842 23.1255 86.4842 23.1255C86.4862 23.1244 86.9776 22.8604 87.1492 22.6783C87.3212 22.4959 87.5654 21.9913 87.4311 21.3241C87.2951 20.6453 86.9051 19.7165 86.625 19.0739C86.2547 18.2242 86.0599 17.588 86.0599 17.588V17.5897ZM83.2093 17.5864C83.2081 17.5904 83.0131 18.2252 82.6441 19.0723C82.3639 19.7149 81.9757 20.6435 81.8381 21.3223C81.7037 21.9896 81.9478 22.4942 82.1198 22.6767C82.2913 22.8586 82.7819 23.1221 82.785 23.1237V23.1221C82.7868 23.107 83.363 18.2872 83.2093 17.5864ZM69.3825 7.41411C70.2622 8.31317 71.2273 8.9376 72.2593 9.27619C73.9222 9.82187 75.5949 10.126 77.2331 10.1836C77.0316 9.67239 76.8759 9.23839 76.776 8.94747C76.3173 7.61293 74.4514 7.41413 73.9025 7.41411H69.3825ZM95.3666 7.41411C94.8195 7.41412 92.9519 7.61455 92.4932 8.94747C92.3932 9.23674 92.2376 9.67239 92.0361 10.1836C93.676 10.126 95.347 9.82187 97.0098 9.27619H97.0082C98.0403 8.9376 99.0068 8.31313 99.8849 7.41411H95.3666ZM84.0922 6.50514C83.9743 6.36709 83.7664 6.3507 83.6288 6.46903C83.4912 6.58735 83.4747 6.79596 83.5926 6.93403C83.7106 7.07208 83.9186 7.08861 84.0563 6.9703C84.1939 6.85196 84.2102 6.64321 84.0922 6.50514Z" fill="currentColor"/>
		<path fill-rule="evenodd" clip-rule="evenodd" d="M26.9703 5.86085C26.4624 8.3986 25.9103 11.2421 25.4696 13.4889L25.0831 16.1038L25.1535 16.0956C27.5715 15.6666 28.8936 14.1101 29.5636 10.8985H32.1472C31.546 13.8323 30.5368 16.7236 27.2947 17.8791C27.7288 19.5013 28.0418 21.1268 29.8405 21.1268C31.6393 21.1268 33.5741 18.5544 34.1491 15.3099V15.3051C34.6143 12.1346 35.1958 9.0018 35.7692 5.86085H38.5427C38.0676 8.07151 37.591 10.3677 37.1536 12.5093C37.8138 11.4344 39.1784 10.6126 40.5595 10.6126C42.5368 10.6126 44.0784 12.2562 44.4912 14.6263C44.5355 14.8761 44.5895 15.2575 44.6026 15.4415C46.0065 15.2394 47.5269 14.4816 48.1642 13.2374C49.0472 11.6267 50.4954 10.5534 52.3351 10.5534C53.6555 10.5534 55.0578 11.3752 55.6525 12.2628C56.0359 10.1162 56.3882 7.98605 56.7207 5.86085H59.4368C57.1171 18.1615 56.6306 21.0035 58.023 21.0035C58.9355 21.0035 60.2642 19.4207 60.9899 17.8051L60.9883 17.8035L62.8264 19.3238C62.117 21.0332 60.292 23.5676 57.7806 23.5988H57.7494C56.1768 23.5988 55.3118 22.4269 54.9891 21.4769C54.5304 22.4581 53.6588 23.5988 51.7404 23.5988C49.537 23.5988 47.812 21.6363 47.3434 18.944C47.2353 18.3228 47.1895 17.7048 47.1993 17.0999C46.4064 17.5289 45.4562 17.8379 44.4421 17.8872C43.8868 20.8967 41.9355 23.6629 38.9654 23.6629C37.4566 23.6629 35.2516 22.8854 34.3457 20.3116V20.3148C33.4414 22.3282 31.4885 23.487 29.6881 23.487C27.4634 23.4869 25.9889 21.8089 25.1829 18.359L24.739 18.4115L24.3081 21.3355C24.1984 21.9798 24.1034 22.6225 24.0248 23.252L21.3627 23.2833C21.4528 22.6801 21.5493 22.0801 21.641 21.4769C20.6532 22.9019 18.8823 23.6102 17.4144 23.6102C15.6566 23.6102 14.4591 22.5042 14.1789 20.8934C13.7546 18.4609 15.6893 15.6797 15.4026 14.0361C15.2978 13.4362 14.9489 13.0565 14.3215 13.0565C11.4972 13.0565 10.3028 19.1873 9.82446 23.2947H7.0625C8.20761 17.0703 8.56465 15.333 8.35005 14.1003C8.24028 13.4692 7.82415 13.0583 7.25896 13.0583C4.52806 13.0584 3.22567 18.7469 2.73093 23.2964H0C0.661845 19.1578 1.29088 15.0175 1.98876 10.9084H4.62802L4.12839 13.6252C5.07038 11.8238 6.5825 10.5911 8.27805 10.5911C9.81631 10.5911 10.9614 11.7614 11.004 13.6252C11.9132 11.6332 13.4893 10.5911 15.1537 10.5911C16.6904 10.5911 17.8764 11.6333 18.1779 13.1816C18.5939 15.3939 16.5855 18.6483 16.8607 20.2278C16.9492 20.734 17.2801 21.0183 17.783 21.0183C19.6113 21.0183 21.5478 19.0509 22.38 16.2699C22.4554 15.8886 22.5322 15.5664 22.6109 15.3363C23.122 12.1756 23.6464 9.01823 24.1689 5.86085H26.9703ZM39.8779 13.0138C38.4658 13.0138 37.1224 14.4997 36.7816 16.8698C36.3557 19.8398 37.4501 21.0726 38.6739 21.0726V21.071C40.684 21.0709 42.219 17.6274 41.7406 14.8777C41.5326 13.6779 40.7249 13.0138 39.8779 13.0138ZM52.9232 13.0238C50.5953 13.0238 49.6025 16.0003 50.076 18.7238C50.2791 19.8957 51.0065 21.0035 52.1713 21.0035H52.1729C53.839 21.0035 54.7646 18.7238 55.2626 14.3534C54.7843 13.5941 53.8668 13.0238 52.9232 13.0238Z" fill="currentColor"/>
	</symbol>
	<symbol id="mkbd-sm-bird" viewBox="0 0 39 32">
		<path d="M39.0001 6.73201C39.0001 6.2686 38.6461 5.90532 37.944 5.90532H29.4362C26.8874 5.90532 24.6332 8.22354 22.7062 9.162C22.6841 9.17015 22.662 9.18179 22.6375 9.1946C22.5688 9.2272 22.5001 9.25748 22.4314 9.28659C21.7107 9.54274 20.9457 9.15152 20.7396 8.6916C20.2984 7.70773 19.7884 6.60859 19.467 6.2325C19.0013 5.68875 18.3062 5.70622 17.7764 5.7819C17.32 5.4128 16.8612 5.01343 16.201 4.76193C16.0683 4.7107 16.0566 4.85741 16.1102 4.90282C16.5829 5.30336 17.1383 5.98916 17.2943 6.2162C17.3956 6.36408 17.5016 6.62023 17.4399 6.6377C17.4399 6.6377 17.4387 6.6377 17.4376 6.6377C17.4341 6.6377 17.4294 6.6377 17.4248 6.6377C17.4213 6.6377 17.4178 6.6377 17.4143 6.63537C17.2536 6.54571 17.0941 6.46304 16.9346 6.38736C16.4292 6.15449 15.9239 6.00895 15.4139 5.99498C15.2754 5.99148 15.3347 6.11258 15.4023 6.13353C15.8983 6.32682 16.6458 6.65283 16.8554 6.99632C17.0731 7.35261 17.0487 7.64136 17.2978 7.96855C17.6122 8.38072 17.8474 8.90701 17.6215 9.55089C17.5319 9.80589 17.2385 10.1156 17.0359 10.5057C17.0359 10.154 17.2233 9.82451 17.3526 9.53925C15.1834 9.34015 12.5159 5.90532 9.41404 5.90532H0.90616C0.204059 5.90532 -0.149902 6.26743 -0.149902 6.73201C-0.149902 7.3887 0.747809 8.22936 2.33016 8.44011C2.16948 8.57866 2.08797 8.76962 2.08797 8.98269C2.08797 9.5963 2.90534 10.3624 4.34797 10.5685C4.20592 10.6966 4.13373 10.8689 4.13373 11.0587C4.13373 11.6153 4.87309 12.3197 6.18182 12.5223C6.06072 12.6387 5.99901 12.7924 5.99901 12.9601C5.99901 13.1674 6.11545 13.4014 6.339 13.6191C9.50952 16.799 12.9315 16.8956 14.8993 16.4415C15.7213 16.2517 16.307 15.9234 16.6889 15.5287C16.5247 14.8592 16.7622 14.0546 16.7622 14.0546C16.8589 15.2143 17.3642 16.3658 17.3642 16.3658C16.9509 18.3068 14.9028 20.6157 14.7409 21.2468C14.6047 21.7777 14.9528 22.4204 15.4861 22.6207L15.6596 22.6859C15.7376 22.9327 15.8587 23.1307 15.981 23.2611C16.151 23.4416 16.4537 23.6162 16.619 23.7035L16.9043 23.8561C16.9788 24.1646 17.1325 24.4126 17.2943 24.5745C17.4434 24.7235 17.7263 24.9028 17.9999 25.0134C18.2398 25.5281 18.787 25.889 19.4239 25.889C20.0608 25.889 20.6092 25.5292 20.8479 25.0134C21.1216 24.904 21.4045 24.7247 21.5535 24.5745C21.7154 24.4126 21.8691 24.1646 21.9436 23.8561L22.2288 23.7035C22.3942 23.615 22.6969 23.4404 22.8669 23.2611C22.9903 23.1307 23.1114 22.9327 23.1883 22.6859L23.3618 22.6207C23.895 22.4204 24.2432 21.7777 24.1069 21.2468C23.9451 20.6145 21.8889 18.2975 21.4813 16.3542C21.4813 16.3542 21.989 15.2143 22.0856 14.0558C22.0856 14.0558 22.3232 14.8603 22.159 15.5298C22.5409 15.9245 23.1266 16.2529 23.9486 16.4427C25.9163 16.8968 29.3383 16.8013 32.5089 13.6203C32.7324 13.4026 32.8489 13.1685 32.8489 12.9613C32.8489 12.7936 32.7871 12.6411 32.6661 12.5235C33.9748 12.3209 34.7141 11.6164 34.7141 11.0599C34.7141 10.8701 34.642 10.6978 34.4999 10.5697C35.9425 10.3636 36.7599 9.59747 36.7599 8.98386C36.7599 8.76962 36.6784 8.57983 36.5177 8.44127C38.1001 8.23052 38.9978 7.38987 38.9978 6.73317L39.0001 6.73201ZM18.4179 6.50147C18.5565 6.3827 18.7638 6.39901 18.8825 6.53756C19.0013 6.67612 18.985 6.88337 18.8464 7.00214C18.7079 7.1209 18.5006 7.1046 18.3818 6.96604C18.2631 6.82749 18.2794 6.62023 18.4179 6.50147ZM20.8503 17.5907C20.8503 17.5907 21.0447 18.2253 21.4161 19.0729C21.6967 19.7133 22.0856 20.6401 22.223 21.3166C22.3581 21.9815 22.1136 22.4845 21.9413 22.6673C21.7689 22.8489 21.2752 23.1132 21.2752 23.1132C21.2752 23.1132 20.6954 18.2916 20.8503 17.5919V17.5907ZM17.575 23.112C17.575 23.112 17.0813 22.8489 16.9089 22.6661C16.7366 22.4845 16.4933 21.9815 16.6272 21.3155C16.7646 20.639 17.1535 19.7121 17.4341 19.0718C17.8055 18.2241 17.9999 17.5895 17.9999 17.5895C18.1536 18.2882 17.575 23.1109 17.575 23.1109V23.112ZM31.8068 9.30172C30.1441 9.84547 28.4709 10.1494 26.8303 10.2064C27.0318 9.69644 27.1866 9.2633 27.2868 8.97338C27.7467 7.64369 29.6143 7.44459 30.1627 7.44459H34.6839C33.8048 8.33997 32.8384 8.96406 31.8056 9.30172H31.8068ZM4.16517 7.44459H8.68633C9.23473 7.44459 11.1023 7.64369 11.5623 8.97338C11.6624 9.2633 11.8173 9.69644 12.0187 10.2064C10.3793 10.1494 8.70612 9.84547 7.04227 9.30172C6.01066 8.96406 5.04425 8.33997 4.164 7.44459H4.16517Z" fill="currentColor"/>
	</symbol>
	<symbol id="mockingbird-logo-badge" viewBox="0 0 186 126">
		<path d="M6.58892 7.41998C3.05829 7.98639 0.47168 11.0356 0.47168 14.604V35.1458C0.47168 38.195 1.68002 41.112 3.83239 43.2738L80.6 120.041C84.0268 123.468 88.5109 125.177 92.9949 125.177C97.479 125.177 101.973 123.468 105.39 120.041L182.157 43.2738C184.31 41.1215 185.518 38.195 185.518 35.1458V14.604C185.518 11.0356 182.922 7.98639 179.401 7.41998C122.165 -1.84084 63.8059 -1.84084 6.57004 7.41998H6.58892Z" fill="#F8F8F8" stroke="#F8F8F8"/>
		<path d="M82.3847 14.6134C83.678 14.6134 84.6881 13.2068 84.4427 11.8096C84.2728 10.8373 83.4326 10.1576 82.5075 10.1576C81.2141 10.1576 80.2324 11.4887 80.4873 12.9613C80.6572 13.9337 81.3841 14.6134 82.3942 14.6134H82.3847Z" fill="#3B3D42"/>
		<path d="M139.063 14.6134C140.357 14.6134 141.367 13.2068 141.121 11.8096C140.951 10.8373 140.111 10.1576 139.186 10.1576C137.893 10.1576 136.911 11.4887 137.166 12.9613C137.336 13.9337 138.063 14.6134 139.073 14.6134H139.063Z" fill="#3B3D42"/>
		<path d="M173.105 24.6578C172.274 26.4891 170.764 28.2922 169.725 28.2922C168.139 28.2922 168.696 25.0542 171.349 11.0356H168.253C167.875 13.4617 167.469 15.8973 167.025 18.3517C166.346 17.3416 164.75 16.407 163.24 16.407C160.285 16.407 158.218 18.8237 157.585 21.9579C156.594 24.9976 154.593 28.2828 153.148 28.2828C152.535 28.2828 152.138 27.8485 152.006 27.0933C151.685 25.2619 153.035 20.4663 153.885 17.4832C152.487 17.521 149.419 17.3794 147.635 17.0112C147.663 16.5392 147.72 16.0766 147.739 15.5669H144.945C144.765 19.494 144.01 23.7704 142.065 26.6213C142.018 26.6874 141.98 26.7629 141.943 26.829C141.216 27.7447 140.47 28.2733 139.809 28.2733C137.657 28.2733 138.997 22.798 140.206 16.7563H137.015C136.779 17.9835 136.533 19.2108 136.316 20.4002C135.542 21.9107 133.834 22.3732 132.172 21.939C132.153 21.618 132.097 21.2876 132.049 21.0044C131.577 18.3045 129.812 16.4353 127.556 16.4353C125.979 16.4353 124.422 17.3699 123.667 18.5972C124.167 16.1616 124.714 13.5467 125.252 11.0261H122.081C121.429 14.604 120.759 18.1723 120.23 21.7785C118.956 25.7623 117.228 27.9901 114.453 29.5383L116.416 16.7563H113.33L113.103 18.1251C112.253 17.1906 110.752 16.3976 108.93 16.3976C106.042 16.3976 103.946 18.7293 103.446 21.7596C102.133 25.3563 100.349 28.2733 98.8105 28.2733C98.2724 28.2733 97.8948 27.9524 97.791 27.3765C97.4794 25.5735 99.7828 21.939 99.3014 19.3901C98.9521 17.5871 97.5644 16.407 95.8368 16.407C93.9394 16.407 92.1741 17.5965 91.1262 19.8621L91.6643 16.7658H88.6151C88.3225 18.465 88.0393 20.1737 87.7655 21.8823C86.5194 25.564 84.6219 28.2828 83.1304 28.2828C80.978 28.2828 82.3185 22.8075 83.5268 16.7658H80.3361C80.0057 18.4555 79.6658 20.1453 79.4109 21.7407C78.0232 26.2343 75.6632 28.4149 73.5297 28.4149C71.3962 28.4149 71.113 26.5647 70.6221 24.7144C74.3227 23.4022 75.4838 20.1076 76.1635 16.7658H73.2087C72.4441 20.4285 70.9336 22.1939 68.1677 22.6848H68.0827L68.5264 19.7111C69.0267 17.1528 69.6592 13.9148 70.2445 11.0261H67.0443C66.4495 14.6228 65.8454 18.2195 65.2601 21.8163C63.7024 26.357 61.7294 28.566 58.1988 28.566C56.3297 28.566 54.8664 27.3388 54.4794 25.1486C53.9696 22.2316 55.2346 19.173 57.2076 19.173C58.5387 19.173 59.36 20.7967 58.9918 23.0246H62.1448C62.6923 19.7866 60.6344 16.3976 57.1132 16.3976C54.6021 16.3976 52.6669 18.0402 51.7606 20.4285C50.9488 21.9767 49.174 22.4015 47.4842 21.8635L47.437 21.6086C46.9839 19.0125 44.9826 16.3881 41.8295 16.3881C38.6765 16.3881 36.4675 18.6916 35.7689 21.8068C34.4567 25.4035 32.7009 28.2828 31.1244 28.2828C30.5485 28.2828 30.1709 27.9618 30.0671 27.386C29.7555 25.5829 32.0495 21.8823 31.5681 19.3618C31.2282 17.5965 29.8688 16.407 28.1129 16.407C26.2155 16.407 24.4124 17.5965 23.374 19.8621C23.3268 17.7381 22.0146 16.407 20.2587 16.407C18.3235 16.407 16.5959 17.8136 15.5197 19.8621L16.0956 16.7658H13.0842C12.2818 21.4481 11.5643 26.1587 10.8091 30.8788H13.9338C14.5002 25.6962 15.9917 19.2202 19.107 19.2202C19.7489 19.2202 20.2304 19.6922 20.3531 20.4097C20.5986 21.8163 20.1926 23.7893 18.8804 30.8788H22.0335C22.581 26.1965 23.9404 19.2202 27.1689 19.2202C27.8864 19.2202 28.2829 19.6545 28.4056 20.3341C28.736 22.2033 26.527 25.3752 27.0084 28.1412C27.3294 29.9726 28.6982 31.2376 30.709 31.2376C32.8802 31.2376 34.6928 29.1513 35.8917 26.8479C36.6374 29.3873 38.7048 31.2187 41.3764 31.2187C45.1053 31.2187 47.2482 28.0845 47.588 24.4501C48.938 24.7333 50.1935 24.5067 51.2036 24.0253C51.2225 24.5067 51.2697 24.9976 51.3547 25.4885C51.9872 29.123 54.7909 31.2092 58.0195 31.2092C60.9365 31.2092 62.8339 30.2463 64.1556 28.7926C64.0517 29.4817 63.9385 30.1614 63.8346 30.8505L66.8743 30.8128C66.9687 30.0953 67.0726 29.359 67.1953 28.6321L67.6862 25.2997L68.196 25.243C69.1211 29.1702 70.8015 31.0865 73.3409 31.0865C75.3139 31.0865 77.4946 29.5289 79.0333 27.3765C79.2788 29.7083 80.3077 31.2187 82.7999 31.2187C84.2726 31.2187 85.5754 30.2275 86.6327 28.8586C86.5288 29.5289 86.425 30.1897 86.3211 30.86H89.4742C89.8801 26.2154 91.6076 19.2296 94.8739 19.2296C95.6292 19.2296 95.9501 19.6639 96.0728 20.3436C96.4033 22.2127 94.2226 25.3469 94.704 28.1223C95.025 29.9537 96.3561 31.2187 98.3668 31.2187C100.736 31.2187 102.672 28.717 103.852 26.1776C104.711 28.2545 106.523 29.425 108.487 29.425C109.818 29.425 111.205 28.7454 111.895 27.5936L111.394 30.69C106.891 31.1904 101.416 33.0973 102.124 37.166C102.492 39.29 104.484 40.6211 106.995 40.6211C110.186 40.6211 113.046 38.4971 113.905 32.9557L113.981 32.5592C116.879 31.4075 118.909 29.51 120.268 26.9895C121.184 30.3219 123.884 31.3036 125.706 31.3036C129.189 31.3036 131.445 27.9901 132.012 24.4689C133.409 24.7805 134.721 24.5256 135.75 24.0253C135.325 28.1695 135.91 31.2376 139.469 31.2376C141.537 31.2376 143.264 29.2929 144.444 27.0933C145.558 25.1486 146.578 22.647 147.201 19.6167C148.249 19.8716 149.419 19.9754 150.175 20.0132C149.353 22.9302 148.532 25.5923 148.928 27.8957C149.24 29.6988 150.628 31.247 152.705 31.247C154.781 31.247 156.547 29.1513 157.727 26.8668C158.463 29.4534 160.276 31.247 162.532 31.247C164.788 31.247 165.713 29.9537 166.232 28.8398C166.6 29.9159 167.582 31.247 169.376 31.247H169.414C172.274 31.2092 174.36 28.33 175.163 26.3853L173.067 24.6578H173.105ZM41.2631 28.3961C40.0453 28.3961 39.0541 27.4615 38.7426 25.6962C38.2234 22.7131 39.6017 19.1069 41.8295 19.1069C43.1889 19.1069 44.048 20.2964 44.3123 21.8068C44.8315 24.7899 43.4532 28.3961 41.2631 28.3961ZM106.957 38.0439C105.985 38.0439 105.249 37.6852 105.088 36.7884C104.73 34.7399 108.619 33.371 111.045 33.0784C110.346 36.458 108.723 38.0439 106.957 38.0439ZM109.053 26.8101C107.76 26.8101 106.787 25.9416 106.514 24.3651C106.07 21.8068 107.023 19.0786 109.752 19.0786C110.866 19.0786 112.083 19.6922 112.697 20.3341C112.187 23.355 111.46 26.8101 109.053 26.8101ZM125.394 28.3583C123.997 28.3583 122.741 26.9517 123.232 23.5721C123.619 20.8722 125.158 19.1824 126.772 19.1824C127.745 19.1824 128.66 19.9377 128.906 21.3065C129.453 24.4406 127.697 28.3583 125.404 28.3583H125.394ZM163.051 28.2922C161.72 28.2922 160.899 27.0367 160.663 25.6962C160.125 22.5998 161.257 19.2202 163.91 19.2202C164.986 19.2202 166.034 19.8716 166.582 20.7306C166.015 25.6962 164.958 28.2922 163.06 28.2922H163.051Z" fill="#3B3D42"/>
		<path d="M165.382 44.6616C165.382 42.9434 164.07 41.6029 161.474 41.6029H130.01C120.589 41.6029 112.253 50.1746 105.126 53.6486C105.05 53.6769 104.965 53.7241 104.871 53.7713C104.616 53.8941 104.361 54.0073 104.106 54.1112C101.444 55.0552 98.612 53.6109 97.8568 51.9116C96.2237 48.2771 94.3451 44.2084 93.1461 42.8207C91.428 40.81 88.8509 40.876 86.8967 41.1498C85.207 39.781 83.5077 38.3083 81.0721 37.3737C80.5813 37.1849 80.5341 37.723 80.7417 37.8929C82.4882 39.375 84.5461 41.9145 85.122 42.7452C85.4996 43.2927 85.8866 44.2367 85.6601 44.3028C85.6506 44.3028 85.6318 44.3028 85.6129 44.3028C85.6034 44.3028 85.5846 44.3028 85.5751 44.2934C84.9804 43.963 84.3951 43.6609 83.8004 43.3777C81.9312 42.5186 80.062 41.9805 78.174 41.9239C77.6642 41.9145 77.8814 42.3581 78.1362 42.4337C79.9676 43.1511 82.7336 44.35 83.5077 45.6245C84.3101 46.9461 84.2252 48.0128 85.1409 49.2212C86.302 50.741 87.1705 52.6763 86.3492 55.0458C86.0377 55.0458 85.6884 55.0458 85.3486 55.0269C77.3244 54.2905 67.4688 41.5935 55.999 41.5935H24.5254C21.9294 41.5935 20.6172 42.934 20.6172 44.6521C20.6172 47.0782 23.9401 50.1841 29.793 50.9676C29.1983 51.4774 28.8962 52.1854 28.8962 52.9784C28.8962 55.244 31.9171 58.0761 37.2508 58.8407C36.7221 59.3127 36.4578 59.9547 36.4578 60.6532C36.4578 62.7112 39.1955 65.3167 44.0289 66.0625C43.5852 66.4967 43.3492 67.0631 43.3492 67.6767C43.3492 68.4414 43.774 69.3099 44.6047 70.1123C56.3294 81.8748 68.9793 82.2241 76.2576 80.5437C79.2974 79.8451 81.4592 78.6273 82.8752 77.1641C83.1962 76.862 83.5738 76.3617 83.8948 75.8897C84.5556 78.3913 85.3674 80.2605 85.3674 80.2605C83.8381 87.435 76.2671 95.9784 75.6724 98.3101C75.172 100.274 76.4559 102.653 78.4289 103.389L79.0708 103.634C79.354 104.55 79.8072 105.277 80.2603 105.758C80.8928 106.429 82.0067 107.071 82.6203 107.392L83.6776 107.958C83.9514 109.1 84.5273 110.016 85.122 110.62C85.679 111.177 86.7174 111.838 87.7275 112.244C88.6149 114.151 90.6351 115.482 92.9951 115.482C95.3551 115.482 97.3753 114.151 98.2627 112.244C99.2728 111.838 100.321 111.177 100.868 110.62C101.463 110.025 102.039 109.1 102.313 107.958L103.37 107.392C103.983 107.061 105.097 106.419 105.73 105.758C106.183 105.277 106.636 104.541 106.919 103.634L107.561 103.389C109.534 102.643 110.818 100.274 110.318 98.3101C109.714 95.969 102.114 87.4067 100.613 80.2133C100.613 80.2133 101.387 78.4763 102.029 76.1068C102.331 76.4372 106.693 79.8357 109.733 80.5437C117.011 82.2241 129.661 81.8653 141.386 70.1123C142.216 69.3099 142.641 68.4414 142.641 67.6767C142.641 67.0631 142.414 66.4873 141.961 66.0625C146.804 65.3167 149.532 62.7112 149.532 60.6532C149.532 59.9547 149.268 59.3127 148.739 58.8407C154.073 58.0761 157.094 55.244 157.094 52.9784C157.094 52.1854 156.792 51.4868 156.197 50.9676C162.05 50.1841 165.373 47.0782 165.373 44.6521L165.382 44.6616ZM35.3911 44.4539H52.8743C54.6491 44.4539 57.8493 44.8598 59.3408 47.6069C59.6618 48.2016 60.1716 49.0984 60.8229 50.1463C55.5176 50.0236 50.0989 49.4005 44.718 48.2771C41.3762 47.5786 38.2515 46.2947 35.4005 44.4444L35.3911 44.4539ZM45.8225 51.1186C50.9485 51.6001 56.1973 51.6095 61.4554 51.147C62.4467 52.6668 63.4284 53.9979 64.4008 55.1213C61.9935 55.093 59.5296 54.923 57.0563 54.6304C53.0725 54.1584 49.3059 52.9784 45.8225 51.1186ZM66.015 58.0572C63.3057 58.2932 59.6524 57.538 57.113 56.7261C59.8412 56.6695 62.5788 56.4618 65.2882 56.0936C65.9301 56.7639 66.572 57.3303 67.1856 57.8023C67.0157 57.8873 66.6381 58.01 66.0245 58.0572H66.015ZM79.3068 101.095C78.5044 100.793 77.8908 99.679 78.0796 98.9426C78.5611 97.064 80.5907 95.5064 81.8557 94.3641C80.8361 95.9878 79.2502 99.7073 79.3068 101.095ZM83.7909 105.23C83.7909 105.23 82.5165 104.55 82.0634 104.078C81.6102 103.606 80.9872 102.303 81.3365 100.585C81.6952 98.8388 82.6959 96.441 83.4228 94.7795C84.3857 92.5894 84.886 90.9468 84.886 90.9468C85.2825 92.7593 83.7909 105.23 83.7909 105.23ZM89.4928 44.0668C89.861 43.7459 90.4274 43.7931 90.7483 44.1612C91.0693 44.5294 91.0221 45.0958 90.6539 45.4168C90.2858 45.7377 89.7194 45.6905 89.3984 45.3224C89.0774 44.9542 89.1246 44.3878 89.4928 44.0668ZM88.3694 55.9992C88.3789 55.7821 88.3977 55.5744 88.4166 55.3667C88.5677 53.3654 88.6998 51.4962 86.6135 48.7397C86.4059 48.4659 86.2359 48.1639 86.1038 47.8146C89.7099 50.9298 91.362 53.8563 92.2021 56.6695C90.7295 56.8394 89.4078 56.7072 88.36 55.9992H88.3694ZM107.92 98.9426C108.109 99.679 107.495 100.793 106.693 101.095C106.749 99.7073 105.173 95.9878 104.144 94.3641C105.409 95.5064 107.439 97.064 107.92 98.9426ZM101.114 90.9468C101.114 90.9468 101.614 92.5894 102.577 94.7795C103.304 96.4315 104.314 98.8294 104.663 100.585C105.012 102.303 104.38 103.606 103.936 104.078C103.493 104.55 102.218 105.23 102.218 105.23C102.218 105.23 100.717 92.7593 101.123 90.9468H101.114ZM119.985 58.0572C119.371 58.0005 118.993 57.8873 118.823 57.8023C119.437 57.3397 120.079 56.7639 120.721 56.0936C123.43 56.4618 126.168 56.6695 128.896 56.7261C126.347 57.538 122.703 58.2932 119.994 58.0572H119.985ZM128.953 54.6304C126.479 54.923 124.016 55.093 121.608 55.1213C122.581 53.9979 123.572 52.6668 124.554 51.147C129.812 51.6095 135.061 51.6001 140.187 51.1186C136.713 52.9784 132.937 54.1584 128.953 54.6304ZM141.291 48.2771C135.91 49.4005 130.492 50.0236 125.186 50.1463C125.838 49.0984 126.338 48.2016 126.668 47.6069C128.16 44.8598 131.36 44.4539 133.135 44.4539H150.618C147.767 46.3041 144.642 47.588 141.301 48.2866L141.291 48.2771Z" fill="#3B3D42"/>
		<path d="M77.9945 61.3329C78.5609 61.4085 79.1273 61.4745 79.6937 61.5406C80.3923 64.5426 81.1759 67.5351 82.0349 70.5182C81.3741 70.4616 80.7038 70.3955 80.043 70.3294C79.8731 69.6875 79.7126 69.0361 79.5616 68.3848C78.5137 68.2715 77.4659 68.1393 76.418 67.9977C76.1159 68.583 75.8044 69.1777 75.4929 69.763C74.8509 69.6686 74.209 69.5742 73.5576 69.4704C75.1152 66.7799 76.5974 64.0611 78.0039 61.3235L77.9945 61.3329ZM79.1651 66.7516C78.948 65.7793 78.7308 64.8069 78.5326 63.8346C78.0984 64.7314 77.6452 65.6188 77.1921 66.5061C77.8529 66.5911 78.5043 66.6761 79.1651 66.7516Z" fill="white"/>
		<path d="M86.1603 62.1543C87.2459 62.2204 88.3316 62.2676 89.4172 62.2959C90.4178 62.3242 91.2203 62.6263 91.7678 63.1738C92.2398 63.6458 92.5041 64.3255 92.4947 65.1846C92.4947 65.2035 92.4947 65.2129 92.4947 65.2318C92.4947 66.544 91.8056 67.3653 90.7955 67.7712C91.4185 68.8568 92.0699 69.933 92.7307 70.9998C91.9944 70.9998 91.258 70.9998 90.5122 70.9809C89.9553 70.0274 89.4172 69.0645 88.8885 68.0922C88.4921 68.0827 88.0956 68.0639 87.6991 68.045C87.6613 68.989 87.6141 69.933 87.5763 70.8865C86.9344 70.8582 86.2925 70.8298 85.6411 70.7921C85.811 67.9128 85.981 65.0336 86.1509 62.1543H86.1603ZM89.1529 66.5157C90.1063 66.544 90.6255 66.0342 90.6444 65.2507C90.6444 65.2507 90.6444 65.2507 90.6444 65.2412C90.6633 64.3727 90.1252 63.9385 89.2001 63.9102C88.7658 63.9007 88.3316 63.8819 87.8879 63.863C87.8501 64.7315 87.8124 65.6 87.7746 66.4685C88.2372 66.4874 88.6903 66.5062 89.1529 66.5157Z" fill="white"/>
		<path d="M97.9701 63.8913C97.2337 63.9196 96.4974 63.9479 95.7516 63.9668C95.7422 63.4192 95.7233 62.8623 95.7139 62.3147C97.7624 62.2675 99.8109 62.1543 101.859 61.9938C101.907 62.5413 101.944 63.0983 101.992 63.6458C101.255 63.7024 100.519 63.7591 99.7826 63.7969C99.9242 66.1191 100.056 68.4509 100.198 70.7732C99.556 70.8109 98.9235 70.8487 98.2816 70.8676C98.1778 68.5358 98.0739 66.2135 97.9795 63.8818L97.9701 63.8913Z" fill="white"/>
		<path d="M105.532 69.1777C105.862 68.6963 106.192 68.2243 106.513 67.7428C107.184 68.1771 107.986 68.5547 108.902 68.432C109.638 68.3376 110.035 67.9316 109.959 67.4219C109.959 67.4219 109.959 67.4219 109.959 67.4124C109.902 66.9876 109.6 66.7611 108.25 66.459C106.58 66.0719 105.532 65.5999 105.381 64.1272C105.381 64.1272 105.381 64.1084 105.381 64.0989C105.23 62.5979 106.277 61.4651 107.929 61.2385C108.94 61.1064 109.969 61.3046 110.875 61.8899C110.61 62.3902 110.346 62.8906 110.072 63.3909C109.459 63.0322 108.77 62.7679 108.099 62.8528C107.476 62.9378 107.127 63.2871 107.184 63.7308C107.184 63.7308 107.184 63.7308 107.184 63.7402C107.24 64.2311 107.571 64.4293 109.034 64.7975C110.667 65.1751 111.611 65.666 111.819 66.9971C111.819 66.9971 111.819 67.0159 111.819 67.0254C112.074 68.6113 110.922 69.8008 109.11 70.0368C107.929 70.1973 106.646 69.9613 105.541 69.1777H105.532Z" fill="white"/>
		<path d="M35.3911 44.4539H52.8743C54.6491 44.4539 57.8493 44.8598 59.3409 47.6069C59.6618 48.2017 60.1716 49.0985 60.823 50.1463C55.5176 50.0236 50.0989 49.4006 44.718 48.2772C41.3762 47.5786 38.2515 46.2947 35.4006 44.4445L35.3911 44.4539Z" fill="white"/>
		<path d="M45.8223 51.1187C50.9483 51.6001 56.197 51.6095 61.4552 51.147C62.4464 52.6668 63.4282 53.9979 64.4006 55.1213C61.9933 55.093 59.5294 54.923 57.0561 54.6304C53.0723 54.1584 49.3057 52.9784 45.8223 51.1187Z" fill="white"/>
		<path d="M66.0149 58.0572C63.3056 58.2932 59.6522 57.538 57.1128 56.7261C59.841 56.6695 62.5787 56.4618 65.288 56.0936C65.9299 56.7639 66.5719 57.3303 67.1855 57.8023C67.0155 57.8873 66.6379 58.01 66.0243 58.0572H66.0149Z" fill="white"/>
		<path d="M79.307 101.095C78.5046 100.793 77.891 99.679 78.0798 98.9426C78.5613 97.064 80.5909 95.5064 81.8559 94.3641C80.8363 95.9878 79.2504 99.7073 79.307 101.095Z" fill="white"/>
		<path d="M83.7909 105.23C83.7909 105.23 82.5165 104.55 82.0633 104.078C81.6102 103.606 80.9872 102.303 81.3364 100.585C81.6952 98.8388 82.6958 96.441 83.4227 94.7795C84.3856 92.5894 84.8859 90.9468 84.8859 90.9468C85.2824 92.7593 83.7909 105.23 83.7909 105.23Z" fill="white"/>
		<path d="M89.4929 44.0669C89.8611 43.7459 90.4275 43.7931 90.7485 44.1613C91.0694 44.5294 91.0222 45.0958 90.6541 45.4168C90.2859 45.7378 89.7195 45.6906 89.3985 45.3224C89.0775 44.9542 89.1248 44.3878 89.4929 44.0669Z" fill="white"/>
		<path d="M88.3697 55.9992C88.3791 55.7821 88.398 55.5744 88.4169 55.3667C88.5679 53.3654 88.7001 51.4962 86.6138 48.7397C86.4061 48.4659 86.2362 48.1639 86.104 47.8146C89.7102 50.9298 91.3622 53.8563 92.2024 56.6695C90.7297 56.8394 89.4081 56.7072 88.3602 55.9992H88.3697Z" fill="white"/>
		<path d="M107.92 98.9426C108.109 99.679 107.495 100.793 106.693 101.095C106.75 99.7073 105.173 95.9878 104.144 94.3641C105.409 95.5064 107.439 97.064 107.92 98.9426Z" fill="white"/>
		<path d="M101.114 90.9468C101.114 90.9468 101.614 92.5894 102.577 94.7795C103.304 96.4315 104.314 98.8293 104.663 100.585C105.013 102.303 104.38 103.606 103.937 104.078C103.493 104.55 102.218 105.23 102.218 105.23C102.218 105.23 100.717 92.7593 101.123 90.9468H101.114Z" fill="white"/>
		<path d="M119.984 58.0572C119.371 58.0005 118.993 57.8873 118.823 57.8023C119.437 57.3397 120.079 56.7639 120.721 56.0936C123.43 56.4618 126.168 56.6695 128.896 56.7261C126.347 57.538 122.703 58.2932 119.994 58.0572H119.984Z" fill="white"/>
		<path d="M128.953 54.6304C126.48 54.923 124.016 55.093 121.608 55.1213C122.581 53.9979 123.572 52.6668 124.554 51.147C129.812 51.6095 135.061 51.6001 140.187 51.1187C136.713 52.9784 132.937 54.1584 128.953 54.6304Z" fill="white"/>
		<path d="M141.291 48.2771C135.91 49.4005 130.491 50.0236 125.186 50.1463C125.837 49.0984 126.338 48.2016 126.668 47.6069C128.16 44.8598 131.36 44.4539 133.135 44.4539H150.618C147.767 46.3041 144.642 47.588 141.3 48.2866L141.291 48.2771Z" fill="white"/>
	</symbol>
</svg>
